G04 #@! TF.GenerationSoftware,KiCad,Pcbnew,(5.1.0-9-gc61ec8ee3)*
G04 #@! TF.CreationDate,2019-06-28T12:10:09+02:00*
G04 #@! TF.ProjectId,LCD_Back_Neo_Key_RxTx_emergency_stop,4c43445f-4261-4636-9b5f-4e656f5f4b65,rev?*
G04 #@! TF.SameCoordinates,Original*
G04 #@! TF.FileFunction,Copper,L2,Bot*
G04 #@! TF.FilePolarity,Positive*
%FSLAX46Y46*%
G04 Gerber Fmt 4.6, Leading zero omitted, Abs format (unit mm)*
G04 Created by KiCad (PCBNEW (5.1.0-9-gc61ec8ee3)) date 2019-06-28 12:10:09*
%MOMM*%
%LPD*%
G04 APERTURE LIST*
%ADD10O,2.000000X2.000000*%
%ADD11R,2.000000X2.000000*%
%ADD12C,2.500000*%
%ADD13R,2.500000X2.500000*%
%ADD14R,1.600000X1.600000*%
%ADD15C,1.600000*%
%ADD16O,1.050000X1.500000*%
%ADD17R,1.050000X1.500000*%
%ADD18O,1.600000X1.600000*%
%ADD19C,3.000000*%
%ADD20C,2.000000*%
%ADD21O,2.200000X2.200000*%
%ADD22R,2.200000X2.200000*%
%ADD23O,3.000000X3.000000*%
%ADD24C,0.150000*%
%ADD25C,4.000000*%
%ADD26O,4.000000X4.000000*%
%ADD27O,4.000000X3.000000*%
%ADD28O,3.600000X2.000000*%
%ADD29C,1.500000*%
%ADD30C,1.000000*%
%ADD31C,0.750000*%
%ADD32C,0.500000*%
G04 APERTURE END LIST*
D10*
X195580000Y-40640000D03*
X180340000Y-66040000D03*
X195580000Y-53340000D03*
D11*
X180340000Y-71120000D03*
D10*
X195580000Y-48260000D03*
X195580000Y-38100000D03*
X180340000Y-63500000D03*
X180340000Y-58420000D03*
X180340000Y-55880000D03*
X195580000Y-43180000D03*
X195580000Y-35560000D03*
X180340000Y-35560000D03*
X195580000Y-71120000D03*
X180340000Y-38100000D03*
X195580000Y-68580000D03*
X180340000Y-40640000D03*
X195580000Y-66040000D03*
X180340000Y-43180000D03*
X195580000Y-63500000D03*
X180340000Y-45720000D03*
X195580000Y-60960000D03*
X180340000Y-48260000D03*
X195580000Y-58420000D03*
X180340000Y-50800000D03*
X195580000Y-45720000D03*
X180340000Y-68580000D03*
X195580000Y-50800000D03*
X180340000Y-60960000D03*
X195580000Y-55880000D03*
X180340000Y-53340000D03*
D12*
X182880000Y-96520000D03*
D13*
X182880000Y-78740000D03*
D12*
X190820000Y-96520000D03*
X190820000Y-78740000D03*
X180340000Y-96520000D03*
X180340000Y-78740000D03*
X193040000Y-78740000D03*
X193040000Y-96520000D03*
D11*
X106680000Y-91440000D03*
D10*
X106680000Y-88900000D03*
X106680000Y-86360000D03*
X106680000Y-83820000D03*
X106680000Y-81280000D03*
X106680000Y-78740000D03*
X106680000Y-76200000D03*
X106680000Y-73660000D03*
D14*
X157480000Y-93980000D03*
D15*
X157480000Y-96480000D03*
D16*
X173990000Y-70104000D03*
X172720000Y-70104000D03*
D17*
X175260000Y-70104000D03*
D15*
X166116000Y-77216000D03*
D18*
X176276000Y-77216000D03*
D11*
X172720000Y-50800000D03*
D10*
X172720000Y-53340000D03*
X172720000Y-91440000D03*
X172720000Y-99060000D03*
X172720000Y-96520000D03*
X172720000Y-86360000D03*
X172720000Y-88900000D03*
X172720000Y-93980000D03*
X172720000Y-55880000D03*
X172720000Y-63500000D03*
X172720000Y-58420000D03*
X172720000Y-60960000D03*
D19*
X179750000Y-107020000D03*
X179750000Y-112020000D03*
X179750000Y-117020000D03*
D13*
X179750000Y-128270000D03*
D19*
X179750000Y-132020000D03*
X185420000Y-132020000D03*
D13*
X185420000Y-128270000D03*
D19*
X185420000Y-117020000D03*
X185420000Y-112020000D03*
X185420000Y-107020000D03*
X195580000Y-107020000D03*
X195580000Y-112020000D03*
X195580000Y-117020000D03*
D13*
X195580000Y-128270000D03*
D19*
X195580000Y-132020000D03*
D10*
X128016000Y-98552000D03*
X125476000Y-101092000D03*
X128016000Y-103632000D03*
D15*
X145796000Y-109982000D03*
D18*
X145796000Y-120142000D03*
X158496000Y-113792000D03*
D15*
X158496000Y-123952000D03*
X122936000Y-113792000D03*
D18*
X122936000Y-123952000D03*
D20*
X139700000Y-38100000D03*
X142240000Y-38100000D03*
D21*
X152146000Y-120142000D03*
D22*
X152146000Y-109982000D03*
D13*
X191500000Y-122050000D03*
D23*
X191500000Y-132210000D03*
D24*
G36*
X208559009Y-34282408D02*
G01*
X208607545Y-34289607D01*
X208655142Y-34301530D01*
X208701342Y-34318060D01*
X208745698Y-34339039D01*
X208787785Y-34364265D01*
X208827197Y-34393495D01*
X208863553Y-34426447D01*
X208896505Y-34462803D01*
X208925735Y-34502215D01*
X208950961Y-34544302D01*
X208971940Y-34588658D01*
X208988470Y-34634858D01*
X209000393Y-34682455D01*
X209007592Y-34730991D01*
X209010000Y-34780000D01*
X209010000Y-37780000D01*
X209007592Y-37829009D01*
X209000393Y-37877545D01*
X208988470Y-37925142D01*
X208971940Y-37971342D01*
X208950961Y-38015698D01*
X208925735Y-38057785D01*
X208896505Y-38097197D01*
X208863553Y-38133553D01*
X208827197Y-38166505D01*
X208787785Y-38195735D01*
X208745698Y-38220961D01*
X208701342Y-38241940D01*
X208655142Y-38258470D01*
X208607545Y-38270393D01*
X208559009Y-38277592D01*
X208510000Y-38280000D01*
X205510000Y-38280000D01*
X205460991Y-38277592D01*
X205412455Y-38270393D01*
X205364858Y-38258470D01*
X205318658Y-38241940D01*
X205274302Y-38220961D01*
X205232215Y-38195735D01*
X205192803Y-38166505D01*
X205156447Y-38133553D01*
X205123495Y-38097197D01*
X205094265Y-38057785D01*
X205069039Y-38015698D01*
X205048060Y-37971342D01*
X205031530Y-37925142D01*
X205019607Y-37877545D01*
X205012408Y-37829009D01*
X205010000Y-37780000D01*
X205010000Y-34780000D01*
X205012408Y-34730991D01*
X205019607Y-34682455D01*
X205031530Y-34634858D01*
X205048060Y-34588658D01*
X205069039Y-34544302D01*
X205094265Y-34502215D01*
X205123495Y-34462803D01*
X205156447Y-34426447D01*
X205192803Y-34393495D01*
X205232215Y-34364265D01*
X205274302Y-34339039D01*
X205318658Y-34318060D01*
X205364858Y-34301530D01*
X205412455Y-34289607D01*
X205460991Y-34282408D01*
X205510000Y-34280000D01*
X208510000Y-34280000D01*
X208559009Y-34282408D01*
X208559009Y-34282408D01*
G37*
D25*
X207010000Y-36280000D03*
D26*
X207010000Y-41280000D03*
X207010000Y-46280000D03*
X207010000Y-51280000D03*
X207010000Y-56280000D03*
X207010000Y-61280000D03*
X207010000Y-66280000D03*
D27*
X207010000Y-71280000D03*
D26*
X207010000Y-76280000D03*
X207010000Y-81280000D03*
X207010000Y-86280000D03*
X207010000Y-91280000D03*
X207010000Y-96280000D03*
D28*
X207010000Y-101280000D03*
D19*
X201930000Y-107020000D03*
X201930000Y-112020000D03*
X201930000Y-117020000D03*
D13*
X201930000Y-128270000D03*
D19*
X201930000Y-132020000D03*
D15*
X166116000Y-81788000D03*
D18*
X176276000Y-81788000D03*
D20*
X208280000Y-119380000D03*
X208280000Y-116840000D03*
X208280000Y-109220000D03*
X208280000Y-111760000D03*
D29*
X193040000Y-69988630D02*
X193040000Y-70612000D01*
X194448630Y-68580000D02*
X193040000Y-69988630D01*
X195580000Y-68580000D02*
X194448630Y-68580000D01*
X193040000Y-78740000D02*
X193040000Y-70612000D01*
D30*
X172720000Y-96520000D02*
X169672000Y-96520000D01*
X180340000Y-78740000D02*
X180340000Y-81788000D01*
X180340000Y-81788000D02*
X178308000Y-83820000D01*
X170688000Y-83820000D02*
X169672000Y-84836000D01*
X178308000Y-83820000D02*
X170688000Y-83820000D01*
X169672000Y-96520000D02*
X169672000Y-84836000D01*
X180340000Y-58420000D02*
X181864000Y-58420000D01*
X181864000Y-58420000D02*
X182880000Y-59436000D01*
X182880000Y-59436000D02*
X182880000Y-74168000D01*
X176276000Y-79917998D02*
X179324000Y-76869998D01*
X176276000Y-81788000D02*
X176276000Y-79917998D01*
X179324000Y-76869998D02*
X179324000Y-75184000D01*
X181864000Y-75184000D02*
X182880000Y-74168000D01*
X179324000Y-75184000D02*
X181864000Y-75184000D01*
D31*
X175260000Y-70104000D02*
X175260000Y-67564000D01*
X175260000Y-67564000D02*
X172720000Y-67564000D01*
X172720000Y-67564000D02*
X170688000Y-65532000D01*
X171120000Y-50800000D02*
X172720000Y-50800000D01*
X170688000Y-51232000D02*
X171120000Y-50800000D01*
X170688000Y-65532000D02*
X170688000Y-51232000D01*
D30*
X176276000Y-77216000D02*
X177800000Y-75692000D01*
X177800000Y-55880000D02*
X180340000Y-53340000D01*
X177800000Y-75692000D02*
X177800000Y-55880000D01*
D32*
X189992000Y-35560000D02*
X195580000Y-35560000D01*
X184912000Y-40640000D02*
X189992000Y-35560000D01*
X184912000Y-83820000D02*
X184912000Y-40640000D01*
X172720000Y-86360000D02*
X182372000Y-86360000D01*
X182372000Y-86360000D02*
X184912000Y-83820000D01*
X185420000Y-88900000D02*
X172720000Y-88900000D01*
X186944000Y-87376000D02*
X185420000Y-88900000D01*
X186944000Y-47752000D02*
X186944000Y-87376000D01*
X195580000Y-45720000D02*
X188976000Y-45720000D01*
X188976000Y-45720000D02*
X186944000Y-47752000D01*
D29*
X182880000Y-96520000D02*
X180340000Y-96520000D01*
D31*
X179150000Y-107020000D02*
X177800000Y-107020000D01*
X178999999Y-105820001D02*
X177800000Y-107020000D01*
X179090001Y-105729999D02*
X178999999Y-105820001D01*
X179090001Y-97769999D02*
X179090001Y-105729999D01*
X180340000Y-96520000D02*
X179090001Y-97769999D01*
D29*
X180420000Y-107020000D02*
X185420000Y-112020000D01*
X179750000Y-107020000D02*
X180420000Y-107020000D01*
D32*
X147066000Y-118872000D02*
X145796000Y-120142000D01*
X147066000Y-117602000D02*
X147066000Y-118872000D01*
X176276000Y-99594038D02*
X158268038Y-117602000D01*
X176276000Y-91948000D02*
X176276000Y-99594038D01*
X158268038Y-117602000D02*
X147066000Y-117602000D01*
X189484000Y-50800000D02*
X187960000Y-52324000D01*
X187960000Y-52324000D02*
X187960000Y-88392000D01*
X195580000Y-50800000D02*
X189484000Y-50800000D01*
X187960000Y-88392000D02*
X185928000Y-90424000D01*
X185928000Y-90424000D02*
X177800000Y-90424000D01*
X177800000Y-90424000D02*
X176276000Y-91948000D01*
X173228000Y-103632000D02*
X177292000Y-99568000D01*
X177292000Y-91948000D02*
X178115990Y-91124010D01*
X177292000Y-99568000D02*
X177292000Y-91948000D01*
X178115990Y-91124010D02*
X186243990Y-91124010D01*
X187960000Y-89381962D02*
X188660008Y-88681954D01*
X186243990Y-91124010D02*
X187960000Y-89408000D01*
X187960000Y-89408000D02*
X187960000Y-89381962D01*
X188660008Y-88681954D02*
X188686046Y-88681954D01*
X188686046Y-88681954D02*
X188976000Y-88392000D01*
X188976000Y-88392000D02*
X188976000Y-60960000D01*
X191516000Y-58420000D02*
X195580000Y-58420000D01*
X188976000Y-60960000D02*
X191516000Y-58420000D01*
X173228000Y-103632000D02*
X158496000Y-118364000D01*
X158496000Y-118364000D02*
X158496000Y-123952000D01*
D29*
X191500000Y-113100000D02*
X185420000Y-107020000D01*
X191500000Y-122050000D02*
X191500000Y-113100000D01*
D30*
X199644000Y-112956000D02*
X195580000Y-117020000D01*
X199644000Y-75846000D02*
X199644000Y-112956000D01*
X207010000Y-71280000D02*
X204210000Y-71280000D01*
X204210000Y-71280000D02*
X199644000Y-75846000D01*
X206210000Y-61280000D02*
X198628000Y-68862000D01*
X207010000Y-61280000D02*
X206210000Y-61280000D01*
X198628000Y-68862000D02*
X198628000Y-71120000D01*
X198628000Y-71120000D02*
X195580000Y-74168000D01*
X195580000Y-74168000D02*
X195580000Y-107020000D01*
X197612000Y-109988000D02*
X195580000Y-112020000D01*
X207010000Y-66280000D02*
X206210000Y-66280000D01*
X198055000Y-107801002D02*
X198055000Y-74435000D01*
X197612000Y-108244002D02*
X198055000Y-107801002D01*
X197612000Y-109988000D02*
X197612000Y-108244002D01*
X206210000Y-66280000D02*
X198055000Y-74435000D01*
D29*
X207010000Y-76280000D02*
X207810000Y-76280000D01*
D31*
X209804000Y-107696000D02*
X208280000Y-109220000D01*
X209804000Y-78486000D02*
X209804000Y-107696000D01*
X207010000Y-76280000D02*
X207598000Y-76280000D01*
X207598000Y-76280000D02*
X209804000Y-78486000D01*
D30*
X203429999Y-130520001D02*
X201930000Y-132020000D01*
X204180001Y-130520001D02*
X203429999Y-130520001D01*
X204216000Y-130556000D02*
X204180001Y-130520001D01*
X204216000Y-88274000D02*
X204216000Y-130556000D01*
X206210000Y-86280000D02*
X204216000Y-88274000D01*
X207010000Y-86280000D02*
X206210000Y-86280000D01*
M02*
