G04 #@! TF.GenerationSoftware,KiCad,Pcbnew,(5.1.0-9-gc61ec8ee3)*
G04 #@! TF.CreationDate,2019-06-18T12:37:55+02:00*
G04 #@! TF.ProjectId,LCD_Back_Neo_Key_RxTx_emergency_stop,4c43445f-4261-4636-9b5f-4e656f5f4b65,rev?*
G04 #@! TF.SameCoordinates,Original*
G04 #@! TF.FileFunction,Copper,L2,Bot*
G04 #@! TF.FilePolarity,Positive*
%FSLAX46Y46*%
G04 Gerber Fmt 4.6, Leading zero omitted, Abs format (unit mm)*
G04 Created by KiCad (PCBNEW (5.1.0-9-gc61ec8ee3)) date 2019-06-18 12:37:55*
%MOMM*%
%LPD*%
G04 APERTURE LIST*
%ADD10C,4.000000*%
%ADD11O,1.600000X1.600000*%
%ADD12R,1.600000X1.600000*%
%ADD13C,2.500000*%
%ADD14R,2.500000X2.500000*%
%ADD15R,1.700000X1.700000*%
%ADD16O,1.700000X1.700000*%
%ADD17C,1.600000*%
%ADD18O,1.050000X1.500000*%
%ADD19R,1.050000X1.500000*%
%ADD20C,2.400000*%
%ADD21R,2.000000X2.000000*%
%ADD22C,2.000000*%
%ADD23O,1.200000X1.600000*%
%ADD24O,1.200000X1.200000*%
%ADD25C,1.400000*%
%ADD26O,2.200000X2.200000*%
%ADD27R,2.200000X2.200000*%
%ADD28C,0.150000*%
%ADD29O,3.600000X2.000000*%
%ADD30C,1.500000*%
%ADD31C,1.000000*%
%ADD32C,0.750000*%
%ADD33C,0.500000*%
G04 APERTURE END LIST*
D10*
X173758860Y-126540260D03*
X108379260Y-37642800D03*
X173758860Y-38148260D03*
X108379260Y-126034800D03*
D11*
X195580000Y-40640000D03*
X180340000Y-66040000D03*
X195580000Y-53340000D03*
D12*
X180340000Y-71120000D03*
D11*
X195580000Y-48260000D03*
X195580000Y-38100000D03*
X180340000Y-63500000D03*
X180340000Y-58420000D03*
X180340000Y-55880000D03*
X195580000Y-43180000D03*
X195580000Y-35560000D03*
X180340000Y-35560000D03*
X195580000Y-71120000D03*
X180340000Y-38100000D03*
X195580000Y-68580000D03*
X180340000Y-40640000D03*
X195580000Y-66040000D03*
X180340000Y-43180000D03*
X195580000Y-63500000D03*
X180340000Y-45720000D03*
X195580000Y-60960000D03*
X180340000Y-48260000D03*
X195580000Y-58420000D03*
X180340000Y-50800000D03*
X195580000Y-45720000D03*
X180340000Y-68580000D03*
X195580000Y-50800000D03*
X180340000Y-60960000D03*
X195580000Y-55880000D03*
X180340000Y-53340000D03*
D13*
X182880000Y-96520000D03*
D14*
X182880000Y-78740000D03*
D13*
X190820000Y-96520000D03*
X190820000Y-78740000D03*
X180340000Y-96520000D03*
X180340000Y-78740000D03*
X193040000Y-78740000D03*
X193040000Y-96520000D03*
D15*
X106680000Y-91440000D03*
D16*
X106680000Y-88900000D03*
X106680000Y-86360000D03*
X106680000Y-83820000D03*
X106680000Y-81280000D03*
X106680000Y-78740000D03*
X106680000Y-76200000D03*
X106680000Y-73660000D03*
D12*
X157480000Y-93980000D03*
D17*
X157480000Y-96480000D03*
D18*
X173990000Y-70104000D03*
X172720000Y-70104000D03*
D19*
X175260000Y-70104000D03*
D17*
X166116000Y-77216000D03*
D11*
X176276000Y-77216000D03*
D15*
X172720000Y-50800000D03*
D16*
X172720000Y-53340000D03*
X172720000Y-91440000D03*
X172720000Y-99060000D03*
X172720000Y-96520000D03*
X172720000Y-86360000D03*
X172720000Y-88900000D03*
X172720000Y-93980000D03*
X172720000Y-55880000D03*
X172720000Y-63500000D03*
X172720000Y-58420000D03*
X172720000Y-60960000D03*
D20*
X177800000Y-107020000D03*
X177800000Y-112020000D03*
X177800000Y-117020000D03*
D21*
X177800000Y-128270000D03*
D22*
X177800000Y-132020000D03*
X184150000Y-132020000D03*
D21*
X184150000Y-128270000D03*
D20*
X184150000Y-117020000D03*
X184150000Y-112020000D03*
X184150000Y-107020000D03*
X195580000Y-107020000D03*
X195580000Y-112020000D03*
X195580000Y-117020000D03*
D21*
X195580000Y-128270000D03*
D22*
X195580000Y-132020000D03*
D23*
X128016000Y-98552000D03*
D24*
X125476000Y-101092000D03*
X128016000Y-103632000D03*
D17*
X145796000Y-109982000D03*
D11*
X145796000Y-120142000D03*
X158496000Y-113792000D03*
D17*
X158496000Y-123952000D03*
X122936000Y-113792000D03*
D11*
X122936000Y-123952000D03*
D25*
X139700000Y-38100000D03*
X142385001Y-38100000D03*
D26*
X152146000Y-120142000D03*
D27*
X152146000Y-109982000D03*
X190500000Y-121920000D03*
D26*
X190500000Y-132080000D03*
D28*
G36*
X208584504Y-35281204D02*
G01*
X208608773Y-35284804D01*
X208632571Y-35290765D01*
X208655671Y-35299030D01*
X208677849Y-35309520D01*
X208698893Y-35322133D01*
X208718598Y-35336747D01*
X208736777Y-35353223D01*
X208753253Y-35371402D01*
X208767867Y-35391107D01*
X208780480Y-35412151D01*
X208790970Y-35434329D01*
X208799235Y-35457429D01*
X208805196Y-35481227D01*
X208808796Y-35505496D01*
X208810000Y-35530000D01*
X208810000Y-37030000D01*
X208808796Y-37054504D01*
X208805196Y-37078773D01*
X208799235Y-37102571D01*
X208790970Y-37125671D01*
X208780480Y-37147849D01*
X208767867Y-37168893D01*
X208753253Y-37188598D01*
X208736777Y-37206777D01*
X208718598Y-37223253D01*
X208698893Y-37237867D01*
X208677849Y-37250480D01*
X208655671Y-37260970D01*
X208632571Y-37269235D01*
X208608773Y-37275196D01*
X208584504Y-37278796D01*
X208560000Y-37280000D01*
X205460000Y-37280000D01*
X205435496Y-37278796D01*
X205411227Y-37275196D01*
X205387429Y-37269235D01*
X205364329Y-37260970D01*
X205342151Y-37250480D01*
X205321107Y-37237867D01*
X205301402Y-37223253D01*
X205283223Y-37206777D01*
X205266747Y-37188598D01*
X205252133Y-37168893D01*
X205239520Y-37147849D01*
X205229030Y-37125671D01*
X205220765Y-37102571D01*
X205214804Y-37078773D01*
X205211204Y-37054504D01*
X205210000Y-37030000D01*
X205210000Y-35530000D01*
X205211204Y-35505496D01*
X205214804Y-35481227D01*
X205220765Y-35457429D01*
X205229030Y-35434329D01*
X205239520Y-35412151D01*
X205252133Y-35391107D01*
X205266747Y-35371402D01*
X205283223Y-35353223D01*
X205301402Y-35336747D01*
X205321107Y-35322133D01*
X205342151Y-35309520D01*
X205364329Y-35299030D01*
X205387429Y-35290765D01*
X205411227Y-35284804D01*
X205435496Y-35281204D01*
X205460000Y-35280000D01*
X208560000Y-35280000D01*
X208584504Y-35281204D01*
X208584504Y-35281204D01*
G37*
D22*
X207010000Y-36280000D03*
D29*
X207010000Y-41280000D03*
X207010000Y-46280000D03*
X207010000Y-51280000D03*
X207010000Y-56280000D03*
X207010000Y-61280000D03*
X207010000Y-66280000D03*
X207010000Y-71280000D03*
X207010000Y-76280000D03*
X207010000Y-81280000D03*
X207010000Y-86280000D03*
X207010000Y-91280000D03*
X207010000Y-96280000D03*
X207010000Y-101280000D03*
D20*
X201930000Y-107020000D03*
X201930000Y-112020000D03*
X201930000Y-117020000D03*
D21*
X201930000Y-128270000D03*
D22*
X201930000Y-132020000D03*
D17*
X166116000Y-81788000D03*
D11*
X176276000Y-81788000D03*
D25*
X207772000Y-119380000D03*
X207518000Y-116332000D03*
X207518000Y-109474000D03*
X207518000Y-111760000D03*
D30*
X193040000Y-69988630D02*
X193040000Y-70612000D01*
X194448630Y-68580000D02*
X193040000Y-69988630D01*
X195580000Y-68580000D02*
X194448630Y-68580000D01*
X193040000Y-78740000D02*
X193040000Y-70612000D01*
D31*
X172720000Y-96520000D02*
X169672000Y-96520000D01*
X180340000Y-78740000D02*
X180340000Y-81788000D01*
X180340000Y-81788000D02*
X178308000Y-83820000D01*
X170688000Y-83820000D02*
X169672000Y-84836000D01*
X178308000Y-83820000D02*
X170688000Y-83820000D01*
X169672000Y-96520000D02*
X169672000Y-84836000D01*
X180340000Y-58420000D02*
X181864000Y-58420000D01*
X181864000Y-58420000D02*
X182880000Y-59436000D01*
X182880000Y-59436000D02*
X182880000Y-74168000D01*
X176276000Y-79917998D02*
X179324000Y-76869998D01*
X176276000Y-81788000D02*
X176276000Y-79917998D01*
X179324000Y-76869998D02*
X179324000Y-75184000D01*
X181864000Y-75184000D02*
X182880000Y-74168000D01*
X179324000Y-75184000D02*
X181864000Y-75184000D01*
D32*
X175260000Y-70104000D02*
X175260000Y-67564000D01*
X175260000Y-67564000D02*
X172720000Y-67564000D01*
X172720000Y-67564000D02*
X170688000Y-65532000D01*
X171120000Y-50800000D02*
X172720000Y-50800000D01*
X170688000Y-51232000D02*
X171120000Y-50800000D01*
X170688000Y-65532000D02*
X170688000Y-51232000D01*
D31*
X176276000Y-77216000D02*
X177800000Y-75692000D01*
X177800000Y-55880000D02*
X180340000Y-53340000D01*
X177800000Y-75692000D02*
X177800000Y-55880000D01*
D33*
X189992000Y-35560000D02*
X195580000Y-35560000D01*
X184912000Y-40640000D02*
X189992000Y-35560000D01*
X184912000Y-83820000D02*
X184912000Y-40640000D01*
X172720000Y-86360000D02*
X182372000Y-86360000D01*
X182372000Y-86360000D02*
X184912000Y-83820000D01*
X185420000Y-88900000D02*
X172720000Y-88900000D01*
X186944000Y-87376000D02*
X185420000Y-88900000D01*
X186944000Y-47752000D02*
X186944000Y-87376000D01*
X195580000Y-45720000D02*
X188976000Y-45720000D01*
X188976000Y-45720000D02*
X186944000Y-47752000D01*
D30*
X182880000Y-96520000D02*
X180340000Y-96520000D01*
D32*
X179150000Y-107020000D02*
X177800000Y-107020000D01*
X184150000Y-112020000D02*
X179150000Y-107020000D01*
X178999999Y-105820001D02*
X177800000Y-107020000D01*
X179090001Y-105729999D02*
X178999999Y-105820001D01*
X179090001Y-97769999D02*
X179090001Y-105729999D01*
X180340000Y-96520000D02*
X179090001Y-97769999D01*
D33*
X147066000Y-118872000D02*
X145796000Y-120142000D01*
X147066000Y-117602000D02*
X147066000Y-118872000D01*
X176276000Y-99594038D02*
X158268038Y-117602000D01*
X176276000Y-91948000D02*
X176276000Y-99594038D01*
X158268038Y-117602000D02*
X147066000Y-117602000D01*
X189484000Y-50800000D02*
X187960000Y-52324000D01*
X187960000Y-52324000D02*
X187960000Y-88392000D01*
X195580000Y-50800000D02*
X189484000Y-50800000D01*
X187960000Y-88392000D02*
X185928000Y-90424000D01*
X185928000Y-90424000D02*
X177800000Y-90424000D01*
X177800000Y-90424000D02*
X176276000Y-91948000D01*
X173228000Y-103632000D02*
X177292000Y-99568000D01*
X177292000Y-91948000D02*
X178115990Y-91124010D01*
X177292000Y-99568000D02*
X177292000Y-91948000D01*
X178115990Y-91124010D02*
X186243990Y-91124010D01*
X187960000Y-89381962D02*
X188660008Y-88681954D01*
X186243990Y-91124010D02*
X187960000Y-89408000D01*
X187960000Y-89408000D02*
X187960000Y-89381962D01*
X188660008Y-88681954D02*
X188686046Y-88681954D01*
X188686046Y-88681954D02*
X188976000Y-88392000D01*
X188976000Y-88392000D02*
X188976000Y-60960000D01*
X191516000Y-58420000D02*
X195580000Y-58420000D01*
X188976000Y-60960000D02*
X191516000Y-58420000D01*
X173228000Y-103632000D02*
X158496000Y-118364000D01*
X158496000Y-118364000D02*
X158496000Y-123952000D01*
D32*
X190500000Y-113370000D02*
X184150000Y-107020000D01*
X190500000Y-121920000D02*
X190500000Y-113370000D01*
D31*
X199644000Y-112956000D02*
X195580000Y-117020000D01*
X199644000Y-75846000D02*
X199644000Y-112956000D01*
X207010000Y-71280000D02*
X204210000Y-71280000D01*
X204210000Y-71280000D02*
X199644000Y-75846000D01*
X206210000Y-61280000D02*
X198628000Y-68862000D01*
X207010000Y-61280000D02*
X206210000Y-61280000D01*
X198628000Y-68862000D02*
X198628000Y-71120000D01*
X198628000Y-71120000D02*
X195580000Y-74168000D01*
X195580000Y-74168000D02*
X195580000Y-107020000D01*
X197612000Y-109988000D02*
X195580000Y-112020000D01*
X197612000Y-74878000D02*
X197612000Y-109988000D01*
X207010000Y-66280000D02*
X206210000Y-66280000D01*
X206210000Y-66280000D02*
X197612000Y-74878000D01*
D30*
X207010000Y-76280000D02*
X207810000Y-76280000D01*
D32*
X207598000Y-76280000D02*
X207010000Y-76280000D01*
X209804000Y-78486000D02*
X207598000Y-76280000D01*
X207518000Y-109474000D02*
X209804000Y-107188000D01*
X209804000Y-107188000D02*
X209804000Y-78486000D01*
D31*
X206210000Y-86280000D02*
X204216000Y-88274000D01*
X207010000Y-86280000D02*
X206210000Y-86280000D01*
X204216000Y-88274000D02*
X204216000Y-130048000D01*
X203902000Y-130048000D02*
X201930000Y-132020000D01*
X204216000Y-130048000D02*
X203902000Y-130048000D01*
M02*
