G04 #@! TF.GenerationSoftware,KiCad,Pcbnew,(5.1.0-9-gc61ec8ee3)*
G04 #@! TF.CreationDate,2019-06-18T12:37:55+02:00*
G04 #@! TF.ProjectId,LCD_Back_Neo_Key_RxTx_emergency_stop,4c43445f-4261-4636-9b5f-4e656f5f4b65,rev?*
G04 #@! TF.SameCoordinates,Original*
G04 #@! TF.FileFunction,Legend,Top*
G04 #@! TF.FilePolarity,Positive*
%FSLAX46Y46*%
G04 Gerber Fmt 4.6, Leading zero omitted, Abs format (unit mm)*
G04 Created by KiCad (PCBNEW (5.1.0-9-gc61ec8ee3)) date 2019-06-18 12:37:55*
%MOMM*%
%LPD*%
G04 APERTURE LIST*
%ADD10C,0.120000*%
%ADD11C,0.150000*%
G04 APERTURE END LIST*
D10*
X194310000Y-34290000D02*
X196980000Y-34290000D01*
X194310000Y-69850000D02*
X194310000Y-34290000D01*
X194310000Y-69850000D02*
X196980000Y-69850000D01*
X181610000Y-72390000D02*
X181610000Y-34290000D01*
X196980000Y-69850000D02*
X196980000Y-31620000D01*
X181610000Y-34290000D02*
X178940000Y-34290000D01*
X181610000Y-72390000D02*
X178940000Y-72390000D01*
X178940000Y-75060000D02*
X196980000Y-75060000D01*
X178940000Y-31620000D02*
X178940000Y-75060000D01*
X196980000Y-31620000D02*
X178940000Y-31620000D01*
X196980000Y-75060000D02*
X196980000Y-72390000D01*
X194310000Y-69850000D02*
X194310000Y-72390000D01*
X194310000Y-72390000D02*
X196980000Y-72390000D01*
X194310000Y-97790000D02*
X179070000Y-97790000D01*
X179070000Y-97790000D02*
X179070000Y-77470000D01*
X179070000Y-77470000D02*
X194310000Y-77470000D01*
X194310000Y-77470000D02*
X194310000Y-97790000D01*
X105240000Y-92770000D02*
X105240000Y-72330000D01*
X105240000Y-72330000D02*
X102580000Y-72330000D01*
X102580000Y-72330000D02*
X102580000Y-92770000D01*
X102580000Y-92770000D02*
X105240000Y-92770000D01*
X102580000Y-91820000D02*
X96580000Y-91820000D01*
X96580000Y-91820000D02*
X96580000Y-91060000D01*
X96580000Y-91060000D02*
X102580000Y-91060000D01*
X102580000Y-91760000D02*
X96580000Y-91760000D01*
X102580000Y-91640000D02*
X96580000Y-91640000D01*
X102580000Y-91520000D02*
X96580000Y-91520000D01*
X102580000Y-91400000D02*
X96580000Y-91400000D01*
X102580000Y-91280000D02*
X96580000Y-91280000D01*
X102580000Y-91160000D02*
X96580000Y-91160000D01*
X105570000Y-91820000D02*
X105240000Y-91820000D01*
X105570000Y-91060000D02*
X105240000Y-91060000D01*
X105240000Y-90170000D02*
X102580000Y-90170000D01*
X102580000Y-89280000D02*
X96580000Y-89280000D01*
X96580000Y-89280000D02*
X96580000Y-88520000D01*
X96580000Y-88520000D02*
X102580000Y-88520000D01*
X105637071Y-89280000D02*
X105240000Y-89280000D01*
X105637071Y-88520000D02*
X105240000Y-88520000D01*
X105240000Y-87630000D02*
X102580000Y-87630000D01*
X102580000Y-86740000D02*
X96580000Y-86740000D01*
X96580000Y-86740000D02*
X96580000Y-85980000D01*
X96580000Y-85980000D02*
X102580000Y-85980000D01*
X105637071Y-86740000D02*
X105240000Y-86740000D01*
X105637071Y-85980000D02*
X105240000Y-85980000D01*
X105240000Y-85090000D02*
X102580000Y-85090000D01*
X102580000Y-84200000D02*
X96580000Y-84200000D01*
X96580000Y-84200000D02*
X96580000Y-83440000D01*
X96580000Y-83440000D02*
X102580000Y-83440000D01*
X105637071Y-84200000D02*
X105240000Y-84200000D01*
X105637071Y-83440000D02*
X105240000Y-83440000D01*
X105240000Y-82550000D02*
X102580000Y-82550000D01*
X102580000Y-81660000D02*
X96580000Y-81660000D01*
X96580000Y-81660000D02*
X96580000Y-80900000D01*
X96580000Y-80900000D02*
X102580000Y-80900000D01*
X105637071Y-81660000D02*
X105240000Y-81660000D01*
X105637071Y-80900000D02*
X105240000Y-80900000D01*
X105240000Y-80010000D02*
X102580000Y-80010000D01*
X102580000Y-79120000D02*
X96580000Y-79120000D01*
X96580000Y-79120000D02*
X96580000Y-78360000D01*
X96580000Y-78360000D02*
X102580000Y-78360000D01*
X105637071Y-79120000D02*
X105240000Y-79120000D01*
X105637071Y-78360000D02*
X105240000Y-78360000D01*
X105240000Y-77470000D02*
X102580000Y-77470000D01*
X102580000Y-76580000D02*
X96580000Y-76580000D01*
X96580000Y-76580000D02*
X96580000Y-75820000D01*
X96580000Y-75820000D02*
X102580000Y-75820000D01*
X105637071Y-76580000D02*
X105240000Y-76580000D01*
X105637071Y-75820000D02*
X105240000Y-75820000D01*
X105240000Y-74930000D02*
X102580000Y-74930000D01*
X102580000Y-74040000D02*
X96580000Y-74040000D01*
X96580000Y-74040000D02*
X96580000Y-73280000D01*
X96580000Y-73280000D02*
X102580000Y-73280000D01*
X105637071Y-74040000D02*
X105240000Y-74040000D01*
X105637071Y-73280000D02*
X105240000Y-73280000D01*
X107950000Y-91440000D02*
X107950000Y-92710000D01*
X107950000Y-92710000D02*
X106680000Y-92710000D01*
X161600000Y-95230000D02*
G75*
G03X161600000Y-95230000I-4120000J0D01*
G01*
X161560000Y-95230000D02*
X153400000Y-95230000D01*
X161560000Y-95270000D02*
X153400000Y-95270000D01*
X161560000Y-95310000D02*
X153400000Y-95310000D01*
X161559000Y-95350000D02*
X153401000Y-95350000D01*
X161557000Y-95390000D02*
X153403000Y-95390000D01*
X161556000Y-95430000D02*
X153404000Y-95430000D01*
X161554000Y-95470000D02*
X158520000Y-95470000D01*
X156440000Y-95470000D02*
X153406000Y-95470000D01*
X161551000Y-95510000D02*
X158520000Y-95510000D01*
X156440000Y-95510000D02*
X153409000Y-95510000D01*
X161548000Y-95550000D02*
X158520000Y-95550000D01*
X156440000Y-95550000D02*
X153412000Y-95550000D01*
X161545000Y-95590000D02*
X158520000Y-95590000D01*
X156440000Y-95590000D02*
X153415000Y-95590000D01*
X161541000Y-95630000D02*
X158520000Y-95630000D01*
X156440000Y-95630000D02*
X153419000Y-95630000D01*
X161537000Y-95670000D02*
X158520000Y-95670000D01*
X156440000Y-95670000D02*
X153423000Y-95670000D01*
X161532000Y-95710000D02*
X158520000Y-95710000D01*
X156440000Y-95710000D02*
X153428000Y-95710000D01*
X161528000Y-95750000D02*
X158520000Y-95750000D01*
X156440000Y-95750000D02*
X153432000Y-95750000D01*
X161522000Y-95790000D02*
X158520000Y-95790000D01*
X156440000Y-95790000D02*
X153438000Y-95790000D01*
X161517000Y-95830000D02*
X158520000Y-95830000D01*
X156440000Y-95830000D02*
X153443000Y-95830000D01*
X161510000Y-95870000D02*
X158520000Y-95870000D01*
X156440000Y-95870000D02*
X153450000Y-95870000D01*
X161504000Y-95910000D02*
X158520000Y-95910000D01*
X156440000Y-95910000D02*
X153456000Y-95910000D01*
X161497000Y-95951000D02*
X158520000Y-95951000D01*
X156440000Y-95951000D02*
X153463000Y-95951000D01*
X161490000Y-95991000D02*
X158520000Y-95991000D01*
X156440000Y-95991000D02*
X153470000Y-95991000D01*
X161482000Y-96031000D02*
X158520000Y-96031000D01*
X156440000Y-96031000D02*
X153478000Y-96031000D01*
X161474000Y-96071000D02*
X158520000Y-96071000D01*
X156440000Y-96071000D02*
X153486000Y-96071000D01*
X161465000Y-96111000D02*
X158520000Y-96111000D01*
X156440000Y-96111000D02*
X153495000Y-96111000D01*
X161456000Y-96151000D02*
X158520000Y-96151000D01*
X156440000Y-96151000D02*
X153504000Y-96151000D01*
X161447000Y-96191000D02*
X158520000Y-96191000D01*
X156440000Y-96191000D02*
X153513000Y-96191000D01*
X161437000Y-96231000D02*
X158520000Y-96231000D01*
X156440000Y-96231000D02*
X153523000Y-96231000D01*
X161427000Y-96271000D02*
X158520000Y-96271000D01*
X156440000Y-96271000D02*
X153533000Y-96271000D01*
X161416000Y-96311000D02*
X158520000Y-96311000D01*
X156440000Y-96311000D02*
X153544000Y-96311000D01*
X161405000Y-96351000D02*
X158520000Y-96351000D01*
X156440000Y-96351000D02*
X153555000Y-96351000D01*
X161394000Y-96391000D02*
X158520000Y-96391000D01*
X156440000Y-96391000D02*
X153566000Y-96391000D01*
X161382000Y-96431000D02*
X158520000Y-96431000D01*
X156440000Y-96431000D02*
X153578000Y-96431000D01*
X161369000Y-96471000D02*
X158520000Y-96471000D01*
X156440000Y-96471000D02*
X153591000Y-96471000D01*
X161357000Y-96511000D02*
X158520000Y-96511000D01*
X156440000Y-96511000D02*
X153603000Y-96511000D01*
X161343000Y-96551000D02*
X158520000Y-96551000D01*
X156440000Y-96551000D02*
X153617000Y-96551000D01*
X161330000Y-96591000D02*
X158520000Y-96591000D01*
X156440000Y-96591000D02*
X153630000Y-96591000D01*
X161315000Y-96631000D02*
X158520000Y-96631000D01*
X156440000Y-96631000D02*
X153645000Y-96631000D01*
X161301000Y-96671000D02*
X158520000Y-96671000D01*
X156440000Y-96671000D02*
X153659000Y-96671000D01*
X161285000Y-96711000D02*
X158520000Y-96711000D01*
X156440000Y-96711000D02*
X153675000Y-96711000D01*
X161270000Y-96751000D02*
X158520000Y-96751000D01*
X156440000Y-96751000D02*
X153690000Y-96751000D01*
X161254000Y-96791000D02*
X158520000Y-96791000D01*
X156440000Y-96791000D02*
X153706000Y-96791000D01*
X161237000Y-96831000D02*
X158520000Y-96831000D01*
X156440000Y-96831000D02*
X153723000Y-96831000D01*
X161220000Y-96871000D02*
X158520000Y-96871000D01*
X156440000Y-96871000D02*
X153740000Y-96871000D01*
X161202000Y-96911000D02*
X158520000Y-96911000D01*
X156440000Y-96911000D02*
X153758000Y-96911000D01*
X161184000Y-96951000D02*
X158520000Y-96951000D01*
X156440000Y-96951000D02*
X153776000Y-96951000D01*
X161166000Y-96991000D02*
X158520000Y-96991000D01*
X156440000Y-96991000D02*
X153794000Y-96991000D01*
X161146000Y-97031000D02*
X158520000Y-97031000D01*
X156440000Y-97031000D02*
X153814000Y-97031000D01*
X161127000Y-97071000D02*
X158520000Y-97071000D01*
X156440000Y-97071000D02*
X153833000Y-97071000D01*
X161107000Y-97111000D02*
X158520000Y-97111000D01*
X156440000Y-97111000D02*
X153853000Y-97111000D01*
X161086000Y-97151000D02*
X158520000Y-97151000D01*
X156440000Y-97151000D02*
X153874000Y-97151000D01*
X161064000Y-97191000D02*
X158520000Y-97191000D01*
X156440000Y-97191000D02*
X153896000Y-97191000D01*
X161042000Y-97231000D02*
X158520000Y-97231000D01*
X156440000Y-97231000D02*
X153918000Y-97231000D01*
X161020000Y-97271000D02*
X158520000Y-97271000D01*
X156440000Y-97271000D02*
X153940000Y-97271000D01*
X160997000Y-97311000D02*
X158520000Y-97311000D01*
X156440000Y-97311000D02*
X153963000Y-97311000D01*
X160973000Y-97351000D02*
X158520000Y-97351000D01*
X156440000Y-97351000D02*
X153987000Y-97351000D01*
X160949000Y-97391000D02*
X158520000Y-97391000D01*
X156440000Y-97391000D02*
X154011000Y-97391000D01*
X160924000Y-97431000D02*
X158520000Y-97431000D01*
X156440000Y-97431000D02*
X154036000Y-97431000D01*
X160898000Y-97471000D02*
X158520000Y-97471000D01*
X156440000Y-97471000D02*
X154062000Y-97471000D01*
X160872000Y-97511000D02*
X158520000Y-97511000D01*
X156440000Y-97511000D02*
X154088000Y-97511000D01*
X160845000Y-97551000D02*
X154115000Y-97551000D01*
X160818000Y-97591000D02*
X154142000Y-97591000D01*
X160789000Y-97631000D02*
X154171000Y-97631000D01*
X160760000Y-97671000D02*
X154200000Y-97671000D01*
X160730000Y-97711000D02*
X154230000Y-97711000D01*
X160700000Y-97751000D02*
X154260000Y-97751000D01*
X160669000Y-97791000D02*
X154291000Y-97791000D01*
X160636000Y-97831000D02*
X154324000Y-97831000D01*
X160604000Y-97871000D02*
X154356000Y-97871000D01*
X160570000Y-97911000D02*
X154390000Y-97911000D01*
X160535000Y-97951000D02*
X154425000Y-97951000D01*
X160499000Y-97991000D02*
X154461000Y-97991000D01*
X160463000Y-98031000D02*
X154497000Y-98031000D01*
X160425000Y-98071000D02*
X154535000Y-98071000D01*
X160387000Y-98111000D02*
X154573000Y-98111000D01*
X160347000Y-98151000D02*
X154613000Y-98151000D01*
X160306000Y-98191000D02*
X154654000Y-98191000D01*
X160264000Y-98231000D02*
X154696000Y-98231000D01*
X160221000Y-98271000D02*
X154739000Y-98271000D01*
X160177000Y-98311000D02*
X154783000Y-98311000D01*
X160131000Y-98351000D02*
X154829000Y-98351000D01*
X160084000Y-98391000D02*
X154876000Y-98391000D01*
X160036000Y-98431000D02*
X154924000Y-98431000D01*
X159985000Y-98471000D02*
X154975000Y-98471000D01*
X159934000Y-98511000D02*
X155026000Y-98511000D01*
X159880000Y-98551000D02*
X155080000Y-98551000D01*
X159825000Y-98591000D02*
X155135000Y-98591000D01*
X159767000Y-98631000D02*
X155193000Y-98631000D01*
X159708000Y-98671000D02*
X155252000Y-98671000D01*
X159646000Y-98711000D02*
X155314000Y-98711000D01*
X159582000Y-98751000D02*
X155378000Y-98751000D01*
X159514000Y-98791000D02*
X155446000Y-98791000D01*
X159444000Y-98831000D02*
X155516000Y-98831000D01*
X159370000Y-98871000D02*
X155590000Y-98871000D01*
X159293000Y-98911000D02*
X155667000Y-98911000D01*
X159211000Y-98951000D02*
X155749000Y-98951000D01*
X159125000Y-98991000D02*
X155835000Y-98991000D01*
X159032000Y-99031000D02*
X155928000Y-99031000D01*
X158933000Y-99071000D02*
X156027000Y-99071000D01*
X158826000Y-99111000D02*
X156134000Y-99111000D01*
X158709000Y-99151000D02*
X156251000Y-99151000D01*
X158578000Y-99191000D02*
X156382000Y-99191000D01*
X158428000Y-99231000D02*
X156532000Y-99231000D01*
X158248000Y-99271000D02*
X156712000Y-99271000D01*
X158013000Y-99311000D02*
X156947000Y-99311000D01*
X159795000Y-90820302D02*
X159795000Y-91620302D01*
X160195000Y-91220302D02*
X159395000Y-91220302D01*
X175790000Y-68254000D02*
X172190000Y-68254000D01*
X175828478Y-68265522D02*
G75*
G02X173990000Y-72704000I-1838478J-1838478D01*
G01*
X172151522Y-68265522D02*
G75*
G03X173990000Y-72704000I1838478J-1838478D01*
G01*
X167926000Y-75846000D02*
X167926000Y-78586000D01*
X167926000Y-78586000D02*
X174466000Y-78586000D01*
X174466000Y-78586000D02*
X174466000Y-75846000D01*
X174466000Y-75846000D02*
X167926000Y-75846000D01*
X167156000Y-77216000D02*
X167926000Y-77216000D01*
X175236000Y-77216000D02*
X174466000Y-77216000D01*
X171390000Y-50800000D02*
X171390000Y-49470000D01*
X171390000Y-100390000D02*
X174050000Y-100390000D01*
X174050000Y-52070000D02*
X174050000Y-100390000D01*
X171390000Y-52070000D02*
X171390000Y-100390000D01*
X171390000Y-52070000D02*
X174050000Y-52070000D01*
X171390000Y-49470000D02*
X172720000Y-49470000D01*
X181800000Y-133420000D02*
X180500000Y-133420000D01*
X181800000Y-132120000D02*
X181800000Y-133420000D01*
X181600000Y-133220000D02*
X176400000Y-133220000D01*
X181600000Y-105020000D02*
X181600000Y-133220000D01*
X176400000Y-105020000D02*
X181600000Y-105020000D01*
X176400000Y-133220000D02*
X176400000Y-105020000D01*
X182750000Y-133220000D02*
X182750000Y-105020000D01*
X182750000Y-105020000D02*
X187950000Y-105020000D01*
X187950000Y-105020000D02*
X187950000Y-133220000D01*
X187950000Y-133220000D02*
X182750000Y-133220000D01*
X188150000Y-132120000D02*
X188150000Y-133420000D01*
X188150000Y-133420000D02*
X186850000Y-133420000D01*
X199580000Y-133420000D02*
X198280000Y-133420000D01*
X199580000Y-132120000D02*
X199580000Y-133420000D01*
X199380000Y-133220000D02*
X194180000Y-133220000D01*
X199380000Y-105020000D02*
X199380000Y-133220000D01*
X194180000Y-105020000D02*
X199380000Y-105020000D01*
X194180000Y-133220000D02*
X194180000Y-105020000D01*
X131790902Y-98094916D02*
X132681856Y-97203961D01*
X132681856Y-97203961D02*
X131904039Y-96426144D01*
X131904039Y-96426144D02*
X131013084Y-97317098D01*
X131013371Y-97317326D02*
G75*
G03X131790902Y-98094916I-2997371J-3774674D01*
G01*
X147166000Y-111792000D02*
X144426000Y-111792000D01*
X144426000Y-111792000D02*
X144426000Y-118332000D01*
X144426000Y-118332000D02*
X147166000Y-118332000D01*
X147166000Y-118332000D02*
X147166000Y-111792000D01*
X145796000Y-111022000D02*
X145796000Y-111792000D01*
X145796000Y-119102000D02*
X145796000Y-118332000D01*
X158496000Y-114832000D02*
X158496000Y-115602000D01*
X158496000Y-122912000D02*
X158496000Y-122142000D01*
X157126000Y-115602000D02*
X157126000Y-122142000D01*
X159866000Y-115602000D02*
X157126000Y-115602000D01*
X159866000Y-122142000D02*
X159866000Y-115602000D01*
X157126000Y-122142000D02*
X159866000Y-122142000D01*
X124306000Y-115602000D02*
X121566000Y-115602000D01*
X121566000Y-115602000D02*
X121566000Y-122142000D01*
X121566000Y-122142000D02*
X124306000Y-122142000D01*
X124306000Y-122142000D02*
X124306000Y-115602000D01*
X122936000Y-114832000D02*
X122936000Y-115602000D01*
X122936000Y-122912000D02*
X122936000Y-122142000D01*
X138750000Y-37150000D02*
X138750000Y-39050000D01*
X138750000Y-39050000D02*
X140600000Y-39050000D01*
X140600000Y-39050000D02*
X140600000Y-37200000D01*
X140600000Y-37200000D02*
X140600000Y-37150000D01*
X140600000Y-37150000D02*
X138750000Y-37150000D01*
X143285001Y-37150000D02*
X141435001Y-37150000D01*
X143285001Y-37200000D02*
X143285001Y-37150000D01*
X143285001Y-39050000D02*
X143285001Y-37200000D01*
X141435001Y-39050000D02*
X143285001Y-39050000D01*
X141435001Y-37150000D02*
X141435001Y-39050000D01*
X153616000Y-113122000D02*
X150676000Y-113122000D01*
X153616000Y-113362000D02*
X150676000Y-113362000D01*
X153616000Y-113242000D02*
X150676000Y-113242000D01*
X152146000Y-118802000D02*
X152146000Y-117782000D01*
X152146000Y-111322000D02*
X152146000Y-112342000D01*
X153616000Y-117782000D02*
X153616000Y-112342000D01*
X150676000Y-117782000D02*
X153616000Y-117782000D01*
X150676000Y-112342000D02*
X150676000Y-117782000D01*
X153616000Y-112342000D02*
X150676000Y-112342000D01*
X191970000Y-124280000D02*
X189030000Y-124280000D01*
X189030000Y-124280000D02*
X189030000Y-129720000D01*
X189030000Y-129720000D02*
X191970000Y-129720000D01*
X191970000Y-129720000D02*
X191970000Y-124280000D01*
X190500000Y-123260000D02*
X190500000Y-124280000D01*
X190500000Y-130740000D02*
X190500000Y-129720000D01*
X191970000Y-125180000D02*
X189030000Y-125180000D01*
X191970000Y-125300000D02*
X189030000Y-125300000D01*
X191970000Y-125060000D02*
X189030000Y-125060000D01*
X204794179Y-38266841D02*
G75*
G02X204810000Y-34280000I1665821J1986841D01*
G01*
X204794179Y-43266841D02*
G75*
G02X204810000Y-39280000I1665821J1986841D01*
G01*
X204794179Y-48266841D02*
G75*
G02X204810000Y-44280000I1665821J1986841D01*
G01*
X204794179Y-53266841D02*
G75*
G02X204810000Y-49280000I1665821J1986841D01*
G01*
X204794179Y-58266841D02*
G75*
G02X204810000Y-54280000I1665821J1986841D01*
G01*
X204794179Y-63266841D02*
G75*
G02X204810000Y-59280000I1665821J1986841D01*
G01*
X204794179Y-68266841D02*
G75*
G02X204810000Y-64280000I1665821J1986841D01*
G01*
X204794179Y-73266841D02*
G75*
G02X204810000Y-69280000I1665821J1986841D01*
G01*
X204794179Y-78266841D02*
G75*
G02X204810000Y-74280000I1665821J1986841D01*
G01*
X204794179Y-83266841D02*
G75*
G02X204810000Y-79280000I1665821J1986841D01*
G01*
X204794179Y-88266841D02*
G75*
G02X204810000Y-84280000I1665821J1986841D01*
G01*
X204794179Y-93266841D02*
G75*
G02X204810000Y-89280000I1665821J1986841D01*
G01*
X204794179Y-98266841D02*
G75*
G02X204810000Y-94280000I1665821J1986841D01*
G01*
X204794179Y-103266841D02*
G75*
G02X204810000Y-99280000I1665821J1986841D01*
G01*
X211920000Y-32670000D02*
X203100000Y-32670000D01*
X203100000Y-32670000D02*
X203100000Y-104890000D01*
X203100000Y-104890000D02*
X211920000Y-104890000D01*
X211920000Y-104890000D02*
X211920000Y-32670000D01*
X211110000Y-32670000D02*
X211110000Y-35170000D01*
X211110000Y-104890000D02*
X211110000Y-102390000D01*
X211110000Y-37280000D02*
X211110000Y-40280000D01*
X211110000Y-42280000D02*
X211110000Y-45280000D01*
X211110000Y-47280000D02*
X211110000Y-50280000D01*
X211110000Y-52280000D02*
X211110000Y-55280000D01*
X211110000Y-57280000D02*
X211110000Y-60280000D01*
X211110000Y-62280000D02*
X211110000Y-65280000D01*
X211110000Y-67280000D02*
X211110000Y-70280000D01*
X211110000Y-72280000D02*
X211110000Y-75280000D01*
X211110000Y-77280000D02*
X211110000Y-80280000D01*
X211110000Y-82280000D02*
X211110000Y-85280000D01*
X211110000Y-87280000D02*
X211110000Y-90280000D01*
X211110000Y-92280000D02*
X211110000Y-95280000D01*
X211110000Y-97280000D02*
X211110000Y-100280000D01*
X210110000Y-35280000D02*
X211920000Y-35280000D01*
X211920000Y-35280000D02*
X211920000Y-37280000D01*
X211920000Y-37280000D02*
X210110000Y-37280000D01*
X210110000Y-37280000D02*
X210110000Y-35280000D01*
X210110000Y-40280000D02*
X211920000Y-40280000D01*
X211920000Y-40280000D02*
X211920000Y-42280000D01*
X211920000Y-42280000D02*
X210110000Y-42280000D01*
X210110000Y-42280000D02*
X210110000Y-40280000D01*
X210110000Y-45280000D02*
X211920000Y-45280000D01*
X211920000Y-45280000D02*
X211920000Y-47280000D01*
X211920000Y-47280000D02*
X210110000Y-47280000D01*
X210110000Y-47280000D02*
X210110000Y-45280000D01*
X210110000Y-50280000D02*
X211920000Y-50280000D01*
X211920000Y-50280000D02*
X211920000Y-52280000D01*
X211920000Y-52280000D02*
X210110000Y-52280000D01*
X210110000Y-52280000D02*
X210110000Y-50280000D01*
X210110000Y-55280000D02*
X211920000Y-55280000D01*
X211920000Y-55280000D02*
X211920000Y-57280000D01*
X211920000Y-57280000D02*
X210110000Y-57280000D01*
X210110000Y-57280000D02*
X210110000Y-55280000D01*
X210110000Y-60280000D02*
X211920000Y-60280000D01*
X211920000Y-60280000D02*
X211920000Y-62280000D01*
X211920000Y-62280000D02*
X210110000Y-62280000D01*
X210110000Y-62280000D02*
X210110000Y-60280000D01*
X210110000Y-65280000D02*
X211920000Y-65280000D01*
X211920000Y-65280000D02*
X211920000Y-67280000D01*
X211920000Y-67280000D02*
X210110000Y-67280000D01*
X210110000Y-67280000D02*
X210110000Y-65280000D01*
X210110000Y-70280000D02*
X211920000Y-70280000D01*
X211920000Y-70280000D02*
X211920000Y-72280000D01*
X211920000Y-72280000D02*
X210110000Y-72280000D01*
X210110000Y-72280000D02*
X210110000Y-70280000D01*
X210110000Y-75280000D02*
X211920000Y-75280000D01*
X211920000Y-75280000D02*
X211920000Y-77280000D01*
X211920000Y-77280000D02*
X210110000Y-77280000D01*
X210110000Y-77280000D02*
X210110000Y-75280000D01*
X210110000Y-80280000D02*
X211920000Y-80280000D01*
X211920000Y-80280000D02*
X211920000Y-82280000D01*
X211920000Y-82280000D02*
X210110000Y-82280000D01*
X210110000Y-82280000D02*
X210110000Y-80280000D01*
X210110000Y-85280000D02*
X211920000Y-85280000D01*
X211920000Y-85280000D02*
X211920000Y-87280000D01*
X211920000Y-87280000D02*
X210110000Y-87280000D01*
X210110000Y-87280000D02*
X210110000Y-85280000D01*
X210110000Y-90280000D02*
X211920000Y-90280000D01*
X211920000Y-90280000D02*
X211920000Y-92280000D01*
X211920000Y-92280000D02*
X210110000Y-92280000D01*
X210110000Y-92280000D02*
X210110000Y-90280000D01*
X210110000Y-95280000D02*
X211920000Y-95280000D01*
X211920000Y-95280000D02*
X211920000Y-97280000D01*
X211920000Y-97280000D02*
X210110000Y-97280000D01*
X210110000Y-97280000D02*
X210110000Y-95280000D01*
X210110000Y-100280000D02*
X211920000Y-100280000D01*
X211920000Y-100280000D02*
X211920000Y-102280000D01*
X211920000Y-102280000D02*
X210110000Y-102280000D01*
X210110000Y-102280000D02*
X210110000Y-100280000D01*
X204810000Y-38280000D02*
X204810000Y-39280000D01*
X204810000Y-43280000D02*
X204810000Y-44280000D01*
X204810000Y-48280000D02*
X204810000Y-49280000D01*
X204810000Y-53280000D02*
X204810000Y-54280000D01*
X204810000Y-58280000D02*
X204810000Y-59280000D01*
X204810000Y-63280000D02*
X204810000Y-64280000D01*
X204810000Y-68280000D02*
X204810000Y-69280000D01*
X204810000Y-73280000D02*
X204810000Y-74280000D01*
X204810000Y-78280000D02*
X204810000Y-79280000D01*
X204810000Y-83280000D02*
X204810000Y-84280000D01*
X204810000Y-88280000D02*
X204810000Y-89280000D01*
X204810000Y-93280000D02*
X204810000Y-94280000D01*
X204810000Y-98280000D02*
X204810000Y-99280000D01*
X204810000Y-34280000D02*
X204810000Y-33580000D01*
X204810000Y-33580000D02*
X210110000Y-33580000D01*
X210110000Y-33580000D02*
X210110000Y-103980000D01*
X210110000Y-103980000D02*
X204810000Y-103980000D01*
X204810000Y-103980000D02*
X204810000Y-103280000D01*
X212720000Y-36580000D02*
X212120000Y-36280000D01*
X212120000Y-36280000D02*
X212720000Y-35980000D01*
X212720000Y-35980000D02*
X212720000Y-36580000D01*
X205930000Y-133420000D02*
X204630000Y-133420000D01*
X205930000Y-132120000D02*
X205930000Y-133420000D01*
X205730000Y-133220000D02*
X200530000Y-133220000D01*
X205730000Y-105020000D02*
X205730000Y-133220000D01*
X200530000Y-105020000D02*
X205730000Y-105020000D01*
X200530000Y-133220000D02*
X200530000Y-105020000D01*
X167926000Y-80418000D02*
X167926000Y-83158000D01*
X167926000Y-83158000D02*
X174466000Y-83158000D01*
X174466000Y-83158000D02*
X174466000Y-80418000D01*
X174466000Y-80418000D02*
X167926000Y-80418000D01*
X167156000Y-81788000D02*
X167926000Y-81788000D01*
X175236000Y-81788000D02*
X174466000Y-81788000D01*
X206822000Y-118430000D02*
X206822000Y-120330000D01*
X206822000Y-120330000D02*
X208672000Y-120330000D01*
X208672000Y-120330000D02*
X208672000Y-118480000D01*
X208672000Y-118480000D02*
X208672000Y-118430000D01*
X208672000Y-118430000D02*
X206822000Y-118430000D01*
X208418000Y-115382000D02*
X206568000Y-115382000D01*
X208418000Y-115432000D02*
X208418000Y-115382000D01*
X208418000Y-117282000D02*
X208418000Y-115432000D01*
X206568000Y-117282000D02*
X208418000Y-117282000D01*
X206568000Y-115382000D02*
X206568000Y-117282000D01*
X206568000Y-108524000D02*
X206568000Y-110424000D01*
X206568000Y-110424000D02*
X208418000Y-110424000D01*
X208418000Y-110424000D02*
X208418000Y-108574000D01*
X208418000Y-108574000D02*
X208418000Y-108524000D01*
X208418000Y-108524000D02*
X206568000Y-108524000D01*
X208418000Y-110810000D02*
X206568000Y-110810000D01*
X208418000Y-110860000D02*
X208418000Y-110810000D01*
X208418000Y-112710000D02*
X208418000Y-110860000D01*
X206568000Y-112710000D02*
X208418000Y-112710000D01*
X206568000Y-110810000D02*
X206568000Y-112710000D01*
D11*
X188515714Y-53006666D02*
X188991904Y-53006666D01*
X188420476Y-53292380D02*
X188753809Y-52292380D01*
X189087142Y-53292380D01*
X189944285Y-53292380D02*
X189372857Y-53292380D01*
X189658571Y-53292380D02*
X189658571Y-52292380D01*
X189563333Y-52435238D01*
X189468095Y-52530476D01*
X189372857Y-52578095D01*
X186626666Y-76652380D02*
X186293333Y-76176190D01*
X186055238Y-76652380D02*
X186055238Y-75652380D01*
X186436190Y-75652380D01*
X186531428Y-75700000D01*
X186579047Y-75747619D01*
X186626666Y-75842857D01*
X186626666Y-75985714D01*
X186579047Y-76080952D01*
X186531428Y-76128571D01*
X186436190Y-76176190D01*
X186055238Y-76176190D01*
X187055238Y-76128571D02*
X187388571Y-76128571D01*
X187531428Y-76652380D02*
X187055238Y-76652380D01*
X187055238Y-75652380D01*
X187531428Y-75652380D01*
X188293333Y-76128571D02*
X187960000Y-76128571D01*
X187960000Y-76652380D02*
X187960000Y-75652380D01*
X188436190Y-75652380D01*
X188960000Y-75652380D02*
X188960000Y-75890476D01*
X188721904Y-75795238D02*
X188960000Y-75890476D01*
X189198095Y-75795238D01*
X188817142Y-76080952D02*
X188960000Y-75890476D01*
X189102857Y-76080952D01*
X189721904Y-75652380D02*
X189721904Y-75890476D01*
X189483809Y-75795238D02*
X189721904Y-75890476D01*
X189960000Y-75795238D01*
X189579047Y-76080952D02*
X189721904Y-75890476D01*
X189864761Y-76080952D01*
X190968380Y-86105904D02*
X191777904Y-86105904D01*
X191873142Y-86058285D01*
X191920761Y-86010666D01*
X191968380Y-85915428D01*
X191968380Y-85724952D01*
X191920761Y-85629714D01*
X191873142Y-85582095D01*
X191777904Y-85534476D01*
X190968380Y-85534476D01*
X191968380Y-84534476D02*
X191968380Y-85105904D01*
X191968380Y-84820190D02*
X190968380Y-84820190D01*
X191111238Y-84915428D01*
X191206476Y-85010666D01*
X191254095Y-85105904D01*
X101961666Y-93162380D02*
X101961666Y-93876666D01*
X101914047Y-94019523D01*
X101818809Y-94114761D01*
X101675952Y-94162380D01*
X101580714Y-94162380D01*
X102342619Y-93162380D02*
X102961666Y-93162380D01*
X102628333Y-93543333D01*
X102771190Y-93543333D01*
X102866428Y-93590952D01*
X102914047Y-93638571D01*
X102961666Y-93733809D01*
X102961666Y-93971904D01*
X102914047Y-94067142D01*
X102866428Y-94114761D01*
X102771190Y-94162380D01*
X102485476Y-94162380D01*
X102390238Y-94114761D01*
X102342619Y-94067142D01*
X153773142Y-90590666D02*
X153820761Y-90638285D01*
X153868380Y-90781142D01*
X153868380Y-90876380D01*
X153820761Y-91019238D01*
X153725523Y-91114476D01*
X153630285Y-91162095D01*
X153439809Y-91209714D01*
X153296952Y-91209714D01*
X153106476Y-91162095D01*
X153011238Y-91114476D01*
X152916000Y-91019238D01*
X152868380Y-90876380D01*
X152868380Y-90781142D01*
X152916000Y-90638285D01*
X152963619Y-90590666D01*
X153868380Y-89638285D02*
X153868380Y-90209714D01*
X153868380Y-89924000D02*
X152868380Y-89924000D01*
X153011238Y-90019238D01*
X153106476Y-90114476D01*
X153154095Y-90209714D01*
X176180761Y-73699619D02*
X176085523Y-73652000D01*
X175990285Y-73556761D01*
X175847428Y-73413904D01*
X175752190Y-73366285D01*
X175656952Y-73366285D01*
X175704571Y-73604380D02*
X175609333Y-73556761D01*
X175514095Y-73461523D01*
X175466476Y-73271047D01*
X175466476Y-72937714D01*
X175514095Y-72747238D01*
X175609333Y-72652000D01*
X175704571Y-72604380D01*
X175895047Y-72604380D01*
X175990285Y-72652000D01*
X176085523Y-72747238D01*
X176133142Y-72937714D01*
X176133142Y-73271047D01*
X176085523Y-73461523D01*
X175990285Y-73556761D01*
X175895047Y-73604380D01*
X175704571Y-73604380D01*
X177085523Y-73604380D02*
X176514095Y-73604380D01*
X176799809Y-73604380D02*
X176799809Y-72604380D01*
X176704571Y-72747238D01*
X176609333Y-72842476D01*
X176514095Y-72890095D01*
X172553333Y-77668380D02*
X172220000Y-77192190D01*
X171981904Y-77668380D02*
X171981904Y-76668380D01*
X172362857Y-76668380D01*
X172458095Y-76716000D01*
X172505714Y-76763619D01*
X172553333Y-76858857D01*
X172553333Y-77001714D01*
X172505714Y-77096952D01*
X172458095Y-77144571D01*
X172362857Y-77192190D01*
X171981904Y-77192190D01*
X173505714Y-77668380D02*
X172934285Y-77668380D01*
X173220000Y-77668380D02*
X173220000Y-76668380D01*
X173124761Y-76811238D01*
X173029523Y-76906476D01*
X172934285Y-76954095D01*
X171878666Y-47204380D02*
X171878666Y-47918666D01*
X171831047Y-48061523D01*
X171735809Y-48156761D01*
X171592952Y-48204380D01*
X171497714Y-48204380D01*
X172307238Y-47299619D02*
X172354857Y-47252000D01*
X172450095Y-47204380D01*
X172688190Y-47204380D01*
X172783428Y-47252000D01*
X172831047Y-47299619D01*
X172878666Y-47394857D01*
X172878666Y-47490095D01*
X172831047Y-47632952D01*
X172259619Y-48204380D01*
X172878666Y-48204380D01*
X180792380Y-130786095D02*
X179792380Y-130786095D01*
X180792380Y-130214666D02*
X180220952Y-130643238D01*
X179792380Y-130214666D02*
X180363809Y-130786095D01*
X180792380Y-129262285D02*
X180792380Y-129833714D01*
X180792380Y-129548000D02*
X179792380Y-129548000D01*
X179935238Y-129643238D01*
X180030476Y-129738476D01*
X180078095Y-129833714D01*
X187396380Y-130786095D02*
X186396380Y-130786095D01*
X187396380Y-130214666D02*
X186824952Y-130643238D01*
X186396380Y-130214666D02*
X186967809Y-130786095D01*
X186491619Y-129833714D02*
X186444000Y-129786095D01*
X186396380Y-129690857D01*
X186396380Y-129452761D01*
X186444000Y-129357523D01*
X186491619Y-129309904D01*
X186586857Y-129262285D01*
X186682095Y-129262285D01*
X186824952Y-129309904D01*
X187396380Y-129881333D01*
X187396380Y-129262285D01*
X198572380Y-131294095D02*
X197572380Y-131294095D01*
X198572380Y-130722666D02*
X198000952Y-131151238D01*
X197572380Y-130722666D02*
X198143809Y-131294095D01*
X197572380Y-130389333D02*
X197572380Y-129770285D01*
X197953333Y-130103619D01*
X197953333Y-129960761D01*
X198000952Y-129865523D01*
X198048571Y-129817904D01*
X198143809Y-129770285D01*
X198381904Y-129770285D01*
X198477142Y-129817904D01*
X198524761Y-129865523D01*
X198572380Y-129960761D01*
X198572380Y-130246476D01*
X198524761Y-130341714D01*
X198477142Y-130389333D01*
X133135619Y-105251238D02*
X133088000Y-105346476D01*
X132992761Y-105441714D01*
X132849904Y-105584571D01*
X132802285Y-105679809D01*
X132802285Y-105775047D01*
X133040380Y-105727428D02*
X132992761Y-105822666D01*
X132897523Y-105917904D01*
X132707047Y-105965523D01*
X132373714Y-105965523D01*
X132183238Y-105917904D01*
X132088000Y-105822666D01*
X132040380Y-105727428D01*
X132040380Y-105536952D01*
X132088000Y-105441714D01*
X132183238Y-105346476D01*
X132373714Y-105298857D01*
X132707047Y-105298857D01*
X132897523Y-105346476D01*
X132992761Y-105441714D01*
X133040380Y-105536952D01*
X133040380Y-105727428D01*
X132135619Y-104917904D02*
X132088000Y-104870285D01*
X132040380Y-104775047D01*
X132040380Y-104536952D01*
X132088000Y-104441714D01*
X132135619Y-104394095D01*
X132230857Y-104346476D01*
X132326095Y-104346476D01*
X132468952Y-104394095D01*
X133040380Y-104965523D01*
X133040380Y-104346476D01*
X146248380Y-115482666D02*
X145772190Y-115816000D01*
X146248380Y-116054095D02*
X145248380Y-116054095D01*
X145248380Y-115673142D01*
X145296000Y-115577904D01*
X145343619Y-115530285D01*
X145438857Y-115482666D01*
X145581714Y-115482666D01*
X145676952Y-115530285D01*
X145724571Y-115577904D01*
X145772190Y-115673142D01*
X145772190Y-116054095D01*
X145248380Y-115149333D02*
X145248380Y-114530285D01*
X145629333Y-114863619D01*
X145629333Y-114720761D01*
X145676952Y-114625523D01*
X145724571Y-114577904D01*
X145819809Y-114530285D01*
X146057904Y-114530285D01*
X146153142Y-114577904D01*
X146200761Y-114625523D01*
X146248380Y-114720761D01*
X146248380Y-115006476D01*
X146200761Y-115101714D01*
X146153142Y-115149333D01*
X158948380Y-119038666D02*
X158472190Y-119372000D01*
X158948380Y-119610095D02*
X157948380Y-119610095D01*
X157948380Y-119229142D01*
X157996000Y-119133904D01*
X158043619Y-119086285D01*
X158138857Y-119038666D01*
X158281714Y-119038666D01*
X158376952Y-119086285D01*
X158424571Y-119133904D01*
X158472190Y-119229142D01*
X158472190Y-119610095D01*
X158281714Y-118181523D02*
X158948380Y-118181523D01*
X157900761Y-118419619D02*
X158615047Y-118657714D01*
X158615047Y-118038666D01*
X123388380Y-119038666D02*
X122912190Y-119372000D01*
X123388380Y-119610095D02*
X122388380Y-119610095D01*
X122388380Y-119229142D01*
X122436000Y-119133904D01*
X122483619Y-119086285D01*
X122578857Y-119038666D01*
X122721714Y-119038666D01*
X122816952Y-119086285D01*
X122864571Y-119133904D01*
X122912190Y-119229142D01*
X122912190Y-119610095D01*
X122388380Y-118133904D02*
X122388380Y-118610095D01*
X122864571Y-118657714D01*
X122816952Y-118610095D01*
X122769333Y-118514857D01*
X122769333Y-118276761D01*
X122816952Y-118181523D01*
X122864571Y-118133904D01*
X122959809Y-118086285D01*
X123197904Y-118086285D01*
X123293142Y-118133904D01*
X123340761Y-118181523D01*
X123388380Y-118276761D01*
X123388380Y-118514857D01*
X123340761Y-118610095D01*
X123293142Y-118657714D01*
X136826666Y-37552380D02*
X136826666Y-38266666D01*
X136779047Y-38409523D01*
X136683809Y-38504761D01*
X136540952Y-38552380D01*
X136445714Y-38552380D01*
X137731428Y-37885714D02*
X137731428Y-38552380D01*
X137493333Y-37504761D02*
X137255238Y-38219047D01*
X137874285Y-38219047D01*
X144446666Y-37552380D02*
X144446666Y-38266666D01*
X144399047Y-38409523D01*
X144303809Y-38504761D01*
X144160952Y-38552380D01*
X144065714Y-38552380D01*
X145399047Y-37552380D02*
X144922857Y-37552380D01*
X144875238Y-38028571D01*
X144922857Y-37980952D01*
X145018095Y-37933333D01*
X145256190Y-37933333D01*
X145351428Y-37980952D01*
X145399047Y-38028571D01*
X145446666Y-38123809D01*
X145446666Y-38361904D01*
X145399047Y-38457142D01*
X145351428Y-38504761D01*
X145256190Y-38552380D01*
X145018095Y-38552380D01*
X144922857Y-38504761D01*
X144875238Y-38457142D01*
X152344380Y-117578095D02*
X151344380Y-117578095D01*
X151344380Y-117340000D01*
X151392000Y-117197142D01*
X151487238Y-117101904D01*
X151582476Y-117054285D01*
X151772952Y-117006666D01*
X151915809Y-117006666D01*
X152106285Y-117054285D01*
X152201523Y-117101904D01*
X152296761Y-117197142D01*
X152344380Y-117340000D01*
X152344380Y-117578095D01*
X152344380Y-116054285D02*
X152344380Y-116625714D01*
X152344380Y-116340000D02*
X151344380Y-116340000D01*
X151487238Y-116435238D01*
X151582476Y-116530476D01*
X151630095Y-116625714D01*
X154698380Y-110243904D02*
X153698380Y-110243904D01*
X154698380Y-109672476D02*
X154126952Y-110101047D01*
X153698380Y-109672476D02*
X154269809Y-110243904D01*
X190952380Y-128246095D02*
X189952380Y-128246095D01*
X189952380Y-128008000D01*
X190000000Y-127865142D01*
X190095238Y-127769904D01*
X190190476Y-127722285D01*
X190380952Y-127674666D01*
X190523809Y-127674666D01*
X190714285Y-127722285D01*
X190809523Y-127769904D01*
X190904761Y-127865142D01*
X190952380Y-128008000D01*
X190952380Y-128246095D01*
X190047619Y-127293714D02*
X190000000Y-127246095D01*
X189952380Y-127150857D01*
X189952380Y-126912761D01*
X190000000Y-126817523D01*
X190047619Y-126769904D01*
X190142857Y-126722285D01*
X190238095Y-126722285D01*
X190380952Y-126769904D01*
X190952380Y-127341333D01*
X190952380Y-126722285D01*
X193052380Y-122181904D02*
X192052380Y-122181904D01*
X193052380Y-121610476D02*
X192480952Y-122039047D01*
X192052380Y-121610476D02*
X192623809Y-122181904D01*
X212462380Y-69113333D02*
X213176666Y-69113333D01*
X213319523Y-69160952D01*
X213414761Y-69256190D01*
X213462380Y-69399047D01*
X213462380Y-69494285D01*
X213462380Y-68113333D02*
X213462380Y-68684761D01*
X213462380Y-68399047D02*
X212462380Y-68399047D01*
X212605238Y-68494285D01*
X212700476Y-68589523D01*
X212748095Y-68684761D01*
X205176380Y-132310095D02*
X204176380Y-132310095D01*
X205176380Y-131738666D02*
X204604952Y-132167238D01*
X204176380Y-131738666D02*
X204747809Y-132310095D01*
X204509714Y-130881523D02*
X205176380Y-130881523D01*
X204128761Y-131119619D02*
X204843047Y-131357714D01*
X204843047Y-130738666D01*
X172553333Y-82240380D02*
X172220000Y-81764190D01*
X171981904Y-82240380D02*
X171981904Y-81240380D01*
X172362857Y-81240380D01*
X172458095Y-81288000D01*
X172505714Y-81335619D01*
X172553333Y-81430857D01*
X172553333Y-81573714D01*
X172505714Y-81668952D01*
X172458095Y-81716571D01*
X172362857Y-81764190D01*
X171981904Y-81764190D01*
X172934285Y-81335619D02*
X172981904Y-81288000D01*
X173077142Y-81240380D01*
X173315238Y-81240380D01*
X173410476Y-81288000D01*
X173458095Y-81335619D01*
X173505714Y-81430857D01*
X173505714Y-81526095D01*
X173458095Y-81668952D01*
X172886666Y-82240380D01*
X173505714Y-82240380D01*
X207438666Y-120632380D02*
X207438666Y-121346666D01*
X207391047Y-121489523D01*
X207295809Y-121584761D01*
X207152952Y-121632380D01*
X207057714Y-121632380D01*
X208343428Y-120632380D02*
X208152952Y-120632380D01*
X208057714Y-120680000D01*
X208010095Y-120727619D01*
X207914857Y-120870476D01*
X207867238Y-121060952D01*
X207867238Y-121441904D01*
X207914857Y-121537142D01*
X207962476Y-121584761D01*
X208057714Y-121632380D01*
X208248190Y-121632380D01*
X208343428Y-121584761D01*
X208391047Y-121537142D01*
X208438666Y-121441904D01*
X208438666Y-121203809D01*
X208391047Y-121108571D01*
X208343428Y-121060952D01*
X208248190Y-121013333D01*
X208057714Y-121013333D01*
X207962476Y-121060952D01*
X207914857Y-121108571D01*
X207867238Y-121203809D01*
X207184666Y-117584380D02*
X207184666Y-118298666D01*
X207137047Y-118441523D01*
X207041809Y-118536761D01*
X206898952Y-118584380D01*
X206803714Y-118584380D01*
X207565619Y-117584380D02*
X208232285Y-117584380D01*
X207803714Y-118584380D01*
X207184666Y-110726380D02*
X207184666Y-111440666D01*
X207137047Y-111583523D01*
X207041809Y-111678761D01*
X206898952Y-111726380D01*
X206803714Y-111726380D01*
X207803714Y-111154952D02*
X207708476Y-111107333D01*
X207660857Y-111059714D01*
X207613238Y-110964476D01*
X207613238Y-110916857D01*
X207660857Y-110821619D01*
X207708476Y-110774000D01*
X207803714Y-110726380D01*
X207994190Y-110726380D01*
X208089428Y-110774000D01*
X208137047Y-110821619D01*
X208184666Y-110916857D01*
X208184666Y-110964476D01*
X208137047Y-111059714D01*
X208089428Y-111107333D01*
X207994190Y-111154952D01*
X207803714Y-111154952D01*
X207708476Y-111202571D01*
X207660857Y-111250190D01*
X207613238Y-111345428D01*
X207613238Y-111535904D01*
X207660857Y-111631142D01*
X207708476Y-111678761D01*
X207803714Y-111726380D01*
X207994190Y-111726380D01*
X208089428Y-111678761D01*
X208137047Y-111631142D01*
X208184666Y-111535904D01*
X208184666Y-111345428D01*
X208137047Y-111250190D01*
X208089428Y-111202571D01*
X207994190Y-111154952D01*
X207184666Y-113012380D02*
X207184666Y-113726666D01*
X207137047Y-113869523D01*
X207041809Y-113964761D01*
X206898952Y-114012380D01*
X206803714Y-114012380D01*
X207708476Y-114012380D02*
X207898952Y-114012380D01*
X207994190Y-113964761D01*
X208041809Y-113917142D01*
X208137047Y-113774285D01*
X208184666Y-113583809D01*
X208184666Y-113202857D01*
X208137047Y-113107619D01*
X208089428Y-113060000D01*
X207994190Y-113012380D01*
X207803714Y-113012380D01*
X207708476Y-113060000D01*
X207660857Y-113107619D01*
X207613238Y-113202857D01*
X207613238Y-113440952D01*
X207660857Y-113536190D01*
X207708476Y-113583809D01*
X207803714Y-113631428D01*
X207994190Y-113631428D01*
X208089428Y-113583809D01*
X208137047Y-113536190D01*
X208184666Y-113440952D01*
M02*
