G04 #@! TF.GenerationSoftware,KiCad,Pcbnew,(5.1.0-9-gc61ec8ee3)*
G04 #@! TF.CreationDate,2019-06-18T12:37:55+02:00*
G04 #@! TF.ProjectId,LCD_Back_Neo_Key_RxTx_emergency_stop,4c43445f-4261-4636-9b5f-4e656f5f4b65,rev?*
G04 #@! TF.SameCoordinates,Original*
G04 #@! TF.FileFunction,Copper,L1,Top*
G04 #@! TF.FilePolarity,Positive*
%FSLAX46Y46*%
G04 Gerber Fmt 4.6, Leading zero omitted, Abs format (unit mm)*
G04 Created by KiCad (PCBNEW (5.1.0-9-gc61ec8ee3)) date 2019-06-18 12:37:55*
%MOMM*%
%LPD*%
G04 APERTURE LIST*
%ADD10C,4.000000*%
%ADD11O,1.600000X1.600000*%
%ADD12R,1.600000X1.600000*%
%ADD13C,2.500000*%
%ADD14R,2.500000X2.500000*%
%ADD15R,1.700000X1.700000*%
%ADD16O,1.700000X1.700000*%
%ADD17C,1.600000*%
%ADD18O,1.050000X1.500000*%
%ADD19R,1.050000X1.500000*%
%ADD20C,2.400000*%
%ADD21R,2.000000X2.000000*%
%ADD22C,2.000000*%
%ADD23O,1.200000X1.600000*%
%ADD24O,1.200000X1.200000*%
%ADD25C,1.400000*%
%ADD26O,2.200000X2.200000*%
%ADD27R,2.200000X2.200000*%
%ADD28C,0.150000*%
%ADD29O,3.600000X2.000000*%
%ADD30C,0.250000*%
%ADD31C,1.500000*%
%ADD32C,0.750000*%
%ADD33C,1.000000*%
%ADD34C,0.500000*%
G04 APERTURE END LIST*
D10*
X173758860Y-126540260D03*
X108379260Y-37642800D03*
X173758860Y-38148260D03*
X108379260Y-126034800D03*
D11*
X195580000Y-40640000D03*
X180340000Y-66040000D03*
X195580000Y-53340000D03*
D12*
X180340000Y-71120000D03*
D11*
X195580000Y-48260000D03*
X195580000Y-38100000D03*
X180340000Y-63500000D03*
X180340000Y-58420000D03*
X180340000Y-55880000D03*
X195580000Y-43180000D03*
X195580000Y-35560000D03*
X180340000Y-35560000D03*
X195580000Y-71120000D03*
X180340000Y-38100000D03*
X195580000Y-68580000D03*
X180340000Y-40640000D03*
X195580000Y-66040000D03*
X180340000Y-43180000D03*
X195580000Y-63500000D03*
X180340000Y-45720000D03*
X195580000Y-60960000D03*
X180340000Y-48260000D03*
X195580000Y-58420000D03*
X180340000Y-50800000D03*
X195580000Y-45720000D03*
X180340000Y-68580000D03*
X195580000Y-50800000D03*
X180340000Y-60960000D03*
X195580000Y-55880000D03*
X180340000Y-53340000D03*
D13*
X182880000Y-96520000D03*
D14*
X182880000Y-78740000D03*
D13*
X190820000Y-96520000D03*
X190820000Y-78740000D03*
X180340000Y-96520000D03*
X180340000Y-78740000D03*
X193040000Y-78740000D03*
X193040000Y-96520000D03*
D15*
X106680000Y-91440000D03*
D16*
X106680000Y-88900000D03*
X106680000Y-86360000D03*
X106680000Y-83820000D03*
X106680000Y-81280000D03*
X106680000Y-78740000D03*
X106680000Y-76200000D03*
X106680000Y-73660000D03*
D12*
X157480000Y-93980000D03*
D17*
X157480000Y-96480000D03*
D18*
X173990000Y-70104000D03*
X172720000Y-70104000D03*
D19*
X175260000Y-70104000D03*
D17*
X166116000Y-77216000D03*
D11*
X176276000Y-77216000D03*
D15*
X172720000Y-50800000D03*
D16*
X172720000Y-53340000D03*
X172720000Y-91440000D03*
X172720000Y-99060000D03*
X172720000Y-96520000D03*
X172720000Y-86360000D03*
X172720000Y-88900000D03*
X172720000Y-93980000D03*
X172720000Y-55880000D03*
X172720000Y-63500000D03*
X172720000Y-58420000D03*
X172720000Y-60960000D03*
D20*
X177800000Y-107020000D03*
X177800000Y-112020000D03*
X177800000Y-117020000D03*
D21*
X177800000Y-128270000D03*
D22*
X177800000Y-132020000D03*
X184150000Y-132020000D03*
D21*
X184150000Y-128270000D03*
D20*
X184150000Y-117020000D03*
X184150000Y-112020000D03*
X184150000Y-107020000D03*
X195580000Y-107020000D03*
X195580000Y-112020000D03*
X195580000Y-117020000D03*
D21*
X195580000Y-128270000D03*
D22*
X195580000Y-132020000D03*
D23*
X128016000Y-98552000D03*
D24*
X125476000Y-101092000D03*
X128016000Y-103632000D03*
D17*
X145796000Y-109982000D03*
D11*
X145796000Y-120142000D03*
X158496000Y-113792000D03*
D17*
X158496000Y-123952000D03*
X122936000Y-113792000D03*
D11*
X122936000Y-123952000D03*
D25*
X139700000Y-38100000D03*
X142385001Y-38100000D03*
D26*
X152146000Y-120142000D03*
D27*
X152146000Y-109982000D03*
X190500000Y-121920000D03*
D26*
X190500000Y-132080000D03*
D28*
G36*
X208584504Y-35281204D02*
G01*
X208608773Y-35284804D01*
X208632571Y-35290765D01*
X208655671Y-35299030D01*
X208677849Y-35309520D01*
X208698893Y-35322133D01*
X208718598Y-35336747D01*
X208736777Y-35353223D01*
X208753253Y-35371402D01*
X208767867Y-35391107D01*
X208780480Y-35412151D01*
X208790970Y-35434329D01*
X208799235Y-35457429D01*
X208805196Y-35481227D01*
X208808796Y-35505496D01*
X208810000Y-35530000D01*
X208810000Y-37030000D01*
X208808796Y-37054504D01*
X208805196Y-37078773D01*
X208799235Y-37102571D01*
X208790970Y-37125671D01*
X208780480Y-37147849D01*
X208767867Y-37168893D01*
X208753253Y-37188598D01*
X208736777Y-37206777D01*
X208718598Y-37223253D01*
X208698893Y-37237867D01*
X208677849Y-37250480D01*
X208655671Y-37260970D01*
X208632571Y-37269235D01*
X208608773Y-37275196D01*
X208584504Y-37278796D01*
X208560000Y-37280000D01*
X205460000Y-37280000D01*
X205435496Y-37278796D01*
X205411227Y-37275196D01*
X205387429Y-37269235D01*
X205364329Y-37260970D01*
X205342151Y-37250480D01*
X205321107Y-37237867D01*
X205301402Y-37223253D01*
X205283223Y-37206777D01*
X205266747Y-37188598D01*
X205252133Y-37168893D01*
X205239520Y-37147849D01*
X205229030Y-37125671D01*
X205220765Y-37102571D01*
X205214804Y-37078773D01*
X205211204Y-37054504D01*
X205210000Y-37030000D01*
X205210000Y-35530000D01*
X205211204Y-35505496D01*
X205214804Y-35481227D01*
X205220765Y-35457429D01*
X205229030Y-35434329D01*
X205239520Y-35412151D01*
X205252133Y-35391107D01*
X205266747Y-35371402D01*
X205283223Y-35353223D01*
X205301402Y-35336747D01*
X205321107Y-35322133D01*
X205342151Y-35309520D01*
X205364329Y-35299030D01*
X205387429Y-35290765D01*
X205411227Y-35284804D01*
X205435496Y-35281204D01*
X205460000Y-35280000D01*
X208560000Y-35280000D01*
X208584504Y-35281204D01*
X208584504Y-35281204D01*
G37*
D22*
X207010000Y-36280000D03*
D29*
X207010000Y-41280000D03*
X207010000Y-46280000D03*
X207010000Y-51280000D03*
X207010000Y-56280000D03*
X207010000Y-61280000D03*
X207010000Y-66280000D03*
X207010000Y-71280000D03*
X207010000Y-76280000D03*
X207010000Y-81280000D03*
X207010000Y-86280000D03*
X207010000Y-91280000D03*
X207010000Y-96280000D03*
X207010000Y-101280000D03*
D20*
X201930000Y-107020000D03*
X201930000Y-112020000D03*
X201930000Y-117020000D03*
D21*
X201930000Y-128270000D03*
D22*
X201930000Y-132020000D03*
D17*
X166116000Y-81788000D03*
D11*
X176276000Y-81788000D03*
D25*
X207772000Y-119380000D03*
X207518000Y-116332000D03*
X207518000Y-109474000D03*
X207518000Y-111760000D03*
D30*
X185420000Y-63500000D02*
X185420000Y-63500000D01*
D31*
X157480000Y-96480000D02*
X157480000Y-99060000D01*
X157480000Y-99060000D02*
X172720000Y-99060000D01*
X193040000Y-99060000D02*
X193040000Y-96520000D01*
X193040000Y-96520000D02*
X190820000Y-96520000D01*
X190820000Y-96520000D02*
X190820000Y-98740000D01*
X190820000Y-98740000D02*
X190500000Y-99060000D01*
X190500000Y-99060000D02*
X193040000Y-99060000D01*
X172720000Y-99060000D02*
X190500000Y-99060000D01*
X195580000Y-68580000D02*
X193040000Y-68580000D01*
X193040000Y-68580000D02*
X187960000Y-63500000D01*
X187960000Y-63500000D02*
X180340000Y-63500000D01*
X180340000Y-63500000D02*
X172720000Y-63500000D01*
X193280000Y-96280000D02*
X193040000Y-96520000D01*
X207010000Y-96280000D02*
X193280000Y-96280000D01*
D32*
X204460000Y-51280000D02*
X207010000Y-51280000D01*
X204216000Y-51524000D02*
X204460000Y-51280000D01*
X204216000Y-51816000D02*
X204216000Y-51524000D01*
X199136000Y-56896000D02*
X204216000Y-51816000D01*
X199136000Y-65024000D02*
X199136000Y-56896000D01*
X195580000Y-68580000D02*
X199136000Y-65024000D01*
D31*
X207810000Y-81280000D02*
X207010000Y-81280000D01*
X210310000Y-83780000D02*
X207810000Y-81280000D01*
X210310000Y-93780000D02*
X210310000Y-83780000D01*
X207810000Y-96280000D02*
X210310000Y-93780000D01*
X207010000Y-96280000D02*
X207810000Y-96280000D01*
D32*
X207810000Y-96280000D02*
X210312000Y-98782000D01*
D31*
X195580000Y-81280000D02*
X193040000Y-78740000D01*
X207010000Y-81280000D02*
X195580000Y-81280000D01*
X190820000Y-78740000D02*
X193040000Y-78740000D01*
D33*
X172720000Y-63500000D02*
X172720000Y-70104000D01*
D32*
X128524000Y-99060000D02*
X128016000Y-98552000D01*
X157480000Y-99060000D02*
X128524000Y-99060000D01*
X122936000Y-112522000D02*
X122936000Y-113792000D01*
X122936000Y-99568000D02*
X122936000Y-112522000D01*
X123954540Y-98549460D02*
X122936000Y-99568000D01*
X126663460Y-98549460D02*
X123954540Y-98549460D01*
X128016000Y-98552000D02*
X126666000Y-98552000D01*
X126666000Y-98552000D02*
X126663460Y-98549460D01*
X210312000Y-107950000D02*
X210312000Y-98782000D01*
X210312000Y-110744000D02*
X210312000Y-107950000D01*
X207518000Y-111760000D02*
X209296000Y-111760000D01*
X209296000Y-111760000D02*
X210312000Y-110744000D01*
D31*
X180340000Y-78740000D02*
X182880000Y-78740000D01*
D32*
X204460000Y-56280000D02*
X204352000Y-56388000D01*
X207010000Y-56280000D02*
X204460000Y-56280000D01*
X204352000Y-56388000D02*
X201168000Y-56388000D01*
X196379999Y-70320001D02*
X195580000Y-71120000D01*
X200086010Y-66613990D02*
X196379999Y-70320001D01*
X200086010Y-64581990D02*
X200086010Y-66613990D01*
X201168000Y-63500000D02*
X200086010Y-64581990D01*
X201168000Y-56388000D02*
X201168000Y-63500000D01*
D31*
X182880000Y-76740000D02*
X188500000Y-71120000D01*
X182880000Y-78740000D02*
X182880000Y-76740000D01*
X188500000Y-71120000D02*
X195580000Y-71120000D01*
X179090001Y-79989999D02*
X164317999Y-79989999D01*
X180340000Y-78740000D02*
X179090001Y-79989999D01*
X164317999Y-79989999D02*
X163576000Y-79248000D01*
X163576000Y-79248000D02*
X163576000Y-75184000D01*
X163576000Y-75184000D02*
X168148000Y-70612000D01*
X171517919Y-53340000D02*
X172720000Y-53340000D01*
X168148000Y-56709919D02*
X171517919Y-53340000D01*
X168148000Y-70612000D02*
X168148000Y-56709919D01*
X165100000Y-93980000D02*
X157480000Y-93980000D01*
X172720000Y-93980000D02*
X166624000Y-93980000D01*
X166624000Y-93980000D02*
X165100000Y-93980000D01*
D33*
X165316001Y-92672001D02*
X166624000Y-93980000D01*
X165316001Y-82587999D02*
X165316001Y-92672001D01*
X166116000Y-81788000D02*
X165316001Y-82587999D01*
D32*
X195580000Y-55880000D02*
X200152000Y-51308000D01*
X206210000Y-46280000D02*
X207010000Y-46280000D01*
X201182000Y-51308000D02*
X206210000Y-46280000D01*
X200152000Y-51308000D02*
X201182000Y-51308000D01*
X108280000Y-91440000D02*
X106680000Y-91440000D01*
X111760000Y-87960000D02*
X108280000Y-91440000D01*
X111760000Y-83131516D02*
X111760000Y-87960000D01*
X145705758Y-49185758D02*
X111760000Y-83131516D01*
X146123516Y-48768000D02*
X145705758Y-49185758D01*
X180340000Y-55880000D02*
X177800000Y-53340000D01*
X177800000Y-53340000D02*
X177800000Y-49784000D01*
X177800000Y-49784000D02*
X176784000Y-48768000D01*
X176784000Y-48768000D02*
X146123516Y-48768000D01*
X111760000Y-73660000D02*
X106680000Y-73660000D01*
X143500040Y-41919960D02*
X111760000Y-73660000D01*
X174996040Y-41919960D02*
X143500040Y-41919960D01*
X178054000Y-38862000D02*
X174996040Y-41919960D01*
X178054000Y-37846000D02*
X178054000Y-38862000D01*
X180340000Y-35560000D02*
X178054000Y-37846000D01*
X110563516Y-76200000D02*
X106680000Y-76200000D01*
X143893546Y-42869970D02*
X110563516Y-76200000D01*
X175570030Y-42869970D02*
X143893546Y-42869970D01*
X180340000Y-38100000D02*
X175570030Y-42869970D01*
X109367032Y-78740000D02*
X106680000Y-78740000D01*
X144287052Y-43819980D02*
X109367032Y-78740000D01*
X177160020Y-43819980D02*
X144287052Y-43819980D01*
X180340000Y-40640000D02*
X177160020Y-43819980D01*
X108170548Y-81280000D02*
X106680000Y-81280000D01*
X144680558Y-44769990D02*
X108170548Y-81280000D01*
X178496010Y-44769990D02*
X144680558Y-44769990D01*
X179286001Y-43979999D02*
X178496010Y-44769990D01*
X179540001Y-43979999D02*
X179286001Y-43979999D01*
X180340000Y-43180000D02*
X179540001Y-43979999D01*
X107529999Y-82970001D02*
X106680000Y-83820000D01*
X107824063Y-82970001D02*
X107529999Y-82970001D01*
X145074064Y-45720000D02*
X143530032Y-47264032D01*
X180340000Y-45720000D02*
X145074064Y-45720000D01*
X143530032Y-47264032D02*
X107824063Y-82970001D01*
X109220000Y-83820000D02*
X106680000Y-86360000D01*
X109220000Y-82917580D02*
X109220000Y-83820000D01*
X145269600Y-46867980D02*
X144074790Y-48062790D01*
X178947980Y-46867980D02*
X145269600Y-46867980D01*
X180340000Y-48260000D02*
X178947980Y-46867980D01*
X144074790Y-48062790D02*
X109220000Y-82917580D01*
X108204000Y-88900000D02*
X106680000Y-88900000D01*
X110744000Y-86360000D02*
X108204000Y-88900000D01*
X110744000Y-82804000D02*
X110744000Y-86360000D01*
X145730010Y-47817990D02*
X144780000Y-48768000D01*
X177357990Y-47817990D02*
X145730010Y-47817990D01*
X180340000Y-50800000D02*
X177357990Y-47817990D01*
X144780000Y-48768000D02*
X110744000Y-82804000D01*
D34*
X210566000Y-35052000D02*
X209804000Y-34290000D01*
X210566000Y-72390000D02*
X210566000Y-35052000D01*
X179832000Y-91440000D02*
X185928000Y-85344000D01*
X172720000Y-91440000D02*
X179832000Y-91440000D01*
X185928000Y-85344000D02*
X185928000Y-76708000D01*
X204470000Y-34290000D02*
X195580000Y-43180000D01*
X185928000Y-76708000D02*
X188976000Y-73660000D01*
X188976000Y-73660000D02*
X209296000Y-73660000D01*
X209804000Y-34290000D02*
X204470000Y-34290000D01*
X209296000Y-73660000D02*
X210566000Y-72390000D01*
D33*
X173990000Y-71854000D02*
X173990000Y-70104000D01*
X168628000Y-77216000D02*
X173990000Y-71854000D01*
X166116000Y-77216000D02*
X168628000Y-77216000D01*
D32*
X180340000Y-115830000D02*
X184150000Y-112020000D01*
X180340000Y-119380000D02*
X180340000Y-115830000D01*
X177800000Y-128270000D02*
X177800000Y-121920000D01*
X177800000Y-121920000D02*
X180340000Y-119380000D01*
X184150000Y-112020000D02*
X191510000Y-119380000D01*
X191510000Y-119380000D02*
X193040000Y-119380000D01*
X193040000Y-119380000D02*
X200660000Y-127000000D01*
X200660000Y-127000000D02*
X201930000Y-128270000D01*
D31*
X188120000Y-91280000D02*
X182880000Y-96520000D01*
X207010000Y-91280000D02*
X188120000Y-91280000D01*
D32*
X174838000Y-109982000D02*
X177800000Y-107020000D01*
X152146000Y-109982000D02*
X174838000Y-109982000D01*
X145288000Y-109982000D02*
X145796000Y-109982000D01*
X125476000Y-101092000D02*
X136398000Y-101092000D01*
X136398000Y-101092000D02*
X145288000Y-109982000D01*
X207010000Y-36830000D02*
X207010000Y-36280000D01*
X195580000Y-48260000D02*
X207010000Y-36830000D01*
X207010000Y-41910000D02*
X207010000Y-41280000D01*
X195580000Y-53340000D02*
X207010000Y-41910000D01*
X158496000Y-124206000D02*
X158496000Y-123952000D01*
X150622000Y-132080000D02*
X158496000Y-124206000D01*
X128524000Y-132080000D02*
X150622000Y-132080000D01*
X122936000Y-123952000D02*
X122936000Y-126492000D01*
X122936000Y-126492000D02*
X128524000Y-132080000D01*
X128016000Y-128778000D02*
X128016000Y-103632000D01*
X130048000Y-130810000D02*
X128016000Y-128778000D01*
X130048000Y-130810000D02*
X150114000Y-130810000D01*
X150114000Y-130810000D02*
X152146000Y-128778000D01*
X152146000Y-128778000D02*
X152146000Y-120142000D01*
X152146000Y-120142000D02*
X160782000Y-120142000D01*
X172660000Y-132020000D02*
X177800000Y-132020000D01*
X160782000Y-120142000D02*
X172660000Y-132020000D01*
X182800000Y-107020000D02*
X184150000Y-107020000D01*
X177800000Y-112020000D02*
X182800000Y-107020000D01*
X195000000Y-128270000D02*
X195580000Y-128270000D01*
X190500000Y-123770000D02*
X195000000Y-128270000D01*
X190500000Y-121920000D02*
X190500000Y-123770000D01*
X186000000Y-128270000D02*
X184150000Y-128270000D01*
X190500000Y-123770000D02*
X186000000Y-128270000D01*
X176028000Y-113792000D02*
X158496000Y-113792000D01*
X177800000Y-112020000D02*
X176028000Y-113792000D01*
X190560000Y-132020000D02*
X190500000Y-132080000D01*
X195580000Y-132020000D02*
X190560000Y-132020000D01*
X184210000Y-132080000D02*
X184150000Y-132020000D01*
X190500000Y-132080000D02*
X184210000Y-132080000D01*
X204290000Y-117020000D02*
X201930000Y-117020000D01*
X204470000Y-116840000D02*
X204290000Y-117020000D01*
X204470000Y-121920000D02*
X204470000Y-116840000D01*
X207010000Y-124460000D02*
X204470000Y-121920000D01*
X196850000Y-133290000D02*
X200868998Y-133290000D01*
X195580000Y-132020000D02*
X196850000Y-133290000D01*
X200868998Y-133290000D02*
X201173999Y-133595001D01*
X201173999Y-133595001D02*
X206764999Y-133595001D01*
X206764999Y-133595001D02*
X207010000Y-133350000D01*
X207010000Y-133350000D02*
X207010000Y-124460000D01*
X205232000Y-116840000D02*
X207772000Y-119380000D01*
X204470000Y-116840000D02*
X205232000Y-116840000D01*
X204972000Y-112020000D02*
X207518000Y-109474000D01*
X201930000Y-112020000D02*
X204972000Y-112020000D01*
X205232000Y-112280000D02*
X204972000Y-112020000D01*
X207518000Y-116332000D02*
X205232000Y-114046000D01*
X205232000Y-114046000D02*
X205232000Y-112280000D01*
M02*
