G04 #@! TF.GenerationSoftware,KiCad,Pcbnew,(5.1.0-9-gc61ec8ee3)*
G04 #@! TF.CreationDate,2019-06-28T12:10:09+02:00*
G04 #@! TF.ProjectId,LCD_Back_Neo_Key_RxTx_emergency_stop,4c43445f-4261-4636-9b5f-4e656f5f4b65,rev?*
G04 #@! TF.SameCoordinates,Original*
G04 #@! TF.FileFunction,Copper,L1,Top*
G04 #@! TF.FilePolarity,Positive*
%FSLAX46Y46*%
G04 Gerber Fmt 4.6, Leading zero omitted, Abs format (unit mm)*
G04 Created by KiCad (PCBNEW (5.1.0-9-gc61ec8ee3)) date 2019-06-28 12:10:09*
%MOMM*%
%LPD*%
G04 APERTURE LIST*
%ADD10O,2.000000X2.000000*%
%ADD11R,2.000000X2.000000*%
%ADD12C,2.500000*%
%ADD13R,2.500000X2.500000*%
%ADD14R,1.600000X1.600000*%
%ADD15C,1.600000*%
%ADD16O,1.050000X1.500000*%
%ADD17R,1.050000X1.500000*%
%ADD18O,1.600000X1.600000*%
%ADD19C,3.000000*%
%ADD20C,2.000000*%
%ADD21O,2.200000X2.200000*%
%ADD22R,2.200000X2.200000*%
%ADD23O,3.000000X3.000000*%
%ADD24C,0.150000*%
%ADD25C,4.000000*%
%ADD26O,4.000000X4.000000*%
%ADD27O,4.000000X3.000000*%
%ADD28O,3.600000X2.000000*%
%ADD29C,0.250000*%
%ADD30C,1.500000*%
%ADD31C,0.750000*%
%ADD32C,1.000000*%
%ADD33C,0.500000*%
G04 APERTURE END LIST*
D10*
X195580000Y-40640000D03*
X180340000Y-66040000D03*
X195580000Y-53340000D03*
D11*
X180340000Y-71120000D03*
D10*
X195580000Y-48260000D03*
X195580000Y-38100000D03*
X180340000Y-63500000D03*
X180340000Y-58420000D03*
X180340000Y-55880000D03*
X195580000Y-43180000D03*
X195580000Y-35560000D03*
X180340000Y-35560000D03*
X195580000Y-71120000D03*
X180340000Y-38100000D03*
X195580000Y-68580000D03*
X180340000Y-40640000D03*
X195580000Y-66040000D03*
X180340000Y-43180000D03*
X195580000Y-63500000D03*
X180340000Y-45720000D03*
X195580000Y-60960000D03*
X180340000Y-48260000D03*
X195580000Y-58420000D03*
X180340000Y-50800000D03*
X195580000Y-45720000D03*
X180340000Y-68580000D03*
X195580000Y-50800000D03*
X180340000Y-60960000D03*
X195580000Y-55880000D03*
X180340000Y-53340000D03*
D12*
X182880000Y-96520000D03*
D13*
X182880000Y-78740000D03*
D12*
X190820000Y-96520000D03*
X190820000Y-78740000D03*
X180340000Y-96520000D03*
X180340000Y-78740000D03*
X193040000Y-78740000D03*
X193040000Y-96520000D03*
D11*
X106680000Y-91440000D03*
D10*
X106680000Y-88900000D03*
X106680000Y-86360000D03*
X106680000Y-83820000D03*
X106680000Y-81280000D03*
X106680000Y-78740000D03*
X106680000Y-76200000D03*
X106680000Y-73660000D03*
D14*
X157480000Y-93980000D03*
D15*
X157480000Y-96480000D03*
D16*
X173990000Y-70104000D03*
X172720000Y-70104000D03*
D17*
X175260000Y-70104000D03*
D15*
X166116000Y-77216000D03*
D18*
X176276000Y-77216000D03*
D11*
X172720000Y-50800000D03*
D10*
X172720000Y-53340000D03*
X172720000Y-91440000D03*
X172720000Y-99060000D03*
X172720000Y-96520000D03*
X172720000Y-86360000D03*
X172720000Y-88900000D03*
X172720000Y-93980000D03*
X172720000Y-55880000D03*
X172720000Y-63500000D03*
X172720000Y-58420000D03*
X172720000Y-60960000D03*
D19*
X179750000Y-107020000D03*
X179750000Y-112020000D03*
X179750000Y-117020000D03*
D13*
X179750000Y-128270000D03*
D19*
X179750000Y-132020000D03*
X185420000Y-132020000D03*
D13*
X185420000Y-128270000D03*
D19*
X185420000Y-117020000D03*
X185420000Y-112020000D03*
X185420000Y-107020000D03*
X195580000Y-107020000D03*
X195580000Y-112020000D03*
X195580000Y-117020000D03*
D13*
X195580000Y-128270000D03*
D19*
X195580000Y-132020000D03*
D10*
X128016000Y-98552000D03*
X125476000Y-101092000D03*
X128016000Y-103632000D03*
D15*
X145796000Y-109982000D03*
D18*
X145796000Y-120142000D03*
X158496000Y-113792000D03*
D15*
X158496000Y-123952000D03*
X122936000Y-113792000D03*
D18*
X122936000Y-123952000D03*
D20*
X139700000Y-38100000D03*
X142240000Y-38100000D03*
D21*
X152146000Y-120142000D03*
D22*
X152146000Y-109982000D03*
D13*
X191500000Y-122050000D03*
D23*
X191500000Y-132210000D03*
D24*
G36*
X208559009Y-34282408D02*
G01*
X208607545Y-34289607D01*
X208655142Y-34301530D01*
X208701342Y-34318060D01*
X208745698Y-34339039D01*
X208787785Y-34364265D01*
X208827197Y-34393495D01*
X208863553Y-34426447D01*
X208896505Y-34462803D01*
X208925735Y-34502215D01*
X208950961Y-34544302D01*
X208971940Y-34588658D01*
X208988470Y-34634858D01*
X209000393Y-34682455D01*
X209007592Y-34730991D01*
X209010000Y-34780000D01*
X209010000Y-37780000D01*
X209007592Y-37829009D01*
X209000393Y-37877545D01*
X208988470Y-37925142D01*
X208971940Y-37971342D01*
X208950961Y-38015698D01*
X208925735Y-38057785D01*
X208896505Y-38097197D01*
X208863553Y-38133553D01*
X208827197Y-38166505D01*
X208787785Y-38195735D01*
X208745698Y-38220961D01*
X208701342Y-38241940D01*
X208655142Y-38258470D01*
X208607545Y-38270393D01*
X208559009Y-38277592D01*
X208510000Y-38280000D01*
X205510000Y-38280000D01*
X205460991Y-38277592D01*
X205412455Y-38270393D01*
X205364858Y-38258470D01*
X205318658Y-38241940D01*
X205274302Y-38220961D01*
X205232215Y-38195735D01*
X205192803Y-38166505D01*
X205156447Y-38133553D01*
X205123495Y-38097197D01*
X205094265Y-38057785D01*
X205069039Y-38015698D01*
X205048060Y-37971342D01*
X205031530Y-37925142D01*
X205019607Y-37877545D01*
X205012408Y-37829009D01*
X205010000Y-37780000D01*
X205010000Y-34780000D01*
X205012408Y-34730991D01*
X205019607Y-34682455D01*
X205031530Y-34634858D01*
X205048060Y-34588658D01*
X205069039Y-34544302D01*
X205094265Y-34502215D01*
X205123495Y-34462803D01*
X205156447Y-34426447D01*
X205192803Y-34393495D01*
X205232215Y-34364265D01*
X205274302Y-34339039D01*
X205318658Y-34318060D01*
X205364858Y-34301530D01*
X205412455Y-34289607D01*
X205460991Y-34282408D01*
X205510000Y-34280000D01*
X208510000Y-34280000D01*
X208559009Y-34282408D01*
X208559009Y-34282408D01*
G37*
D25*
X207010000Y-36280000D03*
D26*
X207010000Y-41280000D03*
X207010000Y-46280000D03*
X207010000Y-51280000D03*
X207010000Y-56280000D03*
X207010000Y-61280000D03*
X207010000Y-66280000D03*
D27*
X207010000Y-71280000D03*
D26*
X207010000Y-76280000D03*
X207010000Y-81280000D03*
X207010000Y-86280000D03*
X207010000Y-91280000D03*
X207010000Y-96280000D03*
D28*
X207010000Y-101280000D03*
D19*
X201930000Y-107020000D03*
X201930000Y-112020000D03*
X201930000Y-117020000D03*
D13*
X201930000Y-128270000D03*
D19*
X201930000Y-132020000D03*
D15*
X166116000Y-81788000D03*
D18*
X176276000Y-81788000D03*
D20*
X208280000Y-119380000D03*
X208280000Y-116840000D03*
X208280000Y-109220000D03*
X208280000Y-111760000D03*
D29*
X185420000Y-63500000D02*
X185420000Y-63500000D01*
D30*
X157480000Y-96480000D02*
X157480000Y-99060000D01*
X157480000Y-99060000D02*
X172720000Y-99060000D01*
X193040000Y-99060000D02*
X193040000Y-96520000D01*
X193040000Y-96520000D02*
X190820000Y-96520000D01*
X190820000Y-96520000D02*
X190820000Y-98740000D01*
X190820000Y-98740000D02*
X190500000Y-99060000D01*
X190500000Y-99060000D02*
X193040000Y-99060000D01*
X172720000Y-99060000D02*
X190500000Y-99060000D01*
X195580000Y-68580000D02*
X193040000Y-68580000D01*
X193040000Y-68580000D02*
X187960000Y-63500000D01*
X187960000Y-63500000D02*
X180340000Y-63500000D01*
X180340000Y-63500000D02*
X172720000Y-63500000D01*
X193280000Y-96280000D02*
X193040000Y-96520000D01*
X207010000Y-96280000D02*
X193280000Y-96280000D01*
D31*
X204460000Y-51280000D02*
X207010000Y-51280000D01*
X204216000Y-51524000D02*
X204460000Y-51280000D01*
X204216000Y-51816000D02*
X204216000Y-51524000D01*
X199136000Y-56896000D02*
X204216000Y-51816000D01*
X199136000Y-65024000D02*
X199136000Y-56896000D01*
X195580000Y-68580000D02*
X199136000Y-65024000D01*
D30*
X207810000Y-81280000D02*
X207010000Y-81280000D01*
X210310000Y-83780000D02*
X207810000Y-81280000D01*
X210310000Y-93780000D02*
X210310000Y-83780000D01*
X207810000Y-96280000D02*
X210310000Y-93780000D01*
X207010000Y-96280000D02*
X207810000Y-96280000D01*
X195580000Y-81280000D02*
X193040000Y-78740000D01*
X207010000Y-81280000D02*
X195580000Y-81280000D01*
X190820000Y-78740000D02*
X193040000Y-78740000D01*
D32*
X172720000Y-63500000D02*
X172720000Y-70104000D01*
D31*
X128524000Y-99060000D02*
X128016000Y-98552000D01*
X157480000Y-99060000D02*
X128524000Y-99060000D01*
X122936000Y-112522000D02*
X122936000Y-113792000D01*
X122936000Y-99568000D02*
X122936000Y-112522000D01*
X123954540Y-98549460D02*
X122936000Y-99568000D01*
X126663460Y-98549460D02*
X123954540Y-98549460D01*
X128016000Y-98552000D02*
X126666000Y-98552000D01*
X126666000Y-98552000D02*
X126663460Y-98549460D01*
D33*
X208330000Y-111710000D02*
X208280000Y-111760000D01*
D30*
X209694213Y-111760000D02*
X208280000Y-111760000D01*
X210312000Y-111142213D02*
X209694213Y-111760000D01*
X210312000Y-98782000D02*
X210312000Y-111142213D01*
X207810000Y-96280000D02*
X210312000Y-98782000D01*
X180340000Y-78740000D02*
X182880000Y-78740000D01*
D31*
X204460000Y-56280000D02*
X204352000Y-56388000D01*
X207010000Y-56280000D02*
X204460000Y-56280000D01*
X204352000Y-56388000D02*
X201168000Y-56388000D01*
X196379999Y-70320001D02*
X195580000Y-71120000D01*
X200086010Y-66613990D02*
X196379999Y-70320001D01*
X200086010Y-64581990D02*
X200086010Y-66613990D01*
X201168000Y-63500000D02*
X200086010Y-64581990D01*
X201168000Y-56388000D02*
X201168000Y-63500000D01*
D30*
X182880000Y-76740000D02*
X188500000Y-71120000D01*
X182880000Y-78740000D02*
X182880000Y-76740000D01*
X188500000Y-71120000D02*
X195580000Y-71120000D01*
X179090001Y-79989999D02*
X164317999Y-79989999D01*
X180340000Y-78740000D02*
X179090001Y-79989999D01*
X164317999Y-79989999D02*
X163576000Y-79248000D01*
X163576000Y-79248000D02*
X163576000Y-75184000D01*
X163576000Y-75184000D02*
X168148000Y-70612000D01*
X171517919Y-53340000D02*
X172720000Y-53340000D01*
X168148000Y-56709919D02*
X171517919Y-53340000D01*
X168148000Y-70612000D02*
X168148000Y-56709919D01*
X165100000Y-93980000D02*
X157480000Y-93980000D01*
X172720000Y-93980000D02*
X166624000Y-93980000D01*
X166624000Y-93980000D02*
X165100000Y-93980000D01*
D32*
X165316001Y-92672001D02*
X166624000Y-93980000D01*
X165316001Y-82587999D02*
X165316001Y-92672001D01*
X166116000Y-81788000D02*
X165316001Y-82587999D01*
D31*
X195580000Y-55880000D02*
X200152000Y-51308000D01*
X206210000Y-46280000D02*
X207010000Y-46280000D01*
X201182000Y-51308000D02*
X206210000Y-46280000D01*
X200152000Y-51308000D02*
X201182000Y-51308000D01*
X108280000Y-91440000D02*
X106680000Y-91440000D01*
X111760000Y-87960000D02*
X108280000Y-91440000D01*
X111760000Y-83131516D02*
X111760000Y-87960000D01*
X145705758Y-49185758D02*
X111760000Y-83131516D01*
X146123516Y-48768000D02*
X145705758Y-49185758D01*
X180340000Y-55880000D02*
X177800000Y-53340000D01*
X177800000Y-53340000D02*
X177800000Y-49784000D01*
X177800000Y-49784000D02*
X176784000Y-48768000D01*
X176784000Y-48768000D02*
X146123516Y-48768000D01*
X111760000Y-73660000D02*
X106680000Y-73660000D01*
X143500040Y-41919960D02*
X111760000Y-73660000D01*
X174996040Y-41919960D02*
X143500040Y-41919960D01*
X178054000Y-38862000D02*
X174996040Y-41919960D01*
X178054000Y-37846000D02*
X178054000Y-38862000D01*
X180340000Y-35560000D02*
X178054000Y-37846000D01*
X110563516Y-76200000D02*
X106680000Y-76200000D01*
X143893546Y-42869970D02*
X110563516Y-76200000D01*
X175570030Y-42869970D02*
X143893546Y-42869970D01*
X180340000Y-38100000D02*
X175570030Y-42869970D01*
X109367032Y-78740000D02*
X106680000Y-78740000D01*
X144287052Y-43819980D02*
X109367032Y-78740000D01*
X177160020Y-43819980D02*
X144287052Y-43819980D01*
X180340000Y-40640000D02*
X177160020Y-43819980D01*
X108170548Y-81280000D02*
X106680000Y-81280000D01*
X144680558Y-44769990D02*
X108170548Y-81280000D01*
X178496010Y-44769990D02*
X144680558Y-44769990D01*
X179286001Y-43979999D02*
X178496010Y-44769990D01*
X179540001Y-43979999D02*
X179286001Y-43979999D01*
X180340000Y-43180000D02*
X179540001Y-43979999D01*
X107529999Y-82970001D02*
X106680000Y-83820000D01*
X107824063Y-82970001D02*
X107529999Y-82970001D01*
X145074064Y-45720000D02*
X143530032Y-47264032D01*
X180340000Y-45720000D02*
X145074064Y-45720000D01*
X143530032Y-47264032D02*
X107824063Y-82970001D01*
X109220000Y-83820000D02*
X106680000Y-86360000D01*
X109220000Y-82917580D02*
X109220000Y-83820000D01*
X145269600Y-46867980D02*
X144074790Y-48062790D01*
X178947980Y-46867980D02*
X145269600Y-46867980D01*
X180340000Y-48260000D02*
X178947980Y-46867980D01*
X144074790Y-48062790D02*
X109220000Y-82917580D01*
X108204000Y-88900000D02*
X106680000Y-88900000D01*
X110744000Y-86360000D02*
X108204000Y-88900000D01*
X110744000Y-82804000D02*
X110744000Y-86360000D01*
X145730010Y-47817990D02*
X144780000Y-48768000D01*
X177357990Y-47817990D02*
X145730010Y-47817990D01*
X180340000Y-50800000D02*
X177357990Y-47817990D01*
X144780000Y-48768000D02*
X110744000Y-82804000D01*
D33*
X210566000Y-35052000D02*
X209804000Y-34290000D01*
X210566000Y-72390000D02*
X210566000Y-35052000D01*
X179832000Y-91440000D02*
X185928000Y-85344000D01*
X172720000Y-91440000D02*
X179832000Y-91440000D01*
X185928000Y-85344000D02*
X185928000Y-76708000D01*
X204470000Y-34290000D02*
X195580000Y-43180000D01*
X185928000Y-76708000D02*
X188976000Y-73660000D01*
X188976000Y-73660000D02*
X209296000Y-73660000D01*
X209296000Y-73660000D02*
X210566000Y-72390000D01*
X209804000Y-34290000D02*
X209804000Y-34264000D01*
X209804000Y-34264000D02*
X209090000Y-33550000D01*
X205210000Y-33550000D02*
X204470000Y-34290000D01*
X209090000Y-33550000D02*
X205210000Y-33550000D01*
D32*
X173990000Y-71854000D02*
X173990000Y-70104000D01*
X168628000Y-77216000D02*
X173990000Y-71854000D01*
X166116000Y-77216000D02*
X168628000Y-77216000D01*
D30*
X188120000Y-91280000D02*
X182880000Y-96520000D01*
X207010000Y-91280000D02*
X188120000Y-91280000D01*
D31*
X174838000Y-109982000D02*
X177800000Y-107020000D01*
X152146000Y-109982000D02*
X174838000Y-109982000D01*
D30*
X201930000Y-125520000D02*
X201960000Y-125490000D01*
X201930000Y-128270000D02*
X201930000Y-125520000D01*
X201960000Y-125490000D02*
X201960000Y-125420000D01*
X201960000Y-125420000D02*
X197720000Y-121180000D01*
X197720000Y-121180000D02*
X194580000Y-121180000D01*
X188700000Y-119320000D02*
X188700000Y-115300000D01*
X179750000Y-128270000D02*
X188700000Y-119320000D01*
X194580000Y-121180000D02*
X188700000Y-115300000D01*
X188700000Y-115300000D02*
X185420000Y-112020000D01*
D31*
X145288000Y-109982000D02*
X145796000Y-109982000D01*
X125476000Y-101092000D02*
X136398000Y-101092000D01*
X136398000Y-101092000D02*
X145288000Y-109982000D01*
X207010000Y-36830000D02*
X207010000Y-36280000D01*
X195580000Y-48260000D02*
X207010000Y-36830000D01*
X207010000Y-41910000D02*
X207010000Y-41280000D01*
X195580000Y-53340000D02*
X207010000Y-41910000D01*
X158496000Y-124206000D02*
X158496000Y-123952000D01*
X150622000Y-132080000D02*
X158496000Y-124206000D01*
X128524000Y-132080000D02*
X150622000Y-132080000D01*
X122936000Y-123952000D02*
X122936000Y-126492000D01*
X122936000Y-126492000D02*
X128524000Y-132080000D01*
X128016000Y-128778000D02*
X128016000Y-103632000D01*
X130048000Y-130810000D02*
X128016000Y-128778000D01*
X130048000Y-130810000D02*
X150114000Y-130810000D01*
X150114000Y-130810000D02*
X152146000Y-128778000D01*
X152146000Y-128778000D02*
X152146000Y-120142000D01*
D30*
X177628680Y-132020000D02*
X179750000Y-132020000D01*
X166100000Y-132020000D02*
X177628680Y-132020000D01*
X162994598Y-128914598D02*
X166100000Y-132020000D01*
X152146000Y-120142000D02*
X162994598Y-120142000D01*
X162994598Y-120142000D02*
X162994598Y-128914598D01*
D31*
X195000000Y-128270000D02*
X195580000Y-128270000D01*
D30*
X185420000Y-128270000D02*
X195580000Y-128270000D01*
X191500000Y-126940000D02*
X191500000Y-122050000D01*
X195580000Y-128270000D02*
X192830000Y-128270000D01*
X192830000Y-128270000D02*
X191500000Y-126940000D01*
X178250001Y-113519999D02*
X179750000Y-112020000D01*
X177178001Y-114591999D02*
X178250001Y-113519999D01*
X159295999Y-114591999D02*
X177178001Y-114591999D01*
X158496000Y-113792000D02*
X159295999Y-114591999D01*
X180420000Y-112020000D02*
X185420000Y-107020000D01*
X179750000Y-112020000D02*
X180420000Y-112020000D01*
D31*
X190560000Y-132020000D02*
X190500000Y-132080000D01*
X204290000Y-117020000D02*
X201930000Y-117020000D01*
X204470000Y-116840000D02*
X204290000Y-117020000D01*
X204470000Y-121920000D02*
X204470000Y-116840000D01*
X207010000Y-124460000D02*
X204470000Y-121920000D01*
X195580000Y-132020000D02*
X196850000Y-133290000D01*
X206764999Y-133595001D02*
X207010000Y-133350000D01*
X207010000Y-133350000D02*
X207010000Y-124460000D01*
X205232000Y-116840000D02*
X207772000Y-119380000D01*
X204470000Y-116840000D02*
X205232000Y-116840000D01*
D33*
X206389999Y-133970001D02*
X206764999Y-133595001D01*
X200010001Y-133970001D02*
X206389999Y-133970001D01*
X199330000Y-133290000D02*
X200010001Y-133970001D01*
X196850000Y-133290000D02*
X199330000Y-133290000D01*
D30*
X191310000Y-132020000D02*
X191500000Y-132210000D01*
X185420000Y-132020000D02*
X191310000Y-132020000D01*
X195390000Y-132210000D02*
X195580000Y-132020000D01*
X191500000Y-132210000D02*
X195390000Y-132210000D01*
D31*
X201930000Y-112020000D02*
X204972000Y-112020000D01*
X205232000Y-112280000D02*
X204972000Y-112020000D01*
X207518000Y-116332000D02*
X205232000Y-114046000D01*
X205232000Y-114046000D02*
X205232000Y-112280000D01*
X205232000Y-112268000D02*
X208280000Y-109220000D01*
X205232000Y-112280000D02*
X205232000Y-112268000D01*
M02*
