G04 #@! TF.GenerationSoftware,KiCad,Pcbnew,(5.1.0-9-gc61ec8ee3)*
G04 #@! TF.CreationDate,2019-06-18T12:37:56+02:00*
G04 #@! TF.ProjectId,LCD_Back_Neo_Key_RxTx_emergency_stop,4c43445f-4261-4636-9b5f-4e656f5f4b65,rev?*
G04 #@! TF.SameCoordinates,Original*
G04 #@! TF.FileFunction,Soldermask,Bot*
G04 #@! TF.FilePolarity,Negative*
%FSLAX46Y46*%
G04 Gerber Fmt 4.6, Leading zero omitted, Abs format (unit mm)*
G04 Created by KiCad (PCBNEW (5.1.0-9-gc61ec8ee3)) date 2019-06-18 12:37:56*
%MOMM*%
%LPD*%
G04 APERTURE LIST*
%ADD10C,0.150000*%
G04 APERTURE END LIST*
D10*
G36*
X190669271Y-130940103D02*
G01*
X190725635Y-130945654D01*
X190942600Y-131011470D01*
X190942602Y-131011471D01*
X191142555Y-131118347D01*
X191317818Y-131262182D01*
X191461653Y-131437445D01*
X191568529Y-131637398D01*
X191634346Y-131854366D01*
X191656569Y-132080000D01*
X191634346Y-132305634D01*
X191568529Y-132522602D01*
X191461653Y-132722555D01*
X191317818Y-132897818D01*
X191142555Y-133041653D01*
X190942602Y-133148529D01*
X190942600Y-133148530D01*
X190725635Y-133214346D01*
X190669271Y-133219897D01*
X190556545Y-133231000D01*
X190443455Y-133231000D01*
X190330729Y-133219897D01*
X190274365Y-133214346D01*
X190057400Y-133148530D01*
X190057398Y-133148529D01*
X189857445Y-133041653D01*
X189682182Y-132897818D01*
X189538347Y-132722555D01*
X189431471Y-132522602D01*
X189365654Y-132305634D01*
X189343431Y-132080000D01*
X189365654Y-131854366D01*
X189431471Y-131637398D01*
X189538347Y-131437445D01*
X189682182Y-131262182D01*
X189857445Y-131118347D01*
X190057398Y-131011471D01*
X190057400Y-131011470D01*
X190274365Y-130945654D01*
X190330729Y-130940103D01*
X190443455Y-130929000D01*
X190556545Y-130929000D01*
X190669271Y-130940103D01*
X190669271Y-130940103D01*
G37*
G36*
X202236564Y-131009389D02*
G01*
X202427833Y-131088615D01*
X202427835Y-131088616D01*
X202472332Y-131118348D01*
X202599973Y-131203635D01*
X202746365Y-131350027D01*
X202861385Y-131522167D01*
X202940611Y-131713436D01*
X202981000Y-131916484D01*
X202981000Y-132123516D01*
X202940611Y-132326564D01*
X202861385Y-132517833D01*
X202861384Y-132517835D01*
X202746365Y-132689973D01*
X202599973Y-132836365D01*
X202427835Y-132951384D01*
X202427834Y-132951385D01*
X202427833Y-132951385D01*
X202236564Y-133030611D01*
X202033516Y-133071000D01*
X201826484Y-133071000D01*
X201623436Y-133030611D01*
X201432167Y-132951385D01*
X201432166Y-132951385D01*
X201432165Y-132951384D01*
X201260027Y-132836365D01*
X201113635Y-132689973D01*
X200998616Y-132517835D01*
X200998615Y-132517833D01*
X200919389Y-132326564D01*
X200879000Y-132123516D01*
X200879000Y-131916484D01*
X200919389Y-131713436D01*
X200998615Y-131522167D01*
X201113635Y-131350027D01*
X201260027Y-131203635D01*
X201387668Y-131118348D01*
X201432165Y-131088616D01*
X201432167Y-131088615D01*
X201623436Y-131009389D01*
X201826484Y-130969000D01*
X202033516Y-130969000D01*
X202236564Y-131009389D01*
X202236564Y-131009389D01*
G37*
G36*
X178106564Y-131009389D02*
G01*
X178297833Y-131088615D01*
X178297835Y-131088616D01*
X178342332Y-131118348D01*
X178469973Y-131203635D01*
X178616365Y-131350027D01*
X178731385Y-131522167D01*
X178810611Y-131713436D01*
X178851000Y-131916484D01*
X178851000Y-132123516D01*
X178810611Y-132326564D01*
X178731385Y-132517833D01*
X178731384Y-132517835D01*
X178616365Y-132689973D01*
X178469973Y-132836365D01*
X178297835Y-132951384D01*
X178297834Y-132951385D01*
X178297833Y-132951385D01*
X178106564Y-133030611D01*
X177903516Y-133071000D01*
X177696484Y-133071000D01*
X177493436Y-133030611D01*
X177302167Y-132951385D01*
X177302166Y-132951385D01*
X177302165Y-132951384D01*
X177130027Y-132836365D01*
X176983635Y-132689973D01*
X176868616Y-132517835D01*
X176868615Y-132517833D01*
X176789389Y-132326564D01*
X176749000Y-132123516D01*
X176749000Y-131916484D01*
X176789389Y-131713436D01*
X176868615Y-131522167D01*
X176983635Y-131350027D01*
X177130027Y-131203635D01*
X177257668Y-131118348D01*
X177302165Y-131088616D01*
X177302167Y-131088615D01*
X177493436Y-131009389D01*
X177696484Y-130969000D01*
X177903516Y-130969000D01*
X178106564Y-131009389D01*
X178106564Y-131009389D01*
G37*
G36*
X184456564Y-131009389D02*
G01*
X184647833Y-131088615D01*
X184647835Y-131088616D01*
X184692332Y-131118348D01*
X184819973Y-131203635D01*
X184966365Y-131350027D01*
X185081385Y-131522167D01*
X185160611Y-131713436D01*
X185201000Y-131916484D01*
X185201000Y-132123516D01*
X185160611Y-132326564D01*
X185081385Y-132517833D01*
X185081384Y-132517835D01*
X184966365Y-132689973D01*
X184819973Y-132836365D01*
X184647835Y-132951384D01*
X184647834Y-132951385D01*
X184647833Y-132951385D01*
X184456564Y-133030611D01*
X184253516Y-133071000D01*
X184046484Y-133071000D01*
X183843436Y-133030611D01*
X183652167Y-132951385D01*
X183652166Y-132951385D01*
X183652165Y-132951384D01*
X183480027Y-132836365D01*
X183333635Y-132689973D01*
X183218616Y-132517835D01*
X183218615Y-132517833D01*
X183139389Y-132326564D01*
X183099000Y-132123516D01*
X183099000Y-131916484D01*
X183139389Y-131713436D01*
X183218615Y-131522167D01*
X183333635Y-131350027D01*
X183480027Y-131203635D01*
X183607668Y-131118348D01*
X183652165Y-131088616D01*
X183652167Y-131088615D01*
X183843436Y-131009389D01*
X184046484Y-130969000D01*
X184253516Y-130969000D01*
X184456564Y-131009389D01*
X184456564Y-131009389D01*
G37*
G36*
X195886564Y-131009389D02*
G01*
X196077833Y-131088615D01*
X196077835Y-131088616D01*
X196122332Y-131118348D01*
X196249973Y-131203635D01*
X196396365Y-131350027D01*
X196511385Y-131522167D01*
X196590611Y-131713436D01*
X196631000Y-131916484D01*
X196631000Y-132123516D01*
X196590611Y-132326564D01*
X196511385Y-132517833D01*
X196511384Y-132517835D01*
X196396365Y-132689973D01*
X196249973Y-132836365D01*
X196077835Y-132951384D01*
X196077834Y-132951385D01*
X196077833Y-132951385D01*
X195886564Y-133030611D01*
X195683516Y-133071000D01*
X195476484Y-133071000D01*
X195273436Y-133030611D01*
X195082167Y-132951385D01*
X195082166Y-132951385D01*
X195082165Y-132951384D01*
X194910027Y-132836365D01*
X194763635Y-132689973D01*
X194648616Y-132517835D01*
X194648615Y-132517833D01*
X194569389Y-132326564D01*
X194529000Y-132123516D01*
X194529000Y-131916484D01*
X194569389Y-131713436D01*
X194648615Y-131522167D01*
X194763635Y-131350027D01*
X194910027Y-131203635D01*
X195037668Y-131118348D01*
X195082165Y-131088616D01*
X195082167Y-131088615D01*
X195273436Y-131009389D01*
X195476484Y-130969000D01*
X195683516Y-130969000D01*
X195886564Y-131009389D01*
X195886564Y-131009389D01*
G37*
G36*
X178851000Y-129321000D02*
G01*
X176749000Y-129321000D01*
X176749000Y-127219000D01*
X178851000Y-127219000D01*
X178851000Y-129321000D01*
X178851000Y-129321000D01*
G37*
G36*
X185201000Y-129321000D02*
G01*
X183099000Y-129321000D01*
X183099000Y-127219000D01*
X185201000Y-127219000D01*
X185201000Y-129321000D01*
X185201000Y-129321000D01*
G37*
G36*
X196631000Y-129321000D02*
G01*
X194529000Y-129321000D01*
X194529000Y-127219000D01*
X196631000Y-127219000D01*
X196631000Y-129321000D01*
X196631000Y-129321000D01*
G37*
G36*
X202981000Y-129321000D02*
G01*
X200879000Y-129321000D01*
X200879000Y-127219000D01*
X202981000Y-127219000D01*
X202981000Y-129321000D01*
X202981000Y-129321000D01*
G37*
G36*
X174357114Y-124568078D02*
G01*
X174730371Y-124722686D01*
X174730373Y-124722687D01*
X175066296Y-124947144D01*
X175351976Y-125232824D01*
X175576434Y-125568749D01*
X175731042Y-125942006D01*
X175809860Y-126338253D01*
X175809860Y-126742267D01*
X175731042Y-127138514D01*
X175576434Y-127511771D01*
X175576433Y-127511773D01*
X175351976Y-127847696D01*
X175066296Y-128133376D01*
X174730373Y-128357833D01*
X174730372Y-128357834D01*
X174730371Y-128357834D01*
X174357114Y-128512442D01*
X173960867Y-128591260D01*
X173556853Y-128591260D01*
X173160606Y-128512442D01*
X172787349Y-128357834D01*
X172787348Y-128357834D01*
X172787347Y-128357833D01*
X172451424Y-128133376D01*
X172165744Y-127847696D01*
X171941287Y-127511773D01*
X171941286Y-127511771D01*
X171786678Y-127138514D01*
X171707860Y-126742267D01*
X171707860Y-126338253D01*
X171786678Y-125942006D01*
X171941286Y-125568749D01*
X172165744Y-125232824D01*
X172451424Y-124947144D01*
X172787347Y-124722687D01*
X172787349Y-124722686D01*
X173160606Y-124568078D01*
X173556853Y-124489260D01*
X173960867Y-124489260D01*
X174357114Y-124568078D01*
X174357114Y-124568078D01*
G37*
G36*
X108977514Y-124062618D02*
G01*
X109350771Y-124217226D01*
X109350773Y-124217227D01*
X109686696Y-124441684D01*
X109972376Y-124727364D01*
X110119229Y-124947144D01*
X110196834Y-125063289D01*
X110351442Y-125436546D01*
X110430260Y-125832793D01*
X110430260Y-126236807D01*
X110351442Y-126633054D01*
X110196834Y-127006311D01*
X110196833Y-127006313D01*
X109972376Y-127342236D01*
X109686696Y-127627916D01*
X109350773Y-127852373D01*
X109350772Y-127852374D01*
X109350771Y-127852374D01*
X108977514Y-128006982D01*
X108581267Y-128085800D01*
X108177253Y-128085800D01*
X107781006Y-128006982D01*
X107407749Y-127852374D01*
X107407748Y-127852374D01*
X107407747Y-127852373D01*
X107071824Y-127627916D01*
X106786144Y-127342236D01*
X106561687Y-127006313D01*
X106561686Y-127006311D01*
X106407078Y-126633054D01*
X106328260Y-126236807D01*
X106328260Y-125832793D01*
X106407078Y-125436546D01*
X106561686Y-125063289D01*
X106639292Y-124947144D01*
X106786144Y-124727364D01*
X107071824Y-124441684D01*
X107407747Y-124217227D01*
X107407749Y-124217226D01*
X107781006Y-124062618D01*
X108177253Y-123983800D01*
X108581267Y-123983800D01*
X108977514Y-124062618D01*
X108977514Y-124062618D01*
G37*
G36*
X158744228Y-123133703D02*
G01*
X158899100Y-123197853D01*
X159038481Y-123290985D01*
X159157015Y-123409519D01*
X159250147Y-123548900D01*
X159314297Y-123703772D01*
X159347000Y-123868184D01*
X159347000Y-124035816D01*
X159314297Y-124200228D01*
X159250147Y-124355100D01*
X159157015Y-124494481D01*
X159038481Y-124613015D01*
X158899100Y-124706147D01*
X158744228Y-124770297D01*
X158579816Y-124803000D01*
X158412184Y-124803000D01*
X158247772Y-124770297D01*
X158092900Y-124706147D01*
X157953519Y-124613015D01*
X157834985Y-124494481D01*
X157741853Y-124355100D01*
X157677703Y-124200228D01*
X157645000Y-124035816D01*
X157645000Y-123868184D01*
X157677703Y-123703772D01*
X157741853Y-123548900D01*
X157834985Y-123409519D01*
X157953519Y-123290985D01*
X158092900Y-123197853D01*
X158247772Y-123133703D01*
X158412184Y-123101000D01*
X158579816Y-123101000D01*
X158744228Y-123133703D01*
X158744228Y-123133703D01*
G37*
G36*
X123102823Y-123113313D02*
G01*
X123263242Y-123161976D01*
X123330361Y-123197852D01*
X123411078Y-123240996D01*
X123540659Y-123347341D01*
X123647004Y-123476922D01*
X123647005Y-123476924D01*
X123726024Y-123624758D01*
X123774687Y-123785177D01*
X123791117Y-123952000D01*
X123774687Y-124118823D01*
X123726024Y-124279242D01*
X123685477Y-124355100D01*
X123647004Y-124427078D01*
X123540659Y-124556659D01*
X123411078Y-124663004D01*
X123411076Y-124663005D01*
X123263242Y-124742024D01*
X123102823Y-124790687D01*
X122977804Y-124803000D01*
X122894196Y-124803000D01*
X122769177Y-124790687D01*
X122608758Y-124742024D01*
X122460924Y-124663005D01*
X122460922Y-124663004D01*
X122331341Y-124556659D01*
X122224996Y-124427078D01*
X122186523Y-124355100D01*
X122145976Y-124279242D01*
X122097313Y-124118823D01*
X122080883Y-123952000D01*
X122097313Y-123785177D01*
X122145976Y-123624758D01*
X122224995Y-123476924D01*
X122224996Y-123476922D01*
X122331341Y-123347341D01*
X122460922Y-123240996D01*
X122541639Y-123197852D01*
X122608758Y-123161976D01*
X122769177Y-123113313D01*
X122894196Y-123101000D01*
X122977804Y-123101000D01*
X123102823Y-123113313D01*
X123102823Y-123113313D01*
G37*
G36*
X191651000Y-123071000D02*
G01*
X189349000Y-123071000D01*
X189349000Y-120769000D01*
X191651000Y-120769000D01*
X191651000Y-123071000D01*
X191651000Y-123071000D01*
G37*
G36*
X152315271Y-119002103D02*
G01*
X152371635Y-119007654D01*
X152588600Y-119073470D01*
X152588602Y-119073471D01*
X152788555Y-119180347D01*
X152963818Y-119324182D01*
X153107653Y-119499445D01*
X153160897Y-119599059D01*
X153214530Y-119699400D01*
X153280346Y-119916365D01*
X153302569Y-120142000D01*
X153280346Y-120367635D01*
X153249524Y-120469242D01*
X153214529Y-120584602D01*
X153107653Y-120784555D01*
X152963818Y-120959818D01*
X152788555Y-121103653D01*
X152588602Y-121210529D01*
X152588600Y-121210530D01*
X152371635Y-121276346D01*
X152315271Y-121281897D01*
X152202545Y-121293000D01*
X152089455Y-121293000D01*
X151976729Y-121281897D01*
X151920365Y-121276346D01*
X151703400Y-121210530D01*
X151703398Y-121210529D01*
X151503445Y-121103653D01*
X151328182Y-120959818D01*
X151184347Y-120784555D01*
X151077471Y-120584602D01*
X151042477Y-120469242D01*
X151011654Y-120367635D01*
X150989431Y-120142000D01*
X151011654Y-119916365D01*
X151077470Y-119699400D01*
X151131103Y-119599059D01*
X151184347Y-119499445D01*
X151328182Y-119324182D01*
X151503445Y-119180347D01*
X151703398Y-119073471D01*
X151703400Y-119073470D01*
X151920365Y-119007654D01*
X151976729Y-119002103D01*
X152089455Y-118991000D01*
X152202545Y-118991000D01*
X152315271Y-119002103D01*
X152315271Y-119002103D01*
G37*
G36*
X145962823Y-119303313D02*
G01*
X146123242Y-119351976D01*
X146255906Y-119422886D01*
X146271078Y-119430996D01*
X146400659Y-119537341D01*
X146507004Y-119666922D01*
X146507005Y-119666924D01*
X146586024Y-119814758D01*
X146634687Y-119975177D01*
X146651117Y-120142000D01*
X146634687Y-120308823D01*
X146586024Y-120469242D01*
X146524364Y-120584600D01*
X146507004Y-120617078D01*
X146400659Y-120746659D01*
X146271078Y-120853004D01*
X146271076Y-120853005D01*
X146123242Y-120932024D01*
X145962823Y-120980687D01*
X145837804Y-120993000D01*
X145754196Y-120993000D01*
X145629177Y-120980687D01*
X145468758Y-120932024D01*
X145320924Y-120853005D01*
X145320922Y-120853004D01*
X145191341Y-120746659D01*
X145084996Y-120617078D01*
X145067636Y-120584600D01*
X145005976Y-120469242D01*
X144957313Y-120308823D01*
X144940883Y-120142000D01*
X144957313Y-119975177D01*
X145005976Y-119814758D01*
X145084995Y-119666924D01*
X145084996Y-119666922D01*
X145191341Y-119537341D01*
X145320922Y-119430996D01*
X145336094Y-119422886D01*
X145468758Y-119351976D01*
X145629177Y-119303313D01*
X145754196Y-119291000D01*
X145837804Y-119291000D01*
X145962823Y-119303313D01*
X145962823Y-119303313D01*
G37*
G36*
X207991059Y-118657860D02*
G01*
X208127732Y-118714472D01*
X208250735Y-118796660D01*
X208355340Y-118901265D01*
X208437528Y-119024268D01*
X208494140Y-119160941D01*
X208523000Y-119306033D01*
X208523000Y-119453967D01*
X208494140Y-119599059D01*
X208437528Y-119735732D01*
X208355340Y-119858735D01*
X208250735Y-119963340D01*
X208127732Y-120045528D01*
X208127731Y-120045529D01*
X208127730Y-120045529D01*
X207991059Y-120102140D01*
X207845968Y-120131000D01*
X207698032Y-120131000D01*
X207552941Y-120102140D01*
X207416270Y-120045529D01*
X207416269Y-120045529D01*
X207416268Y-120045528D01*
X207293265Y-119963340D01*
X207188660Y-119858735D01*
X207106472Y-119735732D01*
X207049860Y-119599059D01*
X207021000Y-119453967D01*
X207021000Y-119306033D01*
X207049860Y-119160941D01*
X207106472Y-119024268D01*
X207188660Y-118901265D01*
X207293265Y-118796660D01*
X207416268Y-118714472D01*
X207552941Y-118657860D01*
X207698032Y-118629000D01*
X207845968Y-118629000D01*
X207991059Y-118657860D01*
X207991059Y-118657860D01*
G37*
G36*
X195944903Y-115817075D02*
G01*
X196032279Y-115853267D01*
X196172571Y-115911378D01*
X196377466Y-116048285D01*
X196551715Y-116222534D01*
X196674281Y-116405967D01*
X196688623Y-116427431D01*
X196782925Y-116655097D01*
X196789417Y-116687732D01*
X196831000Y-116896787D01*
X196831000Y-117143213D01*
X196782925Y-117384903D01*
X196688622Y-117612571D01*
X196551715Y-117817466D01*
X196377466Y-117991715D01*
X196172571Y-118128622D01*
X196172570Y-118128623D01*
X196172569Y-118128623D01*
X195944903Y-118222925D01*
X195703214Y-118271000D01*
X195456786Y-118271000D01*
X195215097Y-118222925D01*
X194987431Y-118128623D01*
X194987430Y-118128623D01*
X194987429Y-118128622D01*
X194782534Y-117991715D01*
X194608285Y-117817466D01*
X194471378Y-117612571D01*
X194377075Y-117384903D01*
X194329000Y-117143213D01*
X194329000Y-116896787D01*
X194370584Y-116687732D01*
X194377075Y-116655097D01*
X194471377Y-116427431D01*
X194485719Y-116405967D01*
X194608285Y-116222534D01*
X194782534Y-116048285D01*
X194987429Y-115911378D01*
X195127722Y-115853267D01*
X195215097Y-115817075D01*
X195456786Y-115769000D01*
X195703214Y-115769000D01*
X195944903Y-115817075D01*
X195944903Y-115817075D01*
G37*
G36*
X202294903Y-115817075D02*
G01*
X202382279Y-115853267D01*
X202522571Y-115911378D01*
X202727466Y-116048285D01*
X202901715Y-116222534D01*
X203024281Y-116405967D01*
X203038623Y-116427431D01*
X203132925Y-116655097D01*
X203139417Y-116687732D01*
X203181000Y-116896787D01*
X203181000Y-117143213D01*
X203132925Y-117384903D01*
X203038622Y-117612571D01*
X202901715Y-117817466D01*
X202727466Y-117991715D01*
X202522571Y-118128622D01*
X202522570Y-118128623D01*
X202522569Y-118128623D01*
X202294903Y-118222925D01*
X202053214Y-118271000D01*
X201806786Y-118271000D01*
X201565097Y-118222925D01*
X201337431Y-118128623D01*
X201337430Y-118128623D01*
X201337429Y-118128622D01*
X201132534Y-117991715D01*
X200958285Y-117817466D01*
X200821378Y-117612571D01*
X200727075Y-117384903D01*
X200679000Y-117143213D01*
X200679000Y-116896787D01*
X200720584Y-116687732D01*
X200727075Y-116655097D01*
X200821377Y-116427431D01*
X200835719Y-116405967D01*
X200958285Y-116222534D01*
X201132534Y-116048285D01*
X201337429Y-115911378D01*
X201477722Y-115853267D01*
X201565097Y-115817075D01*
X201806786Y-115769000D01*
X202053214Y-115769000D01*
X202294903Y-115817075D01*
X202294903Y-115817075D01*
G37*
G36*
X178164903Y-115817075D02*
G01*
X178252279Y-115853267D01*
X178392571Y-115911378D01*
X178597466Y-116048285D01*
X178771715Y-116222534D01*
X178894281Y-116405967D01*
X178908623Y-116427431D01*
X179002925Y-116655097D01*
X179009417Y-116687732D01*
X179051000Y-116896787D01*
X179051000Y-117143213D01*
X179002925Y-117384903D01*
X178908622Y-117612571D01*
X178771715Y-117817466D01*
X178597466Y-117991715D01*
X178392571Y-118128622D01*
X178392570Y-118128623D01*
X178392569Y-118128623D01*
X178164903Y-118222925D01*
X177923214Y-118271000D01*
X177676786Y-118271000D01*
X177435097Y-118222925D01*
X177207431Y-118128623D01*
X177207430Y-118128623D01*
X177207429Y-118128622D01*
X177002534Y-117991715D01*
X176828285Y-117817466D01*
X176691378Y-117612571D01*
X176597075Y-117384903D01*
X176549000Y-117143213D01*
X176549000Y-116896787D01*
X176590584Y-116687732D01*
X176597075Y-116655097D01*
X176691377Y-116427431D01*
X176705719Y-116405967D01*
X176828285Y-116222534D01*
X177002534Y-116048285D01*
X177207429Y-115911378D01*
X177347722Y-115853267D01*
X177435097Y-115817075D01*
X177676786Y-115769000D01*
X177923214Y-115769000D01*
X178164903Y-115817075D01*
X178164903Y-115817075D01*
G37*
G36*
X184514903Y-115817075D02*
G01*
X184602279Y-115853267D01*
X184742571Y-115911378D01*
X184947466Y-116048285D01*
X185121715Y-116222534D01*
X185244281Y-116405967D01*
X185258623Y-116427431D01*
X185352925Y-116655097D01*
X185359417Y-116687732D01*
X185401000Y-116896787D01*
X185401000Y-117143213D01*
X185352925Y-117384903D01*
X185258622Y-117612571D01*
X185121715Y-117817466D01*
X184947466Y-117991715D01*
X184742571Y-118128622D01*
X184742570Y-118128623D01*
X184742569Y-118128623D01*
X184514903Y-118222925D01*
X184273214Y-118271000D01*
X184026786Y-118271000D01*
X183785097Y-118222925D01*
X183557431Y-118128623D01*
X183557430Y-118128623D01*
X183557429Y-118128622D01*
X183352534Y-117991715D01*
X183178285Y-117817466D01*
X183041378Y-117612571D01*
X182947075Y-117384903D01*
X182899000Y-117143213D01*
X182899000Y-116896787D01*
X182940584Y-116687732D01*
X182947075Y-116655097D01*
X183041377Y-116427431D01*
X183055719Y-116405967D01*
X183178285Y-116222534D01*
X183352534Y-116048285D01*
X183557429Y-115911378D01*
X183697722Y-115853267D01*
X183785097Y-115817075D01*
X184026786Y-115769000D01*
X184273214Y-115769000D01*
X184514903Y-115817075D01*
X184514903Y-115817075D01*
G37*
G36*
X207737059Y-115609860D02*
G01*
X207873732Y-115666472D01*
X207996735Y-115748660D01*
X208101340Y-115853265D01*
X208101341Y-115853267D01*
X208183529Y-115976270D01*
X208240140Y-116112941D01*
X208261940Y-116222536D01*
X208269000Y-116258033D01*
X208269000Y-116405967D01*
X208240140Y-116551059D01*
X208183528Y-116687732D01*
X208101340Y-116810735D01*
X207996735Y-116915340D01*
X207873732Y-116997528D01*
X207873731Y-116997529D01*
X207873730Y-116997529D01*
X207737059Y-117054140D01*
X207591968Y-117083000D01*
X207444032Y-117083000D01*
X207298941Y-117054140D01*
X207162270Y-116997529D01*
X207162269Y-116997529D01*
X207162268Y-116997528D01*
X207039265Y-116915340D01*
X206934660Y-116810735D01*
X206852472Y-116687732D01*
X206795860Y-116551059D01*
X206767000Y-116405967D01*
X206767000Y-116258033D01*
X206774061Y-116222536D01*
X206795860Y-116112941D01*
X206852471Y-115976270D01*
X206934659Y-115853267D01*
X206934660Y-115853265D01*
X207039265Y-115748660D01*
X207162268Y-115666472D01*
X207298941Y-115609860D01*
X207444032Y-115581000D01*
X207591968Y-115581000D01*
X207737059Y-115609860D01*
X207737059Y-115609860D01*
G37*
G36*
X123184228Y-112973703D02*
G01*
X123339100Y-113037853D01*
X123478481Y-113130985D01*
X123597015Y-113249519D01*
X123690147Y-113388900D01*
X123754297Y-113543772D01*
X123787000Y-113708184D01*
X123787000Y-113875816D01*
X123754297Y-114040228D01*
X123690147Y-114195100D01*
X123597015Y-114334481D01*
X123478481Y-114453015D01*
X123339100Y-114546147D01*
X123184228Y-114610297D01*
X123019816Y-114643000D01*
X122852184Y-114643000D01*
X122687772Y-114610297D01*
X122532900Y-114546147D01*
X122393519Y-114453015D01*
X122274985Y-114334481D01*
X122181853Y-114195100D01*
X122117703Y-114040228D01*
X122085000Y-113875816D01*
X122085000Y-113708184D01*
X122117703Y-113543772D01*
X122181853Y-113388900D01*
X122274985Y-113249519D01*
X122393519Y-113130985D01*
X122532900Y-113037853D01*
X122687772Y-112973703D01*
X122852184Y-112941000D01*
X123019816Y-112941000D01*
X123184228Y-112973703D01*
X123184228Y-112973703D01*
G37*
G36*
X158662823Y-112953313D02*
G01*
X158823242Y-113001976D01*
X158890361Y-113037852D01*
X158971078Y-113080996D01*
X159100659Y-113187341D01*
X159207004Y-113316922D01*
X159207005Y-113316924D01*
X159286024Y-113464758D01*
X159334687Y-113625177D01*
X159351117Y-113792000D01*
X159334687Y-113958823D01*
X159286024Y-114119242D01*
X159245477Y-114195100D01*
X159207004Y-114267078D01*
X159100659Y-114396659D01*
X158971078Y-114503004D01*
X158971076Y-114503005D01*
X158823242Y-114582024D01*
X158662823Y-114630687D01*
X158537804Y-114643000D01*
X158454196Y-114643000D01*
X158329177Y-114630687D01*
X158168758Y-114582024D01*
X158020924Y-114503005D01*
X158020922Y-114503004D01*
X157891341Y-114396659D01*
X157784996Y-114267078D01*
X157746523Y-114195100D01*
X157705976Y-114119242D01*
X157657313Y-113958823D01*
X157640883Y-113792000D01*
X157657313Y-113625177D01*
X157705976Y-113464758D01*
X157784995Y-113316924D01*
X157784996Y-113316922D01*
X157891341Y-113187341D01*
X158020922Y-113080996D01*
X158101639Y-113037852D01*
X158168758Y-113001976D01*
X158329177Y-112953313D01*
X158454196Y-112941000D01*
X158537804Y-112941000D01*
X158662823Y-112953313D01*
X158662823Y-112953313D01*
G37*
G36*
X184430544Y-110800295D02*
G01*
X184514903Y-110817075D01*
X184742571Y-110911378D01*
X184947466Y-111048285D01*
X185121715Y-111222534D01*
X185258622Y-111427429D01*
X185258623Y-111427431D01*
X185352925Y-111655097D01*
X185388505Y-111833967D01*
X185401000Y-111896787D01*
X185401000Y-112143213D01*
X185352925Y-112384903D01*
X185258622Y-112612571D01*
X185121715Y-112817466D01*
X184947466Y-112991715D01*
X184742571Y-113128622D01*
X184742570Y-113128623D01*
X184742569Y-113128623D01*
X184514903Y-113222925D01*
X184273214Y-113271000D01*
X184026786Y-113271000D01*
X183785097Y-113222925D01*
X183557431Y-113128623D01*
X183557430Y-113128623D01*
X183557429Y-113128622D01*
X183352534Y-112991715D01*
X183178285Y-112817466D01*
X183041378Y-112612571D01*
X182947075Y-112384903D01*
X182899000Y-112143213D01*
X182899000Y-111896787D01*
X182911496Y-111833967D01*
X182947075Y-111655097D01*
X183041377Y-111427431D01*
X183041378Y-111427429D01*
X183178285Y-111222534D01*
X183352534Y-111048285D01*
X183557429Y-110911378D01*
X183785097Y-110817075D01*
X183869456Y-110800295D01*
X184026786Y-110769000D01*
X184273214Y-110769000D01*
X184430544Y-110800295D01*
X184430544Y-110800295D01*
G37*
G36*
X195860544Y-110800295D02*
G01*
X195944903Y-110817075D01*
X196172571Y-110911378D01*
X196377466Y-111048285D01*
X196551715Y-111222534D01*
X196688622Y-111427429D01*
X196688623Y-111427431D01*
X196782925Y-111655097D01*
X196818505Y-111833967D01*
X196831000Y-111896787D01*
X196831000Y-112143213D01*
X196782925Y-112384903D01*
X196688622Y-112612571D01*
X196551715Y-112817466D01*
X196377466Y-112991715D01*
X196172571Y-113128622D01*
X196172570Y-113128623D01*
X196172569Y-113128623D01*
X195944903Y-113222925D01*
X195703214Y-113271000D01*
X195456786Y-113271000D01*
X195215097Y-113222925D01*
X194987431Y-113128623D01*
X194987430Y-113128623D01*
X194987429Y-113128622D01*
X194782534Y-112991715D01*
X194608285Y-112817466D01*
X194471378Y-112612571D01*
X194377075Y-112384903D01*
X194329000Y-112143213D01*
X194329000Y-111896787D01*
X194341496Y-111833967D01*
X194377075Y-111655097D01*
X194471377Y-111427431D01*
X194471378Y-111427429D01*
X194608285Y-111222534D01*
X194782534Y-111048285D01*
X194987429Y-110911378D01*
X195215097Y-110817075D01*
X195299456Y-110800295D01*
X195456786Y-110769000D01*
X195703214Y-110769000D01*
X195860544Y-110800295D01*
X195860544Y-110800295D01*
G37*
G36*
X202210544Y-110800295D02*
G01*
X202294903Y-110817075D01*
X202522571Y-110911378D01*
X202727466Y-111048285D01*
X202901715Y-111222534D01*
X203038622Y-111427429D01*
X203038623Y-111427431D01*
X203132925Y-111655097D01*
X203168505Y-111833967D01*
X203181000Y-111896787D01*
X203181000Y-112143213D01*
X203132925Y-112384903D01*
X203038622Y-112612571D01*
X202901715Y-112817466D01*
X202727466Y-112991715D01*
X202522571Y-113128622D01*
X202522570Y-113128623D01*
X202522569Y-113128623D01*
X202294903Y-113222925D01*
X202053214Y-113271000D01*
X201806786Y-113271000D01*
X201565097Y-113222925D01*
X201337431Y-113128623D01*
X201337430Y-113128623D01*
X201337429Y-113128622D01*
X201132534Y-112991715D01*
X200958285Y-112817466D01*
X200821378Y-112612571D01*
X200727075Y-112384903D01*
X200679000Y-112143213D01*
X200679000Y-111896787D01*
X200691496Y-111833967D01*
X200727075Y-111655097D01*
X200821377Y-111427431D01*
X200821378Y-111427429D01*
X200958285Y-111222534D01*
X201132534Y-111048285D01*
X201337429Y-110911378D01*
X201565097Y-110817075D01*
X201649456Y-110800295D01*
X201806786Y-110769000D01*
X202053214Y-110769000D01*
X202210544Y-110800295D01*
X202210544Y-110800295D01*
G37*
G36*
X178080544Y-110800295D02*
G01*
X178164903Y-110817075D01*
X178392571Y-110911378D01*
X178597466Y-111048285D01*
X178771715Y-111222534D01*
X178908622Y-111427429D01*
X178908623Y-111427431D01*
X179002925Y-111655097D01*
X179038505Y-111833967D01*
X179051000Y-111896787D01*
X179051000Y-112143213D01*
X179002925Y-112384903D01*
X178908622Y-112612571D01*
X178771715Y-112817466D01*
X178597466Y-112991715D01*
X178392571Y-113128622D01*
X178392570Y-113128623D01*
X178392569Y-113128623D01*
X178164903Y-113222925D01*
X177923214Y-113271000D01*
X177676786Y-113271000D01*
X177435097Y-113222925D01*
X177207431Y-113128623D01*
X177207430Y-113128623D01*
X177207429Y-113128622D01*
X177002534Y-112991715D01*
X176828285Y-112817466D01*
X176691378Y-112612571D01*
X176597075Y-112384903D01*
X176549000Y-112143213D01*
X176549000Y-111896787D01*
X176561496Y-111833967D01*
X176597075Y-111655097D01*
X176691377Y-111427431D01*
X176691378Y-111427429D01*
X176828285Y-111222534D01*
X177002534Y-111048285D01*
X177207429Y-110911378D01*
X177435097Y-110817075D01*
X177519456Y-110800295D01*
X177676786Y-110769000D01*
X177923214Y-110769000D01*
X178080544Y-110800295D01*
X178080544Y-110800295D01*
G37*
G36*
X207737059Y-111037860D02*
G01*
X207873732Y-111094472D01*
X207996735Y-111176660D01*
X208101340Y-111281265D01*
X208101341Y-111281267D01*
X208183529Y-111404270D01*
X208240140Y-111540941D01*
X208269000Y-111686033D01*
X208269000Y-111833967D01*
X208240140Y-111979059D01*
X208183528Y-112115732D01*
X208101340Y-112238735D01*
X207996735Y-112343340D01*
X207873732Y-112425528D01*
X207873731Y-112425529D01*
X207873730Y-112425529D01*
X207737059Y-112482140D01*
X207591968Y-112511000D01*
X207444032Y-112511000D01*
X207298941Y-112482140D01*
X207162270Y-112425529D01*
X207162269Y-112425529D01*
X207162268Y-112425528D01*
X207039265Y-112343340D01*
X206934660Y-112238735D01*
X206852472Y-112115732D01*
X206795860Y-111979059D01*
X206767000Y-111833967D01*
X206767000Y-111686033D01*
X206795860Y-111540941D01*
X206852471Y-111404270D01*
X206934659Y-111281267D01*
X206934660Y-111281265D01*
X207039265Y-111176660D01*
X207162268Y-111094472D01*
X207298941Y-111037860D01*
X207444032Y-111009000D01*
X207591968Y-111009000D01*
X207737059Y-111037860D01*
X207737059Y-111037860D01*
G37*
G36*
X153297000Y-111133000D02*
G01*
X150995000Y-111133000D01*
X150995000Y-108831000D01*
X153297000Y-108831000D01*
X153297000Y-111133000D01*
X153297000Y-111133000D01*
G37*
G36*
X146044228Y-109163703D02*
G01*
X146199100Y-109227853D01*
X146338481Y-109320985D01*
X146457015Y-109439519D01*
X146550147Y-109578900D01*
X146614297Y-109733772D01*
X146647000Y-109898184D01*
X146647000Y-110065816D01*
X146614297Y-110230228D01*
X146550147Y-110385100D01*
X146457015Y-110524481D01*
X146338481Y-110643015D01*
X146199100Y-110736147D01*
X146044228Y-110800297D01*
X145879816Y-110833000D01*
X145712184Y-110833000D01*
X145547772Y-110800297D01*
X145392900Y-110736147D01*
X145253519Y-110643015D01*
X145134985Y-110524481D01*
X145041853Y-110385100D01*
X144977703Y-110230228D01*
X144945000Y-110065816D01*
X144945000Y-109898184D01*
X144977703Y-109733772D01*
X145041853Y-109578900D01*
X145134985Y-109439519D01*
X145253519Y-109320985D01*
X145392900Y-109227853D01*
X145547772Y-109163703D01*
X145712184Y-109131000D01*
X145879816Y-109131000D01*
X146044228Y-109163703D01*
X146044228Y-109163703D01*
G37*
G36*
X207737059Y-108751860D02*
G01*
X207873732Y-108808472D01*
X207996735Y-108890660D01*
X208101340Y-108995265D01*
X208101341Y-108995267D01*
X208183529Y-109118270D01*
X208240140Y-109254941D01*
X208269000Y-109400032D01*
X208269000Y-109547968D01*
X208240140Y-109693059D01*
X208223277Y-109733771D01*
X208183528Y-109829732D01*
X208101340Y-109952735D01*
X207996735Y-110057340D01*
X207873732Y-110139528D01*
X207873731Y-110139529D01*
X207873730Y-110139529D01*
X207737059Y-110196140D01*
X207591968Y-110225000D01*
X207444032Y-110225000D01*
X207298941Y-110196140D01*
X207162270Y-110139529D01*
X207162269Y-110139529D01*
X207162268Y-110139528D01*
X207039265Y-110057340D01*
X206934660Y-109952735D01*
X206852472Y-109829732D01*
X206812724Y-109733771D01*
X206795860Y-109693059D01*
X206767000Y-109547968D01*
X206767000Y-109400032D01*
X206795860Y-109254941D01*
X206852471Y-109118270D01*
X206934659Y-108995267D01*
X206934660Y-108995265D01*
X207039265Y-108890660D01*
X207162268Y-108808472D01*
X207298941Y-108751860D01*
X207444032Y-108723000D01*
X207591968Y-108723000D01*
X207737059Y-108751860D01*
X207737059Y-108751860D01*
G37*
G36*
X178164903Y-105817075D02*
G01*
X178392571Y-105911378D01*
X178597466Y-106048285D01*
X178771715Y-106222534D01*
X178908622Y-106427429D01*
X179002925Y-106655097D01*
X179051000Y-106896787D01*
X179051000Y-107143213D01*
X179002925Y-107384903D01*
X178908622Y-107612571D01*
X178771715Y-107817466D01*
X178597466Y-107991715D01*
X178392571Y-108128622D01*
X178392570Y-108128623D01*
X178392569Y-108128623D01*
X178164903Y-108222925D01*
X177923214Y-108271000D01*
X177676786Y-108271000D01*
X177435097Y-108222925D01*
X177207431Y-108128623D01*
X177207430Y-108128623D01*
X177207429Y-108128622D01*
X177002534Y-107991715D01*
X176828285Y-107817466D01*
X176691378Y-107612571D01*
X176597075Y-107384903D01*
X176549000Y-107143213D01*
X176549000Y-106896787D01*
X176597075Y-106655097D01*
X176691378Y-106427429D01*
X176828285Y-106222534D01*
X177002534Y-106048285D01*
X177207429Y-105911378D01*
X177435097Y-105817075D01*
X177676786Y-105769000D01*
X177923214Y-105769000D01*
X178164903Y-105817075D01*
X178164903Y-105817075D01*
G37*
G36*
X195944903Y-105817075D02*
G01*
X196172571Y-105911378D01*
X196377466Y-106048285D01*
X196551715Y-106222534D01*
X196688622Y-106427429D01*
X196782925Y-106655097D01*
X196831000Y-106896787D01*
X196831000Y-107143213D01*
X196782925Y-107384903D01*
X196688622Y-107612571D01*
X196551715Y-107817466D01*
X196377466Y-107991715D01*
X196172571Y-108128622D01*
X196172570Y-108128623D01*
X196172569Y-108128623D01*
X195944903Y-108222925D01*
X195703214Y-108271000D01*
X195456786Y-108271000D01*
X195215097Y-108222925D01*
X194987431Y-108128623D01*
X194987430Y-108128623D01*
X194987429Y-108128622D01*
X194782534Y-107991715D01*
X194608285Y-107817466D01*
X194471378Y-107612571D01*
X194377075Y-107384903D01*
X194329000Y-107143213D01*
X194329000Y-106896787D01*
X194377075Y-106655097D01*
X194471378Y-106427429D01*
X194608285Y-106222534D01*
X194782534Y-106048285D01*
X194987429Y-105911378D01*
X195215097Y-105817075D01*
X195456786Y-105769000D01*
X195703214Y-105769000D01*
X195944903Y-105817075D01*
X195944903Y-105817075D01*
G37*
G36*
X184514903Y-105817075D02*
G01*
X184742571Y-105911378D01*
X184947466Y-106048285D01*
X185121715Y-106222534D01*
X185258622Y-106427429D01*
X185352925Y-106655097D01*
X185401000Y-106896787D01*
X185401000Y-107143213D01*
X185352925Y-107384903D01*
X185258622Y-107612571D01*
X185121715Y-107817466D01*
X184947466Y-107991715D01*
X184742571Y-108128622D01*
X184742570Y-108128623D01*
X184742569Y-108128623D01*
X184514903Y-108222925D01*
X184273214Y-108271000D01*
X184026786Y-108271000D01*
X183785097Y-108222925D01*
X183557431Y-108128623D01*
X183557430Y-108128623D01*
X183557429Y-108128622D01*
X183352534Y-107991715D01*
X183178285Y-107817466D01*
X183041378Y-107612571D01*
X182947075Y-107384903D01*
X182899000Y-107143213D01*
X182899000Y-106896787D01*
X182947075Y-106655097D01*
X183041378Y-106427429D01*
X183178285Y-106222534D01*
X183352534Y-106048285D01*
X183557429Y-105911378D01*
X183785097Y-105817075D01*
X184026786Y-105769000D01*
X184273214Y-105769000D01*
X184514903Y-105817075D01*
X184514903Y-105817075D01*
G37*
G36*
X202294903Y-105817075D02*
G01*
X202522571Y-105911378D01*
X202727466Y-106048285D01*
X202901715Y-106222534D01*
X203038622Y-106427429D01*
X203132925Y-106655097D01*
X203181000Y-106896787D01*
X203181000Y-107143213D01*
X203132925Y-107384903D01*
X203038622Y-107612571D01*
X202901715Y-107817466D01*
X202727466Y-107991715D01*
X202522571Y-108128622D01*
X202522570Y-108128623D01*
X202522569Y-108128623D01*
X202294903Y-108222925D01*
X202053214Y-108271000D01*
X201806786Y-108271000D01*
X201565097Y-108222925D01*
X201337431Y-108128623D01*
X201337430Y-108128623D01*
X201337429Y-108128622D01*
X201132534Y-107991715D01*
X200958285Y-107817466D01*
X200821378Y-107612571D01*
X200727075Y-107384903D01*
X200679000Y-107143213D01*
X200679000Y-106896787D01*
X200727075Y-106655097D01*
X200821378Y-106427429D01*
X200958285Y-106222534D01*
X201132534Y-106048285D01*
X201337429Y-105911378D01*
X201565097Y-105817075D01*
X201806786Y-105769000D01*
X202053214Y-105769000D01*
X202294903Y-105817075D01*
X202294903Y-105817075D01*
G37*
G36*
X128079855Y-102984140D02*
G01*
X128143618Y-102990420D01*
X128234404Y-103017960D01*
X128266336Y-103027646D01*
X128379425Y-103088094D01*
X128478554Y-103169446D01*
X128559906Y-103268575D01*
X128620354Y-103381664D01*
X128620355Y-103381668D01*
X128657580Y-103504382D01*
X128670149Y-103632000D01*
X128657580Y-103759618D01*
X128630040Y-103850404D01*
X128620354Y-103882336D01*
X128559906Y-103995425D01*
X128478554Y-104094554D01*
X128379425Y-104175906D01*
X128266336Y-104236354D01*
X128234404Y-104246040D01*
X128143618Y-104273580D01*
X128079855Y-104279860D01*
X128047974Y-104283000D01*
X127984026Y-104283000D01*
X127952145Y-104279860D01*
X127888382Y-104273580D01*
X127797596Y-104246040D01*
X127765664Y-104236354D01*
X127652575Y-104175906D01*
X127553446Y-104094554D01*
X127472094Y-103995425D01*
X127411646Y-103882336D01*
X127401960Y-103850404D01*
X127374420Y-103759618D01*
X127361851Y-103632000D01*
X127374420Y-103504382D01*
X127411645Y-103381668D01*
X127411646Y-103381664D01*
X127472094Y-103268575D01*
X127553446Y-103169446D01*
X127652575Y-103088094D01*
X127765664Y-103027646D01*
X127797596Y-103017960D01*
X127888382Y-102990420D01*
X127952145Y-102984140D01*
X127984026Y-102981000D01*
X128047974Y-102981000D01*
X128079855Y-102984140D01*
X128079855Y-102984140D01*
G37*
G36*
X207913097Y-100234069D02*
G01*
X208016032Y-100244207D01*
X208214146Y-100304305D01*
X208214149Y-100304306D01*
X208310975Y-100356061D01*
X208396729Y-100401897D01*
X208556765Y-100533235D01*
X208688103Y-100693271D01*
X208706973Y-100728575D01*
X208785694Y-100875851D01*
X208785695Y-100875854D01*
X208845793Y-101073968D01*
X208866085Y-101280000D01*
X208845793Y-101486032D01*
X208785695Y-101684146D01*
X208785694Y-101684149D01*
X208759272Y-101733580D01*
X208688103Y-101866729D01*
X208556765Y-102026765D01*
X208396729Y-102158103D01*
X208310975Y-102203939D01*
X208214149Y-102255694D01*
X208214146Y-102255695D01*
X208016032Y-102315793D01*
X207913097Y-102325931D01*
X207861631Y-102331000D01*
X206158369Y-102331000D01*
X206106903Y-102325931D01*
X206003968Y-102315793D01*
X205805854Y-102255695D01*
X205805851Y-102255694D01*
X205709025Y-102203939D01*
X205623271Y-102158103D01*
X205463235Y-102026765D01*
X205331897Y-101866729D01*
X205260728Y-101733580D01*
X205234306Y-101684149D01*
X205234305Y-101684146D01*
X205174207Y-101486032D01*
X205153915Y-101280000D01*
X205174207Y-101073968D01*
X205234305Y-100875854D01*
X205234306Y-100875851D01*
X205313027Y-100728575D01*
X205331897Y-100693271D01*
X205463235Y-100533235D01*
X205623271Y-100401897D01*
X205709025Y-100356061D01*
X205805851Y-100304306D01*
X205805854Y-100304305D01*
X206003968Y-100244207D01*
X206106903Y-100234069D01*
X206158369Y-100229000D01*
X207861631Y-100229000D01*
X207913097Y-100234069D01*
X207913097Y-100234069D01*
G37*
G36*
X125539855Y-100444140D02*
G01*
X125603618Y-100450420D01*
X125694404Y-100477960D01*
X125726336Y-100487646D01*
X125839425Y-100548094D01*
X125938554Y-100629446D01*
X126019906Y-100728575D01*
X126080354Y-100841664D01*
X126080355Y-100841668D01*
X126117580Y-100964382D01*
X126130149Y-101092000D01*
X126117580Y-101219618D01*
X126099263Y-101280000D01*
X126080354Y-101342336D01*
X126019906Y-101455425D01*
X125938554Y-101554554D01*
X125839425Y-101635906D01*
X125726336Y-101696354D01*
X125694404Y-101706040D01*
X125603618Y-101733580D01*
X125539855Y-101739860D01*
X125507974Y-101743000D01*
X125444026Y-101743000D01*
X125412145Y-101739860D01*
X125348382Y-101733580D01*
X125257596Y-101706040D01*
X125225664Y-101696354D01*
X125112575Y-101635906D01*
X125013446Y-101554554D01*
X124932094Y-101455425D01*
X124871646Y-101342336D01*
X124852737Y-101280000D01*
X124834420Y-101219618D01*
X124821851Y-101092000D01*
X124834420Y-100964382D01*
X124871645Y-100841668D01*
X124871646Y-100841664D01*
X124932094Y-100728575D01*
X125013446Y-100629446D01*
X125112575Y-100548094D01*
X125225664Y-100487646D01*
X125257596Y-100477960D01*
X125348382Y-100450420D01*
X125412145Y-100444140D01*
X125444026Y-100441000D01*
X125507974Y-100441000D01*
X125539855Y-100444140D01*
X125539855Y-100444140D01*
G37*
G36*
X172830443Y-98165519D02*
G01*
X172896627Y-98172037D01*
X173066466Y-98223557D01*
X173066468Y-98223558D01*
X173068013Y-98224384D01*
X173222991Y-98307222D01*
X173238595Y-98320028D01*
X173360186Y-98419814D01*
X173443448Y-98521271D01*
X173472778Y-98557009D01*
X173556443Y-98713534D01*
X173607963Y-98883373D01*
X173625359Y-99060000D01*
X173607963Y-99236627D01*
X173556443Y-99406466D01*
X173472778Y-99562991D01*
X173443448Y-99598729D01*
X173360186Y-99700186D01*
X173258729Y-99783448D01*
X173222991Y-99812778D01*
X173066466Y-99896443D01*
X172896627Y-99947963D01*
X172830443Y-99954481D01*
X172764260Y-99961000D01*
X172675740Y-99961000D01*
X172609557Y-99954481D01*
X172543373Y-99947963D01*
X172373534Y-99896443D01*
X172217009Y-99812778D01*
X172181271Y-99783448D01*
X172079814Y-99700186D01*
X171996552Y-99598729D01*
X171967222Y-99562991D01*
X171883557Y-99406466D01*
X171832037Y-99236627D01*
X171814641Y-99060000D01*
X171832037Y-98883373D01*
X171883557Y-98713534D01*
X171967222Y-98557009D01*
X171996552Y-98521271D01*
X172079814Y-98419814D01*
X172201405Y-98320028D01*
X172217009Y-98307222D01*
X172371987Y-98224384D01*
X172373532Y-98223558D01*
X172373534Y-98223557D01*
X172543373Y-98172037D01*
X172609557Y-98165519D01*
X172675740Y-98159000D01*
X172764260Y-98159000D01*
X172830443Y-98165519D01*
X172830443Y-98165519D01*
G37*
G36*
X128143618Y-97710420D02*
G01*
X128234404Y-97737960D01*
X128266336Y-97747646D01*
X128379425Y-97808094D01*
X128478554Y-97889446D01*
X128559906Y-97988575D01*
X128620354Y-98101664D01*
X128620355Y-98101668D01*
X128657580Y-98224382D01*
X128667000Y-98320028D01*
X128667000Y-98783973D01*
X128657580Y-98879618D01*
X128656440Y-98883375D01*
X128620354Y-99002336D01*
X128559906Y-99115425D01*
X128478554Y-99214553D01*
X128379424Y-99295906D01*
X128266335Y-99356354D01*
X128234403Y-99366040D01*
X128143617Y-99393580D01*
X128016000Y-99406149D01*
X127888382Y-99393580D01*
X127797596Y-99366040D01*
X127765664Y-99356354D01*
X127652575Y-99295906D01*
X127553447Y-99214554D01*
X127472094Y-99115424D01*
X127411646Y-99002335D01*
X127401960Y-98970403D01*
X127374420Y-98879617D01*
X127365000Y-98783972D01*
X127365000Y-98320027D01*
X127374420Y-98224382D01*
X127411645Y-98101668D01*
X127411646Y-98101664D01*
X127472094Y-97988575D01*
X127553447Y-97889447D01*
X127652576Y-97808094D01*
X127765665Y-97747646D01*
X127797597Y-97737960D01*
X127888383Y-97710420D01*
X128016000Y-97697851D01*
X128143618Y-97710420D01*
X128143618Y-97710420D01*
G37*
G36*
X191199487Y-95268996D02*
G01*
X191436253Y-95367068D01*
X191436255Y-95367069D01*
X191649339Y-95509447D01*
X191836263Y-95696371D01*
X191841612Y-95702889D01*
X191860554Y-95718434D01*
X191882165Y-95729985D01*
X191905614Y-95737098D01*
X191930000Y-95739500D01*
X191954386Y-95737098D01*
X191977835Y-95729985D01*
X191999446Y-95718434D01*
X192018388Y-95702889D01*
X192023737Y-95696371D01*
X192210661Y-95509447D01*
X192423745Y-95367069D01*
X192423747Y-95367068D01*
X192660513Y-95268996D01*
X192911861Y-95219000D01*
X193168139Y-95219000D01*
X193419487Y-95268996D01*
X193656253Y-95367068D01*
X193656255Y-95367069D01*
X193869339Y-95509447D01*
X194050553Y-95690661D01*
X194176942Y-95879815D01*
X194192932Y-95903747D01*
X194291004Y-96140513D01*
X194341000Y-96391861D01*
X194341000Y-96648139D01*
X194291004Y-96899487D01*
X194203467Y-97110819D01*
X194192931Y-97136255D01*
X194050553Y-97349339D01*
X193869339Y-97530553D01*
X193656255Y-97672931D01*
X193656254Y-97672932D01*
X193656253Y-97672932D01*
X193419487Y-97771004D01*
X193168139Y-97821000D01*
X192911861Y-97821000D01*
X192660513Y-97771004D01*
X192423747Y-97672932D01*
X192423746Y-97672932D01*
X192423745Y-97672931D01*
X192210661Y-97530553D01*
X192023737Y-97343629D01*
X192018388Y-97337111D01*
X191999446Y-97321566D01*
X191977835Y-97310015D01*
X191954386Y-97302902D01*
X191930000Y-97300500D01*
X191905614Y-97302902D01*
X191882165Y-97310015D01*
X191860554Y-97321566D01*
X191841612Y-97337111D01*
X191836263Y-97343629D01*
X191649339Y-97530553D01*
X191436255Y-97672931D01*
X191436254Y-97672932D01*
X191436253Y-97672932D01*
X191199487Y-97771004D01*
X190948139Y-97821000D01*
X190691861Y-97821000D01*
X190440513Y-97771004D01*
X190203747Y-97672932D01*
X190203746Y-97672932D01*
X190203745Y-97672931D01*
X189990661Y-97530553D01*
X189809447Y-97349339D01*
X189667069Y-97136255D01*
X189656533Y-97110819D01*
X189568996Y-96899487D01*
X189519000Y-96648139D01*
X189519000Y-96391861D01*
X189568996Y-96140513D01*
X189667068Y-95903747D01*
X189683059Y-95879815D01*
X189809447Y-95690661D01*
X189990661Y-95509447D01*
X190203745Y-95367069D01*
X190203747Y-95367068D01*
X190440513Y-95268996D01*
X190691861Y-95219000D01*
X190948139Y-95219000D01*
X191199487Y-95268996D01*
X191199487Y-95268996D01*
G37*
G36*
X180719487Y-95268996D02*
G01*
X180956253Y-95367068D01*
X180956255Y-95367069D01*
X181169339Y-95509447D01*
X181350553Y-95690661D01*
X181492932Y-95903746D01*
X181494516Y-95907571D01*
X181506067Y-95929181D01*
X181521612Y-95948123D01*
X181540554Y-95963669D01*
X181562165Y-95975220D01*
X181585614Y-95982333D01*
X181610000Y-95984735D01*
X181634386Y-95982333D01*
X181657835Y-95975220D01*
X181679445Y-95963669D01*
X181698387Y-95948124D01*
X181713933Y-95929182D01*
X181725484Y-95907571D01*
X181727068Y-95903746D01*
X181869447Y-95690661D01*
X182050661Y-95509447D01*
X182263745Y-95367069D01*
X182263747Y-95367068D01*
X182500513Y-95268996D01*
X182751861Y-95219000D01*
X183008139Y-95219000D01*
X183259487Y-95268996D01*
X183496253Y-95367068D01*
X183496255Y-95367069D01*
X183709339Y-95509447D01*
X183890553Y-95690661D01*
X184016942Y-95879815D01*
X184032932Y-95903747D01*
X184131004Y-96140513D01*
X184181000Y-96391861D01*
X184181000Y-96648139D01*
X184131004Y-96899487D01*
X184043467Y-97110819D01*
X184032931Y-97136255D01*
X183890553Y-97349339D01*
X183709339Y-97530553D01*
X183496255Y-97672931D01*
X183496254Y-97672932D01*
X183496253Y-97672932D01*
X183259487Y-97771004D01*
X183008139Y-97821000D01*
X182751861Y-97821000D01*
X182500513Y-97771004D01*
X182263747Y-97672932D01*
X182263746Y-97672932D01*
X182263745Y-97672931D01*
X182050661Y-97530553D01*
X181869447Y-97349339D01*
X181835342Y-97298297D01*
X181727068Y-97136254D01*
X181725484Y-97132429D01*
X181713933Y-97110819D01*
X181698388Y-97091877D01*
X181679446Y-97076331D01*
X181657835Y-97064780D01*
X181634386Y-97057667D01*
X181610000Y-97055265D01*
X181585614Y-97057667D01*
X181562165Y-97064780D01*
X181540555Y-97076331D01*
X181521613Y-97091876D01*
X181506067Y-97110818D01*
X181494516Y-97132429D01*
X181492932Y-97136254D01*
X181384658Y-97298297D01*
X181350553Y-97349339D01*
X181169339Y-97530553D01*
X180956255Y-97672931D01*
X180956254Y-97672932D01*
X180956253Y-97672932D01*
X180719487Y-97771004D01*
X180468139Y-97821000D01*
X180211861Y-97821000D01*
X179960513Y-97771004D01*
X179723747Y-97672932D01*
X179723746Y-97672932D01*
X179723745Y-97672931D01*
X179510661Y-97530553D01*
X179329447Y-97349339D01*
X179187069Y-97136255D01*
X179176533Y-97110819D01*
X179088996Y-96899487D01*
X179039000Y-96648139D01*
X179039000Y-96391861D01*
X179088996Y-96140513D01*
X179187068Y-95903747D01*
X179203059Y-95879815D01*
X179329447Y-95690661D01*
X179510661Y-95509447D01*
X179723745Y-95367069D01*
X179723747Y-95367068D01*
X179960513Y-95268996D01*
X180211861Y-95219000D01*
X180468139Y-95219000D01*
X180719487Y-95268996D01*
X180719487Y-95268996D01*
G37*
G36*
X172830442Y-95625518D02*
G01*
X172896627Y-95632037D01*
X173066466Y-95683557D01*
X173066468Y-95683558D01*
X173084641Y-95693272D01*
X173222991Y-95767222D01*
X173258729Y-95796552D01*
X173360186Y-95879814D01*
X173443448Y-95981271D01*
X173472778Y-96017009D01*
X173556443Y-96173534D01*
X173607963Y-96343373D01*
X173625359Y-96520000D01*
X173607963Y-96696627D01*
X173556443Y-96866466D01*
X173556442Y-96866468D01*
X173547552Y-96883100D01*
X173472778Y-97022991D01*
X173446291Y-97055265D01*
X173360186Y-97160186D01*
X173258729Y-97243448D01*
X173222991Y-97272778D01*
X173066466Y-97356443D01*
X172896627Y-97407963D01*
X172830442Y-97414482D01*
X172764260Y-97421000D01*
X172675740Y-97421000D01*
X172609558Y-97414482D01*
X172543373Y-97407963D01*
X172373534Y-97356443D01*
X172217009Y-97272778D01*
X172181271Y-97243448D01*
X172079814Y-97160186D01*
X171993709Y-97055265D01*
X171967222Y-97022991D01*
X171892448Y-96883100D01*
X171883558Y-96866468D01*
X171883557Y-96866466D01*
X171832037Y-96696627D01*
X171814641Y-96520000D01*
X171832037Y-96343373D01*
X171883557Y-96173534D01*
X171967222Y-96017009D01*
X171996552Y-95981271D01*
X172079814Y-95879814D01*
X172181271Y-95796552D01*
X172217009Y-95767222D01*
X172355359Y-95693272D01*
X172373532Y-95683558D01*
X172373534Y-95683557D01*
X172543373Y-95632037D01*
X172609558Y-95625518D01*
X172675740Y-95619000D01*
X172764260Y-95619000D01*
X172830442Y-95625518D01*
X172830442Y-95625518D01*
G37*
G36*
X207913097Y-95234069D02*
G01*
X208016032Y-95244207D01*
X208214146Y-95304305D01*
X208214149Y-95304306D01*
X208310975Y-95356061D01*
X208396729Y-95401897D01*
X208556765Y-95533235D01*
X208688103Y-95693271D01*
X208705518Y-95725853D01*
X208785694Y-95875851D01*
X208785695Y-95875854D01*
X208845793Y-96073968D01*
X208866085Y-96280000D01*
X208845793Y-96486032D01*
X208822197Y-96563815D01*
X208785694Y-96684149D01*
X208733939Y-96780975D01*
X208688103Y-96866729D01*
X208556765Y-97026765D01*
X208396729Y-97158103D01*
X208310975Y-97203939D01*
X208214149Y-97255694D01*
X208214146Y-97255695D01*
X208016032Y-97315793D01*
X207913097Y-97325931D01*
X207861631Y-97331000D01*
X206158369Y-97331000D01*
X206106903Y-97325931D01*
X206003968Y-97315793D01*
X205805854Y-97255695D01*
X205805851Y-97255694D01*
X205709025Y-97203939D01*
X205623271Y-97158103D01*
X205463235Y-97026765D01*
X205331897Y-96866729D01*
X205286061Y-96780975D01*
X205234306Y-96684149D01*
X205197803Y-96563815D01*
X205174207Y-96486032D01*
X205153915Y-96280000D01*
X205174207Y-96073968D01*
X205234305Y-95875854D01*
X205234306Y-95875851D01*
X205314482Y-95725853D01*
X205331897Y-95693271D01*
X205463235Y-95533235D01*
X205623271Y-95401897D01*
X205709025Y-95356061D01*
X205805851Y-95304306D01*
X205805854Y-95304305D01*
X206003968Y-95244207D01*
X206106903Y-95234069D01*
X206158369Y-95229000D01*
X207861631Y-95229000D01*
X207913097Y-95234069D01*
X207913097Y-95234069D01*
G37*
G36*
X157728228Y-95661703D02*
G01*
X157883100Y-95725853D01*
X158022481Y-95818985D01*
X158141015Y-95937519D01*
X158234147Y-96076900D01*
X158298297Y-96231772D01*
X158331000Y-96396184D01*
X158331000Y-96563816D01*
X158298297Y-96728228D01*
X158234147Y-96883100D01*
X158141015Y-97022481D01*
X158022481Y-97141015D01*
X157883100Y-97234147D01*
X157728228Y-97298297D01*
X157563816Y-97331000D01*
X157396184Y-97331000D01*
X157231772Y-97298297D01*
X157076900Y-97234147D01*
X156937519Y-97141015D01*
X156818985Y-97022481D01*
X156725853Y-96883100D01*
X156661703Y-96728228D01*
X156629000Y-96563816D01*
X156629000Y-96396184D01*
X156661703Y-96231772D01*
X156725853Y-96076900D01*
X156818985Y-95937519D01*
X156937519Y-95818985D01*
X157076900Y-95725853D01*
X157231772Y-95661703D01*
X157396184Y-95629000D01*
X157563816Y-95629000D01*
X157728228Y-95661703D01*
X157728228Y-95661703D01*
G37*
G36*
X172830443Y-93085519D02*
G01*
X172896627Y-93092037D01*
X173066466Y-93143557D01*
X173222991Y-93227222D01*
X173258729Y-93256552D01*
X173360186Y-93339814D01*
X173443448Y-93441271D01*
X173472778Y-93477009D01*
X173556443Y-93633534D01*
X173607963Y-93803373D01*
X173625359Y-93980000D01*
X173607963Y-94156627D01*
X173556443Y-94326466D01*
X173472778Y-94482991D01*
X173443448Y-94518729D01*
X173360186Y-94620186D01*
X173258729Y-94703448D01*
X173222991Y-94732778D01*
X173066466Y-94816443D01*
X172896627Y-94867963D01*
X172830443Y-94874481D01*
X172764260Y-94881000D01*
X172675740Y-94881000D01*
X172609557Y-94874481D01*
X172543373Y-94867963D01*
X172373534Y-94816443D01*
X172217009Y-94732778D01*
X172181271Y-94703448D01*
X172079814Y-94620186D01*
X171996552Y-94518729D01*
X171967222Y-94482991D01*
X171883557Y-94326466D01*
X171832037Y-94156627D01*
X171814641Y-93980000D01*
X171832037Y-93803373D01*
X171883557Y-93633534D01*
X171967222Y-93477009D01*
X171996552Y-93441271D01*
X172079814Y-93339814D01*
X172181271Y-93256552D01*
X172217009Y-93227222D01*
X172373534Y-93143557D01*
X172543373Y-93092037D01*
X172609557Y-93085519D01*
X172675740Y-93079000D01*
X172764260Y-93079000D01*
X172830443Y-93085519D01*
X172830443Y-93085519D01*
G37*
G36*
X158331000Y-94831000D02*
G01*
X156629000Y-94831000D01*
X156629000Y-93129000D01*
X158331000Y-93129000D01*
X158331000Y-94831000D01*
X158331000Y-94831000D01*
G37*
G36*
X172830443Y-90545519D02*
G01*
X172896627Y-90552037D01*
X173066466Y-90603557D01*
X173222991Y-90687222D01*
X173258729Y-90716552D01*
X173360186Y-90799814D01*
X173422587Y-90875851D01*
X173472778Y-90937009D01*
X173556443Y-91093534D01*
X173607963Y-91263373D01*
X173625359Y-91440000D01*
X173607963Y-91616627D01*
X173556443Y-91786466D01*
X173472778Y-91942991D01*
X173443448Y-91978729D01*
X173360186Y-92080186D01*
X173265242Y-92158103D01*
X173222991Y-92192778D01*
X173222989Y-92192779D01*
X173105283Y-92255695D01*
X173066466Y-92276443D01*
X172896627Y-92327963D01*
X172830443Y-92334481D01*
X172764260Y-92341000D01*
X172675740Y-92341000D01*
X172609557Y-92334481D01*
X172543373Y-92327963D01*
X172373534Y-92276443D01*
X172334718Y-92255695D01*
X172217011Y-92192779D01*
X172217009Y-92192778D01*
X172174758Y-92158103D01*
X172079814Y-92080186D01*
X171996552Y-91978729D01*
X171967222Y-91942991D01*
X171883557Y-91786466D01*
X171832037Y-91616627D01*
X171814641Y-91440000D01*
X171832037Y-91263373D01*
X171883557Y-91093534D01*
X171967222Y-90937009D01*
X172017413Y-90875851D01*
X172079814Y-90799814D01*
X172181271Y-90716552D01*
X172217009Y-90687222D01*
X172373534Y-90603557D01*
X172543373Y-90552037D01*
X172609558Y-90545518D01*
X172675740Y-90539000D01*
X172764260Y-90539000D01*
X172830443Y-90545519D01*
X172830443Y-90545519D01*
G37*
G36*
X107581000Y-92341000D02*
G01*
X105779000Y-92341000D01*
X105779000Y-90539000D01*
X107581000Y-90539000D01*
X107581000Y-92341000D01*
X107581000Y-92341000D01*
G37*
G36*
X207913097Y-90234069D02*
G01*
X208016032Y-90244207D01*
X208214146Y-90304305D01*
X208214149Y-90304306D01*
X208310975Y-90356061D01*
X208396729Y-90401897D01*
X208556765Y-90533235D01*
X208688103Y-90693271D01*
X208733939Y-90779025D01*
X208785694Y-90875851D01*
X208785695Y-90875854D01*
X208845793Y-91073968D01*
X208866085Y-91280000D01*
X208845793Y-91486032D01*
X208806177Y-91616627D01*
X208785694Y-91684149D01*
X208733939Y-91780975D01*
X208688103Y-91866729D01*
X208556765Y-92026765D01*
X208396729Y-92158103D01*
X208331856Y-92192778D01*
X208214149Y-92255694D01*
X208214146Y-92255695D01*
X208016032Y-92315793D01*
X207913097Y-92325931D01*
X207861631Y-92331000D01*
X206158369Y-92331000D01*
X206106903Y-92325931D01*
X206003968Y-92315793D01*
X205805854Y-92255695D01*
X205805851Y-92255694D01*
X205688144Y-92192778D01*
X205623271Y-92158103D01*
X205463235Y-92026765D01*
X205331897Y-91866729D01*
X205286061Y-91780975D01*
X205234306Y-91684149D01*
X205213823Y-91616627D01*
X205174207Y-91486032D01*
X205153915Y-91280000D01*
X205174207Y-91073968D01*
X205234305Y-90875854D01*
X205234306Y-90875851D01*
X205286061Y-90779025D01*
X205331897Y-90693271D01*
X205463235Y-90533235D01*
X205623271Y-90401897D01*
X205709025Y-90356061D01*
X205805851Y-90304306D01*
X205805854Y-90304305D01*
X206003968Y-90244207D01*
X206106903Y-90234069D01*
X206158369Y-90229000D01*
X207861631Y-90229000D01*
X207913097Y-90234069D01*
X207913097Y-90234069D01*
G37*
G36*
X172830443Y-88005519D02*
G01*
X172896627Y-88012037D01*
X173066466Y-88063557D01*
X173222991Y-88147222D01*
X173258729Y-88176552D01*
X173360186Y-88259814D01*
X173443448Y-88361271D01*
X173472778Y-88397009D01*
X173556443Y-88553534D01*
X173607963Y-88723373D01*
X173625359Y-88900000D01*
X173607963Y-89076627D01*
X173556443Y-89246466D01*
X173472778Y-89402991D01*
X173443448Y-89438729D01*
X173360186Y-89540186D01*
X173258729Y-89623448D01*
X173222991Y-89652778D01*
X173066466Y-89736443D01*
X172896627Y-89787963D01*
X172830443Y-89794481D01*
X172764260Y-89801000D01*
X172675740Y-89801000D01*
X172609557Y-89794481D01*
X172543373Y-89787963D01*
X172373534Y-89736443D01*
X172217009Y-89652778D01*
X172181271Y-89623448D01*
X172079814Y-89540186D01*
X171996552Y-89438729D01*
X171967222Y-89402991D01*
X171883557Y-89246466D01*
X171832037Y-89076627D01*
X171814641Y-88900000D01*
X171832037Y-88723373D01*
X171883557Y-88553534D01*
X171967222Y-88397009D01*
X171996552Y-88361271D01*
X172079814Y-88259814D01*
X172181271Y-88176552D01*
X172217009Y-88147222D01*
X172373534Y-88063557D01*
X172543373Y-88012037D01*
X172609557Y-88005519D01*
X172675740Y-87999000D01*
X172764260Y-87999000D01*
X172830443Y-88005519D01*
X172830443Y-88005519D01*
G37*
G36*
X106790443Y-88005519D02*
G01*
X106856627Y-88012037D01*
X107026466Y-88063557D01*
X107182991Y-88147222D01*
X107218729Y-88176552D01*
X107320186Y-88259814D01*
X107403448Y-88361271D01*
X107432778Y-88397009D01*
X107516443Y-88553534D01*
X107567963Y-88723373D01*
X107585359Y-88900000D01*
X107567963Y-89076627D01*
X107516443Y-89246466D01*
X107432778Y-89402991D01*
X107403448Y-89438729D01*
X107320186Y-89540186D01*
X107218729Y-89623448D01*
X107182991Y-89652778D01*
X107026466Y-89736443D01*
X106856627Y-89787963D01*
X106790443Y-89794481D01*
X106724260Y-89801000D01*
X106635740Y-89801000D01*
X106569557Y-89794481D01*
X106503373Y-89787963D01*
X106333534Y-89736443D01*
X106177009Y-89652778D01*
X106141271Y-89623448D01*
X106039814Y-89540186D01*
X105956552Y-89438729D01*
X105927222Y-89402991D01*
X105843557Y-89246466D01*
X105792037Y-89076627D01*
X105774641Y-88900000D01*
X105792037Y-88723373D01*
X105843557Y-88553534D01*
X105927222Y-88397009D01*
X105956552Y-88361271D01*
X106039814Y-88259814D01*
X106141271Y-88176552D01*
X106177009Y-88147222D01*
X106333534Y-88063557D01*
X106503373Y-88012037D01*
X106569557Y-88005519D01*
X106635740Y-87999000D01*
X106724260Y-87999000D01*
X106790443Y-88005519D01*
X106790443Y-88005519D01*
G37*
G36*
X207913097Y-85234069D02*
G01*
X208016032Y-85244207D01*
X208214146Y-85304305D01*
X208214149Y-85304306D01*
X208310975Y-85356061D01*
X208396729Y-85401897D01*
X208556765Y-85533235D01*
X208688103Y-85693271D01*
X208702290Y-85719814D01*
X208785694Y-85875851D01*
X208785695Y-85875854D01*
X208845793Y-86073968D01*
X208866085Y-86280000D01*
X208845793Y-86486032D01*
X208830445Y-86536627D01*
X208785694Y-86684149D01*
X208773765Y-86706466D01*
X208688103Y-86866729D01*
X208556765Y-87026765D01*
X208396729Y-87158103D01*
X208325001Y-87196442D01*
X208214149Y-87255694D01*
X208214146Y-87255695D01*
X208016032Y-87315793D01*
X207913097Y-87325931D01*
X207861631Y-87331000D01*
X206158369Y-87331000D01*
X206106903Y-87325931D01*
X206003968Y-87315793D01*
X205805854Y-87255695D01*
X205805851Y-87255694D01*
X205694999Y-87196442D01*
X205623271Y-87158103D01*
X205463235Y-87026765D01*
X205331897Y-86866729D01*
X205246235Y-86706466D01*
X205234306Y-86684149D01*
X205189555Y-86536627D01*
X205174207Y-86486032D01*
X205153915Y-86280000D01*
X205174207Y-86073968D01*
X205234305Y-85875854D01*
X205234306Y-85875851D01*
X205317710Y-85719814D01*
X205331897Y-85693271D01*
X205463235Y-85533235D01*
X205623271Y-85401897D01*
X205709025Y-85356061D01*
X205805851Y-85304306D01*
X205805854Y-85304305D01*
X206003968Y-85244207D01*
X206106903Y-85234069D01*
X206158369Y-85229000D01*
X207861631Y-85229000D01*
X207913097Y-85234069D01*
X207913097Y-85234069D01*
G37*
G36*
X106790442Y-85465518D02*
G01*
X106856627Y-85472037D01*
X107026466Y-85523557D01*
X107182991Y-85607222D01*
X107218729Y-85636552D01*
X107320186Y-85719814D01*
X107403448Y-85821271D01*
X107432778Y-85857009D01*
X107516443Y-86013534D01*
X107567963Y-86183373D01*
X107585359Y-86360000D01*
X107567963Y-86536627D01*
X107516443Y-86706466D01*
X107432778Y-86862991D01*
X107429711Y-86866728D01*
X107320186Y-87000186D01*
X107218729Y-87083448D01*
X107182991Y-87112778D01*
X107026466Y-87196443D01*
X106856627Y-87247963D01*
X106790442Y-87254482D01*
X106724260Y-87261000D01*
X106635740Y-87261000D01*
X106569558Y-87254482D01*
X106503373Y-87247963D01*
X106333534Y-87196443D01*
X106177009Y-87112778D01*
X106141271Y-87083448D01*
X106039814Y-87000186D01*
X105930289Y-86866728D01*
X105927222Y-86862991D01*
X105843557Y-86706466D01*
X105792037Y-86536627D01*
X105774641Y-86360000D01*
X105792037Y-86183373D01*
X105843557Y-86013534D01*
X105927222Y-85857009D01*
X105956552Y-85821271D01*
X106039814Y-85719814D01*
X106141271Y-85636552D01*
X106177009Y-85607222D01*
X106333534Y-85523557D01*
X106503373Y-85472037D01*
X106569558Y-85465518D01*
X106635740Y-85459000D01*
X106724260Y-85459000D01*
X106790442Y-85465518D01*
X106790442Y-85465518D01*
G37*
G36*
X172830442Y-85465518D02*
G01*
X172896627Y-85472037D01*
X173066466Y-85523557D01*
X173222991Y-85607222D01*
X173258729Y-85636552D01*
X173360186Y-85719814D01*
X173443448Y-85821271D01*
X173472778Y-85857009D01*
X173556443Y-86013534D01*
X173607963Y-86183373D01*
X173625359Y-86360000D01*
X173607963Y-86536627D01*
X173556443Y-86706466D01*
X173472778Y-86862991D01*
X173469711Y-86866728D01*
X173360186Y-87000186D01*
X173258729Y-87083448D01*
X173222991Y-87112778D01*
X173066466Y-87196443D01*
X172896627Y-87247963D01*
X172830442Y-87254482D01*
X172764260Y-87261000D01*
X172675740Y-87261000D01*
X172609558Y-87254482D01*
X172543373Y-87247963D01*
X172373534Y-87196443D01*
X172217009Y-87112778D01*
X172181271Y-87083448D01*
X172079814Y-87000186D01*
X171970289Y-86866728D01*
X171967222Y-86862991D01*
X171883557Y-86706466D01*
X171832037Y-86536627D01*
X171814641Y-86360000D01*
X171832037Y-86183373D01*
X171883557Y-86013534D01*
X171967222Y-85857009D01*
X171996552Y-85821271D01*
X172079814Y-85719814D01*
X172181271Y-85636552D01*
X172217009Y-85607222D01*
X172373534Y-85523557D01*
X172543373Y-85472037D01*
X172609558Y-85465518D01*
X172675740Y-85459000D01*
X172764260Y-85459000D01*
X172830442Y-85465518D01*
X172830442Y-85465518D01*
G37*
G36*
X106790443Y-82925519D02*
G01*
X106856627Y-82932037D01*
X107026466Y-82983557D01*
X107182991Y-83067222D01*
X107218729Y-83096552D01*
X107320186Y-83179814D01*
X107403448Y-83281271D01*
X107432778Y-83317009D01*
X107516443Y-83473534D01*
X107567963Y-83643373D01*
X107585359Y-83820000D01*
X107567963Y-83996627D01*
X107516443Y-84166466D01*
X107432778Y-84322991D01*
X107403448Y-84358729D01*
X107320186Y-84460186D01*
X107218729Y-84543448D01*
X107182991Y-84572778D01*
X107026466Y-84656443D01*
X106856627Y-84707963D01*
X106790443Y-84714481D01*
X106724260Y-84721000D01*
X106635740Y-84721000D01*
X106569557Y-84714481D01*
X106503373Y-84707963D01*
X106333534Y-84656443D01*
X106177009Y-84572778D01*
X106141271Y-84543448D01*
X106039814Y-84460186D01*
X105956552Y-84358729D01*
X105927222Y-84322991D01*
X105843557Y-84166466D01*
X105792037Y-83996627D01*
X105774641Y-83820000D01*
X105792037Y-83643373D01*
X105843557Y-83473534D01*
X105927222Y-83317009D01*
X105956552Y-83281271D01*
X106039814Y-83179814D01*
X106141271Y-83096552D01*
X106177009Y-83067222D01*
X106333534Y-82983557D01*
X106503373Y-82932037D01*
X106569557Y-82925519D01*
X106635740Y-82919000D01*
X106724260Y-82919000D01*
X106790443Y-82925519D01*
X106790443Y-82925519D01*
G37*
G36*
X176442823Y-80949313D02*
G01*
X176603242Y-80997976D01*
X176670361Y-81033852D01*
X176751078Y-81076996D01*
X176880659Y-81183341D01*
X176987004Y-81312922D01*
X176987005Y-81312924D01*
X177066024Y-81460758D01*
X177114687Y-81621177D01*
X177131117Y-81788000D01*
X177114687Y-81954823D01*
X177066024Y-82115242D01*
X177025477Y-82191100D01*
X176987004Y-82263078D01*
X176880659Y-82392659D01*
X176751078Y-82499004D01*
X176751076Y-82499005D01*
X176603242Y-82578024D01*
X176442823Y-82626687D01*
X176317804Y-82639000D01*
X176234196Y-82639000D01*
X176109177Y-82626687D01*
X175948758Y-82578024D01*
X175800924Y-82499005D01*
X175800922Y-82499004D01*
X175671341Y-82392659D01*
X175564996Y-82263078D01*
X175526523Y-82191100D01*
X175485976Y-82115242D01*
X175437313Y-81954823D01*
X175420883Y-81788000D01*
X175437313Y-81621177D01*
X175485976Y-81460758D01*
X175564995Y-81312924D01*
X175564996Y-81312922D01*
X175671341Y-81183341D01*
X175800922Y-81076996D01*
X175881639Y-81033852D01*
X175948758Y-80997976D01*
X176109177Y-80949313D01*
X176234196Y-80937000D01*
X176317804Y-80937000D01*
X176442823Y-80949313D01*
X176442823Y-80949313D01*
G37*
G36*
X166364228Y-80969703D02*
G01*
X166519100Y-81033853D01*
X166658481Y-81126985D01*
X166777015Y-81245519D01*
X166870147Y-81384900D01*
X166934297Y-81539772D01*
X166967000Y-81704184D01*
X166967000Y-81871816D01*
X166934297Y-82036228D01*
X166870147Y-82191100D01*
X166777015Y-82330481D01*
X166658481Y-82449015D01*
X166519100Y-82542147D01*
X166364228Y-82606297D01*
X166199816Y-82639000D01*
X166032184Y-82639000D01*
X165867772Y-82606297D01*
X165712900Y-82542147D01*
X165573519Y-82449015D01*
X165454985Y-82330481D01*
X165361853Y-82191100D01*
X165297703Y-82036228D01*
X165265000Y-81871816D01*
X165265000Y-81704184D01*
X165297703Y-81539772D01*
X165361853Y-81384900D01*
X165454985Y-81245519D01*
X165573519Y-81126985D01*
X165712900Y-81033853D01*
X165867772Y-80969703D01*
X166032184Y-80937000D01*
X166199816Y-80937000D01*
X166364228Y-80969703D01*
X166364228Y-80969703D01*
G37*
G36*
X207913097Y-80234069D02*
G01*
X208016032Y-80244207D01*
X208214146Y-80304305D01*
X208214149Y-80304306D01*
X208310975Y-80356061D01*
X208396729Y-80401897D01*
X208556765Y-80533235D01*
X208688103Y-80693271D01*
X208732862Y-80777009D01*
X208785694Y-80875851D01*
X208785695Y-80875854D01*
X208845793Y-81073968D01*
X208866085Y-81280000D01*
X208845793Y-81486032D01*
X208785695Y-81684146D01*
X208785694Y-81684149D01*
X208774985Y-81704184D01*
X208688103Y-81866729D01*
X208556765Y-82026765D01*
X208396729Y-82158103D01*
X208310975Y-82203939D01*
X208214149Y-82255694D01*
X208214146Y-82255695D01*
X208016032Y-82315793D01*
X207913097Y-82325931D01*
X207861631Y-82331000D01*
X206158369Y-82331000D01*
X206106903Y-82325931D01*
X206003968Y-82315793D01*
X205805854Y-82255695D01*
X205805851Y-82255694D01*
X205709025Y-82203939D01*
X205623271Y-82158103D01*
X205463235Y-82026765D01*
X205331897Y-81866729D01*
X205245015Y-81704184D01*
X205234306Y-81684149D01*
X205234305Y-81684146D01*
X205174207Y-81486032D01*
X205153915Y-81280000D01*
X205174207Y-81073968D01*
X205234305Y-80875854D01*
X205234306Y-80875851D01*
X205287138Y-80777009D01*
X205331897Y-80693271D01*
X205463235Y-80533235D01*
X205623271Y-80401897D01*
X205709025Y-80356061D01*
X205805851Y-80304306D01*
X205805854Y-80304305D01*
X206003968Y-80244207D01*
X206106903Y-80234069D01*
X206158369Y-80229000D01*
X207861631Y-80229000D01*
X207913097Y-80234069D01*
X207913097Y-80234069D01*
G37*
G36*
X106790442Y-80385518D02*
G01*
X106856627Y-80392037D01*
X107026466Y-80443557D01*
X107182991Y-80527222D01*
X107218729Y-80556552D01*
X107320186Y-80639814D01*
X107403448Y-80741271D01*
X107432778Y-80777009D01*
X107516443Y-80933534D01*
X107567963Y-81103373D01*
X107585359Y-81280000D01*
X107567963Y-81456627D01*
X107516443Y-81626466D01*
X107432778Y-81782991D01*
X107428667Y-81788000D01*
X107320186Y-81920186D01*
X107218729Y-82003448D01*
X107182991Y-82032778D01*
X107026466Y-82116443D01*
X106856627Y-82167963D01*
X106790443Y-82174481D01*
X106724260Y-82181000D01*
X106635740Y-82181000D01*
X106569557Y-82174481D01*
X106503373Y-82167963D01*
X106333534Y-82116443D01*
X106177009Y-82032778D01*
X106141271Y-82003448D01*
X106039814Y-81920186D01*
X105931333Y-81788000D01*
X105927222Y-81782991D01*
X105843557Y-81626466D01*
X105792037Y-81456627D01*
X105774641Y-81280000D01*
X105792037Y-81103373D01*
X105843557Y-80933534D01*
X105927222Y-80777009D01*
X105956552Y-80741271D01*
X106039814Y-80639814D01*
X106141271Y-80556552D01*
X106177009Y-80527222D01*
X106333534Y-80443557D01*
X106503373Y-80392037D01*
X106569558Y-80385518D01*
X106635740Y-80379000D01*
X106724260Y-80379000D01*
X106790442Y-80385518D01*
X106790442Y-80385518D01*
G37*
G36*
X180719487Y-77488996D02*
G01*
X180956253Y-77587068D01*
X180956255Y-77587069D01*
X181111913Y-77691076D01*
X181169339Y-77729447D01*
X181351175Y-77911283D01*
X181365613Y-77928876D01*
X181384555Y-77944422D01*
X181406166Y-77955973D01*
X181429614Y-77963086D01*
X181454001Y-77965488D01*
X181478387Y-77963086D01*
X181501836Y-77955973D01*
X181523446Y-77944422D01*
X181542388Y-77928877D01*
X181557934Y-77909935D01*
X181569485Y-77888324D01*
X181576598Y-77864876D01*
X181579000Y-77840489D01*
X181579000Y-77439000D01*
X184181000Y-77439000D01*
X184181000Y-80041000D01*
X181579000Y-80041000D01*
X181579000Y-79639511D01*
X181576598Y-79615125D01*
X181569485Y-79591676D01*
X181557934Y-79570065D01*
X181542389Y-79551123D01*
X181523447Y-79535578D01*
X181501836Y-79524027D01*
X181478387Y-79516914D01*
X181454001Y-79514512D01*
X181429615Y-79516914D01*
X181406166Y-79524027D01*
X181384555Y-79535578D01*
X181365613Y-79551123D01*
X181351175Y-79568717D01*
X181169339Y-79750553D01*
X180956255Y-79892931D01*
X180956254Y-79892932D01*
X180956253Y-79892932D01*
X180719487Y-79991004D01*
X180468139Y-80041000D01*
X180211861Y-80041000D01*
X179960513Y-79991004D01*
X179723747Y-79892932D01*
X179723746Y-79892932D01*
X179723745Y-79892931D01*
X179510661Y-79750553D01*
X179329447Y-79569339D01*
X179187069Y-79356255D01*
X179187068Y-79356253D01*
X179088996Y-79119487D01*
X179039000Y-78868139D01*
X179039000Y-78611861D01*
X179088996Y-78360513D01*
X179187068Y-78123747D01*
X179203059Y-78099815D01*
X179329447Y-77910661D01*
X179510661Y-77729447D01*
X179723745Y-77587069D01*
X179723747Y-77587068D01*
X179960513Y-77488996D01*
X180211861Y-77439000D01*
X180468139Y-77439000D01*
X180719487Y-77488996D01*
X180719487Y-77488996D01*
G37*
G36*
X191199487Y-77488996D02*
G01*
X191436253Y-77587068D01*
X191436255Y-77587069D01*
X191591913Y-77691076D01*
X191649339Y-77729447D01*
X191836263Y-77916371D01*
X191841612Y-77922889D01*
X191860554Y-77938434D01*
X191882165Y-77949985D01*
X191905614Y-77957098D01*
X191930000Y-77959500D01*
X191954386Y-77957098D01*
X191977835Y-77949985D01*
X191999446Y-77938434D01*
X192018388Y-77922889D01*
X192023737Y-77916371D01*
X192210661Y-77729447D01*
X192268087Y-77691076D01*
X192423745Y-77587069D01*
X192423747Y-77587068D01*
X192660513Y-77488996D01*
X192911861Y-77439000D01*
X193168139Y-77439000D01*
X193419487Y-77488996D01*
X193656253Y-77587068D01*
X193656255Y-77587069D01*
X193869339Y-77729447D01*
X194050553Y-77910661D01*
X194176942Y-78099815D01*
X194192932Y-78123747D01*
X194291004Y-78360513D01*
X194341000Y-78611861D01*
X194341000Y-78868139D01*
X194291004Y-79119487D01*
X194192932Y-79356253D01*
X194192931Y-79356255D01*
X194050553Y-79569339D01*
X193869339Y-79750553D01*
X193656255Y-79892931D01*
X193656254Y-79892932D01*
X193656253Y-79892932D01*
X193419487Y-79991004D01*
X193168139Y-80041000D01*
X192911861Y-80041000D01*
X192660513Y-79991004D01*
X192423747Y-79892932D01*
X192423746Y-79892932D01*
X192423745Y-79892931D01*
X192210661Y-79750553D01*
X192023737Y-79563629D01*
X192018388Y-79557111D01*
X191999446Y-79541566D01*
X191977835Y-79530015D01*
X191954386Y-79522902D01*
X191930000Y-79520500D01*
X191905614Y-79522902D01*
X191882165Y-79530015D01*
X191860554Y-79541566D01*
X191841612Y-79557111D01*
X191836263Y-79563629D01*
X191649339Y-79750553D01*
X191436255Y-79892931D01*
X191436254Y-79892932D01*
X191436253Y-79892932D01*
X191199487Y-79991004D01*
X190948139Y-80041000D01*
X190691861Y-80041000D01*
X190440513Y-79991004D01*
X190203747Y-79892932D01*
X190203746Y-79892932D01*
X190203745Y-79892931D01*
X189990661Y-79750553D01*
X189809447Y-79569339D01*
X189667069Y-79356255D01*
X189667068Y-79356253D01*
X189568996Y-79119487D01*
X189519000Y-78868139D01*
X189519000Y-78611861D01*
X189568996Y-78360513D01*
X189667068Y-78123747D01*
X189683059Y-78099815D01*
X189809447Y-77910661D01*
X189990661Y-77729447D01*
X190203745Y-77587069D01*
X190203747Y-77587068D01*
X190440513Y-77488996D01*
X190691861Y-77439000D01*
X190948139Y-77439000D01*
X191199487Y-77488996D01*
X191199487Y-77488996D01*
G37*
G36*
X106790443Y-77845519D02*
G01*
X106856627Y-77852037D01*
X107026466Y-77903557D01*
X107182991Y-77987222D01*
X107205901Y-78006024D01*
X107320186Y-78099814D01*
X107403448Y-78201271D01*
X107432778Y-78237009D01*
X107516443Y-78393534D01*
X107567963Y-78563373D01*
X107585359Y-78740000D01*
X107567963Y-78916627D01*
X107516443Y-79086466D01*
X107432778Y-79242991D01*
X107403448Y-79278729D01*
X107320186Y-79380186D01*
X107218729Y-79463448D01*
X107182991Y-79492778D01*
X107026466Y-79576443D01*
X106856627Y-79627963D01*
X106790442Y-79634482D01*
X106724260Y-79641000D01*
X106635740Y-79641000D01*
X106569558Y-79634482D01*
X106503373Y-79627963D01*
X106333534Y-79576443D01*
X106177009Y-79492778D01*
X106141271Y-79463448D01*
X106039814Y-79380186D01*
X105956552Y-79278729D01*
X105927222Y-79242991D01*
X105843557Y-79086466D01*
X105792037Y-78916627D01*
X105774641Y-78740000D01*
X105792037Y-78563373D01*
X105843557Y-78393534D01*
X105927222Y-78237009D01*
X105956552Y-78201271D01*
X106039814Y-78099814D01*
X106154099Y-78006024D01*
X106177009Y-77987222D01*
X106333534Y-77903557D01*
X106503373Y-77852037D01*
X106569557Y-77845519D01*
X106635740Y-77839000D01*
X106724260Y-77839000D01*
X106790443Y-77845519D01*
X106790443Y-77845519D01*
G37*
G36*
X176442823Y-76377313D02*
G01*
X176603242Y-76425976D01*
X176670361Y-76461852D01*
X176751078Y-76504996D01*
X176880659Y-76611341D01*
X176987004Y-76740922D01*
X176987005Y-76740924D01*
X177066024Y-76888758D01*
X177114687Y-77049177D01*
X177131117Y-77216000D01*
X177114687Y-77382823D01*
X177066024Y-77543242D01*
X177025477Y-77619100D01*
X176987004Y-77691078D01*
X176880659Y-77820659D01*
X176751078Y-77927004D01*
X176751076Y-77927005D01*
X176603242Y-78006024D01*
X176442823Y-78054687D01*
X176317804Y-78067000D01*
X176234196Y-78067000D01*
X176109177Y-78054687D01*
X175948758Y-78006024D01*
X175800924Y-77927005D01*
X175800922Y-77927004D01*
X175671341Y-77820659D01*
X175564996Y-77691078D01*
X175526523Y-77619100D01*
X175485976Y-77543242D01*
X175437313Y-77382823D01*
X175420883Y-77216000D01*
X175437313Y-77049177D01*
X175485976Y-76888758D01*
X175564995Y-76740924D01*
X175564996Y-76740922D01*
X175671341Y-76611341D01*
X175800922Y-76504996D01*
X175881639Y-76461852D01*
X175948758Y-76425976D01*
X176109177Y-76377313D01*
X176234196Y-76365000D01*
X176317804Y-76365000D01*
X176442823Y-76377313D01*
X176442823Y-76377313D01*
G37*
G36*
X166364228Y-76397703D02*
G01*
X166519100Y-76461853D01*
X166658481Y-76554985D01*
X166777015Y-76673519D01*
X166870147Y-76812900D01*
X166934297Y-76967772D01*
X166967000Y-77132184D01*
X166967000Y-77299816D01*
X166934297Y-77464228D01*
X166870147Y-77619100D01*
X166777015Y-77758481D01*
X166658481Y-77877015D01*
X166519100Y-77970147D01*
X166364228Y-78034297D01*
X166199816Y-78067000D01*
X166032184Y-78067000D01*
X165867772Y-78034297D01*
X165712900Y-77970147D01*
X165573519Y-77877015D01*
X165454985Y-77758481D01*
X165361853Y-77619100D01*
X165297703Y-77464228D01*
X165265000Y-77299816D01*
X165265000Y-77132184D01*
X165297703Y-76967772D01*
X165361853Y-76812900D01*
X165454985Y-76673519D01*
X165573519Y-76554985D01*
X165712900Y-76461853D01*
X165867772Y-76397703D01*
X166032184Y-76365000D01*
X166199816Y-76365000D01*
X166364228Y-76397703D01*
X166364228Y-76397703D01*
G37*
G36*
X207913097Y-75234069D02*
G01*
X208016032Y-75244207D01*
X208196658Y-75299000D01*
X208214149Y-75304306D01*
X208310975Y-75356061D01*
X208396729Y-75401897D01*
X208556765Y-75533235D01*
X208688103Y-75693271D01*
X208690102Y-75697011D01*
X208785694Y-75875851D01*
X208785695Y-75875854D01*
X208845793Y-76073968D01*
X208866085Y-76280000D01*
X208845793Y-76486032D01*
X208824876Y-76554985D01*
X208785694Y-76684149D01*
X208755348Y-76740922D01*
X208688103Y-76866729D01*
X208556765Y-77026765D01*
X208396729Y-77158103D01*
X208310975Y-77203939D01*
X208214149Y-77255694D01*
X208214146Y-77255695D01*
X208016032Y-77315793D01*
X207913097Y-77325931D01*
X207861631Y-77331000D01*
X206158369Y-77331000D01*
X206106903Y-77325931D01*
X206003968Y-77315793D01*
X205805854Y-77255695D01*
X205805851Y-77255694D01*
X205709025Y-77203939D01*
X205623271Y-77158103D01*
X205463235Y-77026765D01*
X205331897Y-76866729D01*
X205264652Y-76740922D01*
X205234306Y-76684149D01*
X205195124Y-76554985D01*
X205174207Y-76486032D01*
X205153915Y-76280000D01*
X205174207Y-76073968D01*
X205234305Y-75875854D01*
X205234306Y-75875851D01*
X205329898Y-75697011D01*
X205331897Y-75693271D01*
X205463235Y-75533235D01*
X205623271Y-75401897D01*
X205709025Y-75356061D01*
X205805851Y-75304306D01*
X205823342Y-75299000D01*
X206003968Y-75244207D01*
X206106903Y-75234069D01*
X206158369Y-75229000D01*
X207861631Y-75229000D01*
X207913097Y-75234069D01*
X207913097Y-75234069D01*
G37*
G36*
X106778132Y-75304306D02*
G01*
X106856627Y-75312037D01*
X107026466Y-75363557D01*
X107182991Y-75447222D01*
X107218729Y-75476552D01*
X107320186Y-75559814D01*
X107403448Y-75661271D01*
X107432778Y-75697009D01*
X107516443Y-75853534D01*
X107567963Y-76023373D01*
X107585359Y-76200000D01*
X107567963Y-76376627D01*
X107516443Y-76546466D01*
X107516442Y-76546468D01*
X107481766Y-76611341D01*
X107432778Y-76702991D01*
X107403448Y-76738729D01*
X107320186Y-76840186D01*
X107218729Y-76923448D01*
X107182991Y-76952778D01*
X107026466Y-77036443D01*
X106856627Y-77087963D01*
X106790442Y-77094482D01*
X106724260Y-77101000D01*
X106635740Y-77101000D01*
X106569558Y-77094482D01*
X106503373Y-77087963D01*
X106333534Y-77036443D01*
X106177009Y-76952778D01*
X106141271Y-76923448D01*
X106039814Y-76840186D01*
X105956552Y-76738729D01*
X105927222Y-76702991D01*
X105878234Y-76611341D01*
X105843558Y-76546468D01*
X105843557Y-76546466D01*
X105792037Y-76376627D01*
X105774641Y-76200000D01*
X105792037Y-76023373D01*
X105843557Y-75853534D01*
X105927222Y-75697009D01*
X105956552Y-75661271D01*
X106039814Y-75559814D01*
X106141271Y-75476552D01*
X106177009Y-75447222D01*
X106333534Y-75363557D01*
X106503373Y-75312037D01*
X106581868Y-75304306D01*
X106635740Y-75299000D01*
X106724260Y-75299000D01*
X106778132Y-75304306D01*
X106778132Y-75304306D01*
G37*
G36*
X106790442Y-72765518D02*
G01*
X106856627Y-72772037D01*
X107026466Y-72823557D01*
X107182991Y-72907222D01*
X107218729Y-72936552D01*
X107320186Y-73019814D01*
X107403448Y-73121271D01*
X107432778Y-73157009D01*
X107516443Y-73313534D01*
X107567963Y-73483373D01*
X107585359Y-73660000D01*
X107567963Y-73836627D01*
X107516443Y-74006466D01*
X107432778Y-74162991D01*
X107403448Y-74198729D01*
X107320186Y-74300186D01*
X107218729Y-74383448D01*
X107182991Y-74412778D01*
X107026466Y-74496443D01*
X106856627Y-74547963D01*
X106790442Y-74554482D01*
X106724260Y-74561000D01*
X106635740Y-74561000D01*
X106569558Y-74554482D01*
X106503373Y-74547963D01*
X106333534Y-74496443D01*
X106177009Y-74412778D01*
X106141271Y-74383448D01*
X106039814Y-74300186D01*
X105956552Y-74198729D01*
X105927222Y-74162991D01*
X105843557Y-74006466D01*
X105792037Y-73836627D01*
X105774641Y-73660000D01*
X105792037Y-73483373D01*
X105843557Y-73313534D01*
X105927222Y-73157009D01*
X105956552Y-73121271D01*
X106039814Y-73019814D01*
X106141271Y-72936552D01*
X106177009Y-72907222D01*
X106333534Y-72823557D01*
X106503373Y-72772037D01*
X106569558Y-72765518D01*
X106635740Y-72759000D01*
X106724260Y-72759000D01*
X106790442Y-72765518D01*
X106790442Y-72765518D01*
G37*
G36*
X207913097Y-70234069D02*
G01*
X208016032Y-70244207D01*
X208214146Y-70304305D01*
X208214149Y-70304306D01*
X208310975Y-70356061D01*
X208396729Y-70401897D01*
X208556765Y-70533235D01*
X208688103Y-70693271D01*
X208712152Y-70738264D01*
X208785694Y-70875851D01*
X208785695Y-70875854D01*
X208845793Y-71073968D01*
X208866085Y-71280000D01*
X208845793Y-71486032D01*
X208812714Y-71595076D01*
X208785694Y-71684149D01*
X208733939Y-71780975D01*
X208688103Y-71866729D01*
X208556765Y-72026765D01*
X208396729Y-72158103D01*
X208310975Y-72203939D01*
X208214149Y-72255694D01*
X208214146Y-72255695D01*
X208016032Y-72315793D01*
X207913097Y-72325931D01*
X207861631Y-72331000D01*
X206158369Y-72331000D01*
X206106903Y-72325931D01*
X206003968Y-72315793D01*
X205805854Y-72255695D01*
X205805851Y-72255694D01*
X205709025Y-72203939D01*
X205623271Y-72158103D01*
X205463235Y-72026765D01*
X205331897Y-71866729D01*
X205286061Y-71780975D01*
X205234306Y-71684149D01*
X205207286Y-71595076D01*
X205174207Y-71486032D01*
X205153915Y-71280000D01*
X205174207Y-71073968D01*
X205234305Y-70875854D01*
X205234306Y-70875851D01*
X205307848Y-70738264D01*
X205331897Y-70693271D01*
X205463235Y-70533235D01*
X205623271Y-70401897D01*
X205709025Y-70356061D01*
X205805851Y-70304306D01*
X205805854Y-70304305D01*
X206003968Y-70244207D01*
X206106903Y-70234069D01*
X206158369Y-70229000D01*
X207861631Y-70229000D01*
X207913097Y-70234069D01*
X207913097Y-70234069D01*
G37*
G36*
X195746823Y-70281313D02*
G01*
X195907242Y-70329976D01*
X196039906Y-70400886D01*
X196055078Y-70408996D01*
X196184659Y-70515341D01*
X196291004Y-70644922D01*
X196291005Y-70644924D01*
X196370024Y-70792758D01*
X196418687Y-70953177D01*
X196435117Y-71120000D01*
X196418687Y-71286823D01*
X196370024Y-71447242D01*
X196349291Y-71486030D01*
X196291004Y-71595078D01*
X196184659Y-71724659D01*
X196055078Y-71831004D01*
X196055076Y-71831005D01*
X195907242Y-71910024D01*
X195746823Y-71958687D01*
X195621804Y-71971000D01*
X195538196Y-71971000D01*
X195413177Y-71958687D01*
X195252758Y-71910024D01*
X195104924Y-71831005D01*
X195104922Y-71831004D01*
X194975341Y-71724659D01*
X194868996Y-71595078D01*
X194810709Y-71486030D01*
X194789976Y-71447242D01*
X194741313Y-71286823D01*
X194724883Y-71120000D01*
X194741313Y-70953177D01*
X194789976Y-70792758D01*
X194868995Y-70644924D01*
X194868996Y-70644922D01*
X194975341Y-70515341D01*
X195104922Y-70408996D01*
X195120094Y-70400886D01*
X195252758Y-70329976D01*
X195413177Y-70281313D01*
X195538196Y-70269000D01*
X195621804Y-70269000D01*
X195746823Y-70281313D01*
X195746823Y-70281313D01*
G37*
G36*
X181191000Y-71971000D02*
G01*
X179489000Y-71971000D01*
X179489000Y-70269000D01*
X181191000Y-70269000D01*
X181191000Y-71971000D01*
X181191000Y-71971000D01*
G37*
G36*
X174102916Y-69311334D02*
G01*
X174211492Y-69344271D01*
X174211495Y-69344272D01*
X174247601Y-69363571D01*
X174311557Y-69397756D01*
X174399264Y-69469736D01*
X174462383Y-69546646D01*
X174479702Y-69563965D01*
X174500077Y-69577579D01*
X174522716Y-69586957D01*
X174546749Y-69591737D01*
X174571253Y-69591737D01*
X174595286Y-69586957D01*
X174617925Y-69577579D01*
X174638299Y-69563966D01*
X174655626Y-69546639D01*
X174669240Y-69526264D01*
X174678618Y-69503625D01*
X174683398Y-69479592D01*
X174684000Y-69467340D01*
X174684000Y-69303000D01*
X175836000Y-69303000D01*
X175836000Y-70905000D01*
X174684000Y-70905000D01*
X174684000Y-70740660D01*
X174681598Y-70716274D01*
X174674485Y-70692825D01*
X174662934Y-70671214D01*
X174647389Y-70652272D01*
X174628447Y-70636727D01*
X174606836Y-70625176D01*
X174583387Y-70618063D01*
X174559001Y-70615661D01*
X174534615Y-70618063D01*
X174511166Y-70625176D01*
X174489555Y-70636727D01*
X174462381Y-70661356D01*
X174399264Y-70738264D01*
X174311556Y-70810244D01*
X174247600Y-70844429D01*
X174211494Y-70863728D01*
X174211491Y-70863729D01*
X174102915Y-70896666D01*
X173990000Y-70907787D01*
X173877084Y-70896666D01*
X173768508Y-70863729D01*
X173768505Y-70863728D01*
X173732399Y-70844429D01*
X173668443Y-70810244D01*
X173580736Y-70738264D01*
X173508756Y-70650556D01*
X173465239Y-70569140D01*
X173451625Y-70548766D01*
X173434298Y-70531439D01*
X173413924Y-70517825D01*
X173391285Y-70508448D01*
X173367251Y-70503668D01*
X173342747Y-70503668D01*
X173318714Y-70508449D01*
X173296075Y-70517826D01*
X173275701Y-70531440D01*
X173258374Y-70548767D01*
X173244762Y-70569140D01*
X173201244Y-70650557D01*
X173129264Y-70738264D01*
X173041556Y-70810244D01*
X172977600Y-70844429D01*
X172941494Y-70863728D01*
X172941491Y-70863729D01*
X172832915Y-70896666D01*
X172720000Y-70907787D01*
X172607084Y-70896666D01*
X172498508Y-70863729D01*
X172498505Y-70863728D01*
X172462399Y-70844429D01*
X172398443Y-70810244D01*
X172310736Y-70738264D01*
X172238756Y-70650556D01*
X172195239Y-70569140D01*
X172185272Y-70550494D01*
X172184748Y-70548766D01*
X172152334Y-70441915D01*
X172144000Y-70357297D01*
X172144000Y-69850702D01*
X172152334Y-69766084D01*
X172185271Y-69657508D01*
X172185272Y-69657505D01*
X172238756Y-69557445D01*
X172238757Y-69557443D01*
X172310737Y-69469736D01*
X172398444Y-69397756D01*
X172462400Y-69363571D01*
X172498506Y-69344272D01*
X172498509Y-69344271D01*
X172607085Y-69311334D01*
X172720000Y-69300213D01*
X172832916Y-69311334D01*
X172941492Y-69344271D01*
X172941495Y-69344272D01*
X172977601Y-69363571D01*
X173041557Y-69397756D01*
X173129264Y-69469736D01*
X173201244Y-69557443D01*
X173217019Y-69586957D01*
X173244761Y-69638859D01*
X173258375Y-69659234D01*
X173275702Y-69676561D01*
X173296076Y-69690174D01*
X173318715Y-69699552D01*
X173342748Y-69704332D01*
X173367252Y-69704332D01*
X173391285Y-69699552D01*
X173413924Y-69690174D01*
X173434299Y-69676560D01*
X173451626Y-69659233D01*
X173465239Y-69638859D01*
X173508756Y-69557445D01*
X173508757Y-69557443D01*
X173580737Y-69469736D01*
X173668444Y-69397756D01*
X173732400Y-69363571D01*
X173768506Y-69344272D01*
X173768509Y-69344271D01*
X173877085Y-69311334D01*
X173990000Y-69300213D01*
X174102916Y-69311334D01*
X174102916Y-69311334D01*
G37*
G36*
X195746823Y-67741313D02*
G01*
X195907242Y-67789976D01*
X196039906Y-67860886D01*
X196055078Y-67868996D01*
X196184659Y-67975341D01*
X196291004Y-68104922D01*
X196291005Y-68104924D01*
X196370024Y-68252758D01*
X196418687Y-68413177D01*
X196435117Y-68580000D01*
X196418687Y-68746823D01*
X196370024Y-68907242D01*
X196299114Y-69039906D01*
X196291004Y-69055078D01*
X196184659Y-69184659D01*
X196055078Y-69291004D01*
X196055076Y-69291005D01*
X195907242Y-69370024D01*
X195746823Y-69418687D01*
X195621804Y-69431000D01*
X195538196Y-69431000D01*
X195413177Y-69418687D01*
X195252758Y-69370024D01*
X195104924Y-69291005D01*
X195104922Y-69291004D01*
X194975341Y-69184659D01*
X194868996Y-69055078D01*
X194860886Y-69039906D01*
X194789976Y-68907242D01*
X194741313Y-68746823D01*
X194724883Y-68580000D01*
X194741313Y-68413177D01*
X194789976Y-68252758D01*
X194868995Y-68104924D01*
X194868996Y-68104922D01*
X194975341Y-67975341D01*
X195104922Y-67868996D01*
X195120094Y-67860886D01*
X195252758Y-67789976D01*
X195413177Y-67741313D01*
X195538196Y-67729000D01*
X195621804Y-67729000D01*
X195746823Y-67741313D01*
X195746823Y-67741313D01*
G37*
G36*
X180506823Y-67741313D02*
G01*
X180667242Y-67789976D01*
X180799906Y-67860886D01*
X180815078Y-67868996D01*
X180944659Y-67975341D01*
X181051004Y-68104922D01*
X181051005Y-68104924D01*
X181130024Y-68252758D01*
X181178687Y-68413177D01*
X181195117Y-68580000D01*
X181178687Y-68746823D01*
X181130024Y-68907242D01*
X181059114Y-69039906D01*
X181051004Y-69055078D01*
X180944659Y-69184659D01*
X180815078Y-69291004D01*
X180815076Y-69291005D01*
X180667242Y-69370024D01*
X180506823Y-69418687D01*
X180381804Y-69431000D01*
X180298196Y-69431000D01*
X180173177Y-69418687D01*
X180012758Y-69370024D01*
X179864924Y-69291005D01*
X179864922Y-69291004D01*
X179735341Y-69184659D01*
X179628996Y-69055078D01*
X179620886Y-69039906D01*
X179549976Y-68907242D01*
X179501313Y-68746823D01*
X179484883Y-68580000D01*
X179501313Y-68413177D01*
X179549976Y-68252758D01*
X179628995Y-68104924D01*
X179628996Y-68104922D01*
X179735341Y-67975341D01*
X179864922Y-67868996D01*
X179880094Y-67860886D01*
X180012758Y-67789976D01*
X180173177Y-67741313D01*
X180298196Y-67729000D01*
X180381804Y-67729000D01*
X180506823Y-67741313D01*
X180506823Y-67741313D01*
G37*
G36*
X207913097Y-65234069D02*
G01*
X208016032Y-65244207D01*
X208214146Y-65304305D01*
X208214149Y-65304306D01*
X208310975Y-65356061D01*
X208396729Y-65401897D01*
X208556765Y-65533235D01*
X208688103Y-65693271D01*
X208733939Y-65779025D01*
X208785694Y-65875851D01*
X208785695Y-65875854D01*
X208845793Y-66073968D01*
X208866085Y-66280000D01*
X208845793Y-66486032D01*
X208797673Y-66644659D01*
X208785694Y-66684149D01*
X208733939Y-66780975D01*
X208688103Y-66866729D01*
X208556765Y-67026765D01*
X208396729Y-67158103D01*
X208310975Y-67203939D01*
X208214149Y-67255694D01*
X208214146Y-67255695D01*
X208016032Y-67315793D01*
X207913097Y-67325931D01*
X207861631Y-67331000D01*
X206158369Y-67331000D01*
X206106903Y-67325931D01*
X206003968Y-67315793D01*
X205805854Y-67255695D01*
X205805851Y-67255694D01*
X205709025Y-67203939D01*
X205623271Y-67158103D01*
X205463235Y-67026765D01*
X205331897Y-66866729D01*
X205286061Y-66780975D01*
X205234306Y-66684149D01*
X205222327Y-66644659D01*
X205174207Y-66486032D01*
X205153915Y-66280000D01*
X205174207Y-66073968D01*
X205234305Y-65875854D01*
X205234306Y-65875851D01*
X205286061Y-65779025D01*
X205331897Y-65693271D01*
X205463235Y-65533235D01*
X205623271Y-65401897D01*
X205709025Y-65356061D01*
X205805851Y-65304306D01*
X205805854Y-65304305D01*
X206003968Y-65244207D01*
X206106903Y-65234069D01*
X206158369Y-65229000D01*
X207861631Y-65229000D01*
X207913097Y-65234069D01*
X207913097Y-65234069D01*
G37*
G36*
X195746823Y-65201313D02*
G01*
X195907242Y-65249976D01*
X196008884Y-65304305D01*
X196055078Y-65328996D01*
X196184659Y-65435341D01*
X196291004Y-65564922D01*
X196291005Y-65564924D01*
X196370024Y-65712758D01*
X196418687Y-65873177D01*
X196435117Y-66040000D01*
X196418687Y-66206823D01*
X196370024Y-66367242D01*
X196306530Y-66486030D01*
X196291004Y-66515078D01*
X196184659Y-66644659D01*
X196055078Y-66751004D01*
X196055076Y-66751005D01*
X195907242Y-66830024D01*
X195746823Y-66878687D01*
X195621804Y-66891000D01*
X195538196Y-66891000D01*
X195413177Y-66878687D01*
X195252758Y-66830024D01*
X195104924Y-66751005D01*
X195104922Y-66751004D01*
X194975341Y-66644659D01*
X194868996Y-66515078D01*
X194853470Y-66486030D01*
X194789976Y-66367242D01*
X194741313Y-66206823D01*
X194724883Y-66040000D01*
X194741313Y-65873177D01*
X194789976Y-65712758D01*
X194868995Y-65564924D01*
X194868996Y-65564922D01*
X194975341Y-65435341D01*
X195104922Y-65328996D01*
X195151116Y-65304305D01*
X195252758Y-65249976D01*
X195413177Y-65201313D01*
X195538196Y-65189000D01*
X195621804Y-65189000D01*
X195746823Y-65201313D01*
X195746823Y-65201313D01*
G37*
G36*
X180506823Y-65201313D02*
G01*
X180667242Y-65249976D01*
X180768884Y-65304305D01*
X180815078Y-65328996D01*
X180944659Y-65435341D01*
X181051004Y-65564922D01*
X181051005Y-65564924D01*
X181130024Y-65712758D01*
X181178687Y-65873177D01*
X181195117Y-66040000D01*
X181178687Y-66206823D01*
X181130024Y-66367242D01*
X181066530Y-66486030D01*
X181051004Y-66515078D01*
X180944659Y-66644659D01*
X180815078Y-66751004D01*
X180815076Y-66751005D01*
X180667242Y-66830024D01*
X180506823Y-66878687D01*
X180381804Y-66891000D01*
X180298196Y-66891000D01*
X180173177Y-66878687D01*
X180012758Y-66830024D01*
X179864924Y-66751005D01*
X179864922Y-66751004D01*
X179735341Y-66644659D01*
X179628996Y-66515078D01*
X179613470Y-66486030D01*
X179549976Y-66367242D01*
X179501313Y-66206823D01*
X179484883Y-66040000D01*
X179501313Y-65873177D01*
X179549976Y-65712758D01*
X179628995Y-65564924D01*
X179628996Y-65564922D01*
X179735341Y-65435341D01*
X179864922Y-65328996D01*
X179911116Y-65304305D01*
X180012758Y-65249976D01*
X180173177Y-65201313D01*
X180298196Y-65189000D01*
X180381804Y-65189000D01*
X180506823Y-65201313D01*
X180506823Y-65201313D01*
G37*
G36*
X172830442Y-62605518D02*
G01*
X172896627Y-62612037D01*
X173066466Y-62663557D01*
X173222991Y-62747222D01*
X173258729Y-62776552D01*
X173360186Y-62859814D01*
X173443448Y-62961271D01*
X173472778Y-62997009D01*
X173556443Y-63153534D01*
X173607963Y-63323373D01*
X173625359Y-63500000D01*
X173607963Y-63676627D01*
X173556443Y-63846466D01*
X173472778Y-64002991D01*
X173443448Y-64038729D01*
X173360186Y-64140186D01*
X173258729Y-64223448D01*
X173222991Y-64252778D01*
X173066466Y-64336443D01*
X172896627Y-64387963D01*
X172830442Y-64394482D01*
X172764260Y-64401000D01*
X172675740Y-64401000D01*
X172609558Y-64394482D01*
X172543373Y-64387963D01*
X172373534Y-64336443D01*
X172217009Y-64252778D01*
X172181271Y-64223448D01*
X172079814Y-64140186D01*
X171996552Y-64038729D01*
X171967222Y-64002991D01*
X171883557Y-63846466D01*
X171832037Y-63676627D01*
X171814641Y-63500000D01*
X171832037Y-63323373D01*
X171883557Y-63153534D01*
X171967222Y-62997009D01*
X171996552Y-62961271D01*
X172079814Y-62859814D01*
X172181271Y-62776552D01*
X172217009Y-62747222D01*
X172373534Y-62663557D01*
X172543373Y-62612037D01*
X172609558Y-62605518D01*
X172675740Y-62599000D01*
X172764260Y-62599000D01*
X172830442Y-62605518D01*
X172830442Y-62605518D01*
G37*
G36*
X180506823Y-62661313D02*
G01*
X180667242Y-62709976D01*
X180736922Y-62747221D01*
X180815078Y-62788996D01*
X180944659Y-62895341D01*
X181051004Y-63024922D01*
X181051005Y-63024924D01*
X181130024Y-63172758D01*
X181178687Y-63333177D01*
X181195117Y-63500000D01*
X181178687Y-63666823D01*
X181130024Y-63827242D01*
X181119747Y-63846468D01*
X181051004Y-63975078D01*
X180944659Y-64104659D01*
X180815078Y-64211004D01*
X180815076Y-64211005D01*
X180667242Y-64290024D01*
X180506823Y-64338687D01*
X180381804Y-64351000D01*
X180298196Y-64351000D01*
X180173177Y-64338687D01*
X180012758Y-64290024D01*
X179864924Y-64211005D01*
X179864922Y-64211004D01*
X179735341Y-64104659D01*
X179628996Y-63975078D01*
X179560253Y-63846468D01*
X179549976Y-63827242D01*
X179501313Y-63666823D01*
X179484883Y-63500000D01*
X179501313Y-63333177D01*
X179549976Y-63172758D01*
X179628995Y-63024924D01*
X179628996Y-63024922D01*
X179735341Y-62895341D01*
X179864922Y-62788996D01*
X179943078Y-62747221D01*
X180012758Y-62709976D01*
X180173177Y-62661313D01*
X180298196Y-62649000D01*
X180381804Y-62649000D01*
X180506823Y-62661313D01*
X180506823Y-62661313D01*
G37*
G36*
X195746823Y-62661313D02*
G01*
X195907242Y-62709976D01*
X195976922Y-62747221D01*
X196055078Y-62788996D01*
X196184659Y-62895341D01*
X196291004Y-63024922D01*
X196291005Y-63024924D01*
X196370024Y-63172758D01*
X196418687Y-63333177D01*
X196435117Y-63500000D01*
X196418687Y-63666823D01*
X196370024Y-63827242D01*
X196359747Y-63846468D01*
X196291004Y-63975078D01*
X196184659Y-64104659D01*
X196055078Y-64211004D01*
X196055076Y-64211005D01*
X195907242Y-64290024D01*
X195746823Y-64338687D01*
X195621804Y-64351000D01*
X195538196Y-64351000D01*
X195413177Y-64338687D01*
X195252758Y-64290024D01*
X195104924Y-64211005D01*
X195104922Y-64211004D01*
X194975341Y-64104659D01*
X194868996Y-63975078D01*
X194800253Y-63846468D01*
X194789976Y-63827242D01*
X194741313Y-63666823D01*
X194724883Y-63500000D01*
X194741313Y-63333177D01*
X194789976Y-63172758D01*
X194868995Y-63024924D01*
X194868996Y-63024922D01*
X194975341Y-62895341D01*
X195104922Y-62788996D01*
X195183078Y-62747221D01*
X195252758Y-62709976D01*
X195413177Y-62661313D01*
X195538196Y-62649000D01*
X195621804Y-62649000D01*
X195746823Y-62661313D01*
X195746823Y-62661313D01*
G37*
G36*
X207913097Y-60234069D02*
G01*
X208016032Y-60244207D01*
X208214146Y-60304305D01*
X208214149Y-60304306D01*
X208309628Y-60355341D01*
X208396729Y-60401897D01*
X208556765Y-60533235D01*
X208688103Y-60693271D01*
X208733939Y-60779025D01*
X208785694Y-60875851D01*
X208785695Y-60875854D01*
X208845793Y-61073968D01*
X208866085Y-61280000D01*
X208845793Y-61486032D01*
X208811164Y-61600186D01*
X208785694Y-61684149D01*
X208750483Y-61750024D01*
X208688103Y-61866729D01*
X208556765Y-62026765D01*
X208396729Y-62158103D01*
X208310975Y-62203939D01*
X208214149Y-62255694D01*
X208214146Y-62255695D01*
X208016032Y-62315793D01*
X207913097Y-62325931D01*
X207861631Y-62331000D01*
X206158369Y-62331000D01*
X206106903Y-62325931D01*
X206003968Y-62315793D01*
X205805854Y-62255695D01*
X205805851Y-62255694D01*
X205709025Y-62203939D01*
X205623271Y-62158103D01*
X205463235Y-62026765D01*
X205331897Y-61866729D01*
X205269517Y-61750024D01*
X205234306Y-61684149D01*
X205208836Y-61600186D01*
X205174207Y-61486032D01*
X205153915Y-61280000D01*
X205174207Y-61073968D01*
X205234305Y-60875854D01*
X205234306Y-60875851D01*
X205286061Y-60779025D01*
X205331897Y-60693271D01*
X205463235Y-60533235D01*
X205623271Y-60401897D01*
X205710372Y-60355341D01*
X205805851Y-60304306D01*
X205805854Y-60304305D01*
X206003968Y-60244207D01*
X206106903Y-60234069D01*
X206158369Y-60229000D01*
X207861631Y-60229000D01*
X207913097Y-60234069D01*
X207913097Y-60234069D01*
G37*
G36*
X172830442Y-60065518D02*
G01*
X172896627Y-60072037D01*
X173066466Y-60123557D01*
X173222991Y-60207222D01*
X173249527Y-60229000D01*
X173360186Y-60319814D01*
X173443448Y-60421271D01*
X173472778Y-60457009D01*
X173556443Y-60613534D01*
X173607963Y-60783373D01*
X173625359Y-60960000D01*
X173607963Y-61136627D01*
X173556443Y-61306466D01*
X173472778Y-61462991D01*
X173443448Y-61498729D01*
X173360186Y-61600186D01*
X173258729Y-61683448D01*
X173222991Y-61712778D01*
X173066466Y-61796443D01*
X172896627Y-61847963D01*
X172830443Y-61854481D01*
X172764260Y-61861000D01*
X172675740Y-61861000D01*
X172609557Y-61854481D01*
X172543373Y-61847963D01*
X172373534Y-61796443D01*
X172217009Y-61712778D01*
X172181271Y-61683448D01*
X172079814Y-61600186D01*
X171996552Y-61498729D01*
X171967222Y-61462991D01*
X171883557Y-61306466D01*
X171832037Y-61136627D01*
X171814641Y-60960000D01*
X171832037Y-60783373D01*
X171883557Y-60613534D01*
X171967222Y-60457009D01*
X171996552Y-60421271D01*
X172079814Y-60319814D01*
X172190473Y-60229000D01*
X172217009Y-60207222D01*
X172373534Y-60123557D01*
X172543373Y-60072037D01*
X172609558Y-60065518D01*
X172675740Y-60059000D01*
X172764260Y-60059000D01*
X172830442Y-60065518D01*
X172830442Y-60065518D01*
G37*
G36*
X180506823Y-60121313D02*
G01*
X180667242Y-60169976D01*
X180736922Y-60207221D01*
X180815078Y-60248996D01*
X180944659Y-60355341D01*
X181051004Y-60484922D01*
X181051005Y-60484924D01*
X181130024Y-60632758D01*
X181178687Y-60793177D01*
X181195117Y-60960000D01*
X181178687Y-61126823D01*
X181130024Y-61287242D01*
X181119747Y-61306468D01*
X181051004Y-61435078D01*
X180944659Y-61564659D01*
X180815078Y-61671004D01*
X180815076Y-61671005D01*
X180667242Y-61750024D01*
X180506823Y-61798687D01*
X180381804Y-61811000D01*
X180298196Y-61811000D01*
X180173177Y-61798687D01*
X180012758Y-61750024D01*
X179864924Y-61671005D01*
X179864922Y-61671004D01*
X179735341Y-61564659D01*
X179628996Y-61435078D01*
X179560253Y-61306468D01*
X179549976Y-61287242D01*
X179501313Y-61126823D01*
X179484883Y-60960000D01*
X179501313Y-60793177D01*
X179549976Y-60632758D01*
X179628995Y-60484924D01*
X179628996Y-60484922D01*
X179735341Y-60355341D01*
X179864922Y-60248996D01*
X179943078Y-60207221D01*
X180012758Y-60169976D01*
X180173177Y-60121313D01*
X180298196Y-60109000D01*
X180381804Y-60109000D01*
X180506823Y-60121313D01*
X180506823Y-60121313D01*
G37*
G36*
X195746823Y-60121313D02*
G01*
X195907242Y-60169976D01*
X195976922Y-60207221D01*
X196055078Y-60248996D01*
X196184659Y-60355341D01*
X196291004Y-60484922D01*
X196291005Y-60484924D01*
X196370024Y-60632758D01*
X196418687Y-60793177D01*
X196435117Y-60960000D01*
X196418687Y-61126823D01*
X196370024Y-61287242D01*
X196359747Y-61306468D01*
X196291004Y-61435078D01*
X196184659Y-61564659D01*
X196055078Y-61671004D01*
X196055076Y-61671005D01*
X195907242Y-61750024D01*
X195746823Y-61798687D01*
X195621804Y-61811000D01*
X195538196Y-61811000D01*
X195413177Y-61798687D01*
X195252758Y-61750024D01*
X195104924Y-61671005D01*
X195104922Y-61671004D01*
X194975341Y-61564659D01*
X194868996Y-61435078D01*
X194800253Y-61306468D01*
X194789976Y-61287242D01*
X194741313Y-61126823D01*
X194724883Y-60960000D01*
X194741313Y-60793177D01*
X194789976Y-60632758D01*
X194868995Y-60484924D01*
X194868996Y-60484922D01*
X194975341Y-60355341D01*
X195104922Y-60248996D01*
X195183078Y-60207221D01*
X195252758Y-60169976D01*
X195413177Y-60121313D01*
X195538196Y-60109000D01*
X195621804Y-60109000D01*
X195746823Y-60121313D01*
X195746823Y-60121313D01*
G37*
G36*
X172830443Y-57525519D02*
G01*
X172896627Y-57532037D01*
X173066466Y-57583557D01*
X173222991Y-57667222D01*
X173258729Y-57696552D01*
X173360186Y-57779814D01*
X173443448Y-57881271D01*
X173472778Y-57917009D01*
X173556443Y-58073534D01*
X173607963Y-58243373D01*
X173625359Y-58420000D01*
X173607963Y-58596627D01*
X173556443Y-58766466D01*
X173472778Y-58922991D01*
X173443448Y-58958729D01*
X173360186Y-59060186D01*
X173258729Y-59143448D01*
X173222991Y-59172778D01*
X173066466Y-59256443D01*
X172896627Y-59307963D01*
X172830442Y-59314482D01*
X172764260Y-59321000D01*
X172675740Y-59321000D01*
X172609558Y-59314482D01*
X172543373Y-59307963D01*
X172373534Y-59256443D01*
X172217009Y-59172778D01*
X172181271Y-59143448D01*
X172079814Y-59060186D01*
X171996552Y-58958729D01*
X171967222Y-58922991D01*
X171883557Y-58766466D01*
X171832037Y-58596627D01*
X171814641Y-58420000D01*
X171832037Y-58243373D01*
X171883557Y-58073534D01*
X171967222Y-57917009D01*
X171996552Y-57881271D01*
X172079814Y-57779814D01*
X172181271Y-57696552D01*
X172217009Y-57667222D01*
X172373534Y-57583557D01*
X172543373Y-57532037D01*
X172609557Y-57525519D01*
X172675740Y-57519000D01*
X172764260Y-57519000D01*
X172830443Y-57525519D01*
X172830443Y-57525519D01*
G37*
G36*
X180506823Y-57581313D02*
G01*
X180667242Y-57629976D01*
X180736922Y-57667221D01*
X180815078Y-57708996D01*
X180944659Y-57815341D01*
X181051004Y-57944922D01*
X181051005Y-57944924D01*
X181130024Y-58092758D01*
X181178687Y-58253177D01*
X181195117Y-58420000D01*
X181178687Y-58586823D01*
X181130024Y-58747242D01*
X181119747Y-58766468D01*
X181051004Y-58895078D01*
X180944659Y-59024659D01*
X180815078Y-59131004D01*
X180815076Y-59131005D01*
X180667242Y-59210024D01*
X180506823Y-59258687D01*
X180381804Y-59271000D01*
X180298196Y-59271000D01*
X180173177Y-59258687D01*
X180012758Y-59210024D01*
X179864924Y-59131005D01*
X179864922Y-59131004D01*
X179735341Y-59024659D01*
X179628996Y-58895078D01*
X179560253Y-58766468D01*
X179549976Y-58747242D01*
X179501313Y-58586823D01*
X179484883Y-58420000D01*
X179501313Y-58253177D01*
X179549976Y-58092758D01*
X179628995Y-57944924D01*
X179628996Y-57944922D01*
X179735341Y-57815341D01*
X179864922Y-57708996D01*
X179943078Y-57667221D01*
X180012758Y-57629976D01*
X180173177Y-57581313D01*
X180298196Y-57569000D01*
X180381804Y-57569000D01*
X180506823Y-57581313D01*
X180506823Y-57581313D01*
G37*
G36*
X195746823Y-57581313D02*
G01*
X195907242Y-57629976D01*
X195976922Y-57667221D01*
X196055078Y-57708996D01*
X196184659Y-57815341D01*
X196291004Y-57944922D01*
X196291005Y-57944924D01*
X196370024Y-58092758D01*
X196418687Y-58253177D01*
X196435117Y-58420000D01*
X196418687Y-58586823D01*
X196370024Y-58747242D01*
X196359747Y-58766468D01*
X196291004Y-58895078D01*
X196184659Y-59024659D01*
X196055078Y-59131004D01*
X196055076Y-59131005D01*
X195907242Y-59210024D01*
X195746823Y-59258687D01*
X195621804Y-59271000D01*
X195538196Y-59271000D01*
X195413177Y-59258687D01*
X195252758Y-59210024D01*
X195104924Y-59131005D01*
X195104922Y-59131004D01*
X194975341Y-59024659D01*
X194868996Y-58895078D01*
X194800253Y-58766468D01*
X194789976Y-58747242D01*
X194741313Y-58586823D01*
X194724883Y-58420000D01*
X194741313Y-58253177D01*
X194789976Y-58092758D01*
X194868995Y-57944924D01*
X194868996Y-57944922D01*
X194975341Y-57815341D01*
X195104922Y-57708996D01*
X195183078Y-57667221D01*
X195252758Y-57629976D01*
X195413177Y-57581313D01*
X195538196Y-57569000D01*
X195621804Y-57569000D01*
X195746823Y-57581313D01*
X195746823Y-57581313D01*
G37*
G36*
X207913097Y-55234069D02*
G01*
X208016032Y-55244207D01*
X208214146Y-55304305D01*
X208214149Y-55304306D01*
X208310975Y-55356061D01*
X208396729Y-55401897D01*
X208556765Y-55533235D01*
X208688103Y-55693271D01*
X208733939Y-55779025D01*
X208785694Y-55875851D01*
X208785695Y-55875854D01*
X208845793Y-56073968D01*
X208866085Y-56280000D01*
X208845793Y-56486032D01*
X208785695Y-56684146D01*
X208785694Y-56684149D01*
X208768433Y-56716442D01*
X208688103Y-56866729D01*
X208556765Y-57026765D01*
X208396729Y-57158103D01*
X208310975Y-57203939D01*
X208214149Y-57255694D01*
X208214146Y-57255695D01*
X208016032Y-57315793D01*
X207913097Y-57325931D01*
X207861631Y-57331000D01*
X206158369Y-57331000D01*
X206106903Y-57325931D01*
X206003968Y-57315793D01*
X205805854Y-57255695D01*
X205805851Y-57255694D01*
X205709025Y-57203939D01*
X205623271Y-57158103D01*
X205463235Y-57026765D01*
X205331897Y-56866729D01*
X205251567Y-56716442D01*
X205234306Y-56684149D01*
X205234305Y-56684146D01*
X205174207Y-56486032D01*
X205153915Y-56280000D01*
X205174207Y-56073968D01*
X205234305Y-55875854D01*
X205234306Y-55875851D01*
X205286061Y-55779025D01*
X205331897Y-55693271D01*
X205463235Y-55533235D01*
X205623271Y-55401897D01*
X205709025Y-55356061D01*
X205805851Y-55304306D01*
X205805854Y-55304305D01*
X206003968Y-55244207D01*
X206106903Y-55234069D01*
X206158369Y-55229000D01*
X207861631Y-55229000D01*
X207913097Y-55234069D01*
X207913097Y-55234069D01*
G37*
G36*
X172830443Y-54985519D02*
G01*
X172896627Y-54992037D01*
X173066466Y-55043557D01*
X173222991Y-55127222D01*
X173258729Y-55156552D01*
X173360186Y-55239814D01*
X173413112Y-55304306D01*
X173472778Y-55377009D01*
X173556443Y-55533534D01*
X173607963Y-55703373D01*
X173625359Y-55880000D01*
X173607963Y-56056627D01*
X173556443Y-56226466D01*
X173472778Y-56382991D01*
X173443448Y-56418729D01*
X173360186Y-56520186D01*
X173258729Y-56603448D01*
X173222991Y-56632778D01*
X173066466Y-56716443D01*
X172896627Y-56767963D01*
X172830443Y-56774481D01*
X172764260Y-56781000D01*
X172675740Y-56781000D01*
X172609557Y-56774481D01*
X172543373Y-56767963D01*
X172373534Y-56716443D01*
X172217009Y-56632778D01*
X172181271Y-56603448D01*
X172079814Y-56520186D01*
X171996552Y-56418729D01*
X171967222Y-56382991D01*
X171883557Y-56226466D01*
X171832037Y-56056627D01*
X171814641Y-55880000D01*
X171832037Y-55703373D01*
X171883557Y-55533534D01*
X171967222Y-55377009D01*
X172026888Y-55304306D01*
X172079814Y-55239814D01*
X172181271Y-55156552D01*
X172217009Y-55127222D01*
X172373534Y-55043557D01*
X172543373Y-54992037D01*
X172609557Y-54985519D01*
X172675740Y-54979000D01*
X172764260Y-54979000D01*
X172830443Y-54985519D01*
X172830443Y-54985519D01*
G37*
G36*
X180506823Y-55041313D02*
G01*
X180667242Y-55089976D01*
X180736922Y-55127221D01*
X180815078Y-55168996D01*
X180944659Y-55275341D01*
X181051004Y-55404922D01*
X181051005Y-55404924D01*
X181130024Y-55552758D01*
X181178687Y-55713177D01*
X181195117Y-55880000D01*
X181178687Y-56046823D01*
X181130024Y-56207242D01*
X181119747Y-56226468D01*
X181051004Y-56355078D01*
X180944659Y-56484659D01*
X180815078Y-56591004D01*
X180815076Y-56591005D01*
X180667242Y-56670024D01*
X180506823Y-56718687D01*
X180381804Y-56731000D01*
X180298196Y-56731000D01*
X180173177Y-56718687D01*
X180012758Y-56670024D01*
X179864924Y-56591005D01*
X179864922Y-56591004D01*
X179735341Y-56484659D01*
X179628996Y-56355078D01*
X179560253Y-56226468D01*
X179549976Y-56207242D01*
X179501313Y-56046823D01*
X179484883Y-55880000D01*
X179501313Y-55713177D01*
X179549976Y-55552758D01*
X179628995Y-55404924D01*
X179628996Y-55404922D01*
X179735341Y-55275341D01*
X179864922Y-55168996D01*
X179943078Y-55127221D01*
X180012758Y-55089976D01*
X180173177Y-55041313D01*
X180298196Y-55029000D01*
X180381804Y-55029000D01*
X180506823Y-55041313D01*
X180506823Y-55041313D01*
G37*
G36*
X195746823Y-55041313D02*
G01*
X195907242Y-55089976D01*
X195976922Y-55127221D01*
X196055078Y-55168996D01*
X196184659Y-55275341D01*
X196291004Y-55404922D01*
X196291005Y-55404924D01*
X196370024Y-55552758D01*
X196418687Y-55713177D01*
X196435117Y-55880000D01*
X196418687Y-56046823D01*
X196370024Y-56207242D01*
X196359747Y-56226468D01*
X196291004Y-56355078D01*
X196184659Y-56484659D01*
X196055078Y-56591004D01*
X196055076Y-56591005D01*
X195907242Y-56670024D01*
X195746823Y-56718687D01*
X195621804Y-56731000D01*
X195538196Y-56731000D01*
X195413177Y-56718687D01*
X195252758Y-56670024D01*
X195104924Y-56591005D01*
X195104922Y-56591004D01*
X194975341Y-56484659D01*
X194868996Y-56355078D01*
X194800253Y-56226468D01*
X194789976Y-56207242D01*
X194741313Y-56046823D01*
X194724883Y-55880000D01*
X194741313Y-55713177D01*
X194789976Y-55552758D01*
X194868995Y-55404924D01*
X194868996Y-55404922D01*
X194975341Y-55275341D01*
X195104922Y-55168996D01*
X195183078Y-55127221D01*
X195252758Y-55089976D01*
X195413177Y-55041313D01*
X195538196Y-55029000D01*
X195621804Y-55029000D01*
X195746823Y-55041313D01*
X195746823Y-55041313D01*
G37*
G36*
X172830443Y-52445519D02*
G01*
X172896627Y-52452037D01*
X173066466Y-52503557D01*
X173222991Y-52587222D01*
X173258729Y-52616552D01*
X173360186Y-52699814D01*
X173443448Y-52801271D01*
X173472778Y-52837009D01*
X173556443Y-52993534D01*
X173607963Y-53163373D01*
X173625359Y-53340000D01*
X173607963Y-53516627D01*
X173556443Y-53686466D01*
X173472778Y-53842991D01*
X173443448Y-53878729D01*
X173360186Y-53980186D01*
X173258729Y-54063448D01*
X173222991Y-54092778D01*
X173066466Y-54176443D01*
X172896627Y-54227963D01*
X172830442Y-54234482D01*
X172764260Y-54241000D01*
X172675740Y-54241000D01*
X172609558Y-54234482D01*
X172543373Y-54227963D01*
X172373534Y-54176443D01*
X172217009Y-54092778D01*
X172181271Y-54063448D01*
X172079814Y-53980186D01*
X171996552Y-53878729D01*
X171967222Y-53842991D01*
X171883557Y-53686466D01*
X171832037Y-53516627D01*
X171814641Y-53340000D01*
X171832037Y-53163373D01*
X171883557Y-52993534D01*
X171967222Y-52837009D01*
X171996552Y-52801271D01*
X172079814Y-52699814D01*
X172181271Y-52616552D01*
X172217009Y-52587222D01*
X172373534Y-52503557D01*
X172543373Y-52452037D01*
X172609558Y-52445518D01*
X172675740Y-52439000D01*
X172764260Y-52439000D01*
X172830443Y-52445519D01*
X172830443Y-52445519D01*
G37*
G36*
X195746823Y-52501313D02*
G01*
X195907242Y-52549976D01*
X195976922Y-52587221D01*
X196055078Y-52628996D01*
X196184659Y-52735341D01*
X196291004Y-52864922D01*
X196291005Y-52864924D01*
X196370024Y-53012758D01*
X196418687Y-53173177D01*
X196435117Y-53340000D01*
X196418687Y-53506823D01*
X196370024Y-53667242D01*
X196359747Y-53686468D01*
X196291004Y-53815078D01*
X196184659Y-53944659D01*
X196055078Y-54051004D01*
X196055076Y-54051005D01*
X195907242Y-54130024D01*
X195746823Y-54178687D01*
X195621804Y-54191000D01*
X195538196Y-54191000D01*
X195413177Y-54178687D01*
X195252758Y-54130024D01*
X195104924Y-54051005D01*
X195104922Y-54051004D01*
X194975341Y-53944659D01*
X194868996Y-53815078D01*
X194800253Y-53686468D01*
X194789976Y-53667242D01*
X194741313Y-53506823D01*
X194724883Y-53340000D01*
X194741313Y-53173177D01*
X194789976Y-53012758D01*
X194868995Y-52864924D01*
X194868996Y-52864922D01*
X194975341Y-52735341D01*
X195104922Y-52628996D01*
X195183078Y-52587221D01*
X195252758Y-52549976D01*
X195413177Y-52501313D01*
X195538196Y-52489000D01*
X195621804Y-52489000D01*
X195746823Y-52501313D01*
X195746823Y-52501313D01*
G37*
G36*
X180506823Y-52501313D02*
G01*
X180667242Y-52549976D01*
X180736922Y-52587221D01*
X180815078Y-52628996D01*
X180944659Y-52735341D01*
X181051004Y-52864922D01*
X181051005Y-52864924D01*
X181130024Y-53012758D01*
X181178687Y-53173177D01*
X181195117Y-53340000D01*
X181178687Y-53506823D01*
X181130024Y-53667242D01*
X181119747Y-53686468D01*
X181051004Y-53815078D01*
X180944659Y-53944659D01*
X180815078Y-54051004D01*
X180815076Y-54051005D01*
X180667242Y-54130024D01*
X180506823Y-54178687D01*
X180381804Y-54191000D01*
X180298196Y-54191000D01*
X180173177Y-54178687D01*
X180012758Y-54130024D01*
X179864924Y-54051005D01*
X179864922Y-54051004D01*
X179735341Y-53944659D01*
X179628996Y-53815078D01*
X179560253Y-53686468D01*
X179549976Y-53667242D01*
X179501313Y-53506823D01*
X179484883Y-53340000D01*
X179501313Y-53173177D01*
X179549976Y-53012758D01*
X179628995Y-52864924D01*
X179628996Y-52864922D01*
X179735341Y-52735341D01*
X179864922Y-52628996D01*
X179943078Y-52587221D01*
X180012758Y-52549976D01*
X180173177Y-52501313D01*
X180298196Y-52489000D01*
X180381804Y-52489000D01*
X180506823Y-52501313D01*
X180506823Y-52501313D01*
G37*
G36*
X207913097Y-50234069D02*
G01*
X208016032Y-50244207D01*
X208214146Y-50304305D01*
X208214149Y-50304306D01*
X208252722Y-50324924D01*
X208396729Y-50401897D01*
X208556765Y-50533235D01*
X208688103Y-50693271D01*
X208733939Y-50779025D01*
X208785694Y-50875851D01*
X208785695Y-50875854D01*
X208845793Y-51073968D01*
X208866085Y-51280000D01*
X208845793Y-51486032D01*
X208799485Y-51638686D01*
X208785694Y-51684149D01*
X208733939Y-51780975D01*
X208688103Y-51866729D01*
X208556765Y-52026765D01*
X208396729Y-52158103D01*
X208310975Y-52203939D01*
X208214149Y-52255694D01*
X208214146Y-52255695D01*
X208016032Y-52315793D01*
X207913097Y-52325931D01*
X207861631Y-52331000D01*
X206158369Y-52331000D01*
X206106903Y-52325931D01*
X206003968Y-52315793D01*
X205805854Y-52255695D01*
X205805851Y-52255694D01*
X205709025Y-52203939D01*
X205623271Y-52158103D01*
X205463235Y-52026765D01*
X205331897Y-51866729D01*
X205286061Y-51780975D01*
X205234306Y-51684149D01*
X205220515Y-51638686D01*
X205174207Y-51486032D01*
X205153915Y-51280000D01*
X205174207Y-51073968D01*
X205234305Y-50875854D01*
X205234306Y-50875851D01*
X205286061Y-50779025D01*
X205331897Y-50693271D01*
X205463235Y-50533235D01*
X205623271Y-50401897D01*
X205767278Y-50324924D01*
X205805851Y-50304306D01*
X205805854Y-50304305D01*
X206003968Y-50244207D01*
X206106903Y-50234069D01*
X206158369Y-50229000D01*
X207861631Y-50229000D01*
X207913097Y-50234069D01*
X207913097Y-50234069D01*
G37*
G36*
X173621000Y-51701000D02*
G01*
X171819000Y-51701000D01*
X171819000Y-49899000D01*
X173621000Y-49899000D01*
X173621000Y-51701000D01*
X173621000Y-51701000D01*
G37*
G36*
X195746823Y-49961313D02*
G01*
X195907242Y-50009976D01*
X196039906Y-50080886D01*
X196055078Y-50088996D01*
X196184659Y-50195341D01*
X196291004Y-50324922D01*
X196291005Y-50324924D01*
X196370024Y-50472758D01*
X196418687Y-50633177D01*
X196435117Y-50800000D01*
X196418687Y-50966823D01*
X196370024Y-51127242D01*
X196299114Y-51259906D01*
X196291004Y-51275078D01*
X196184659Y-51404659D01*
X196055078Y-51511004D01*
X196055076Y-51511005D01*
X195907242Y-51590024D01*
X195746823Y-51638687D01*
X195621804Y-51651000D01*
X195538196Y-51651000D01*
X195413177Y-51638687D01*
X195252758Y-51590024D01*
X195104924Y-51511005D01*
X195104922Y-51511004D01*
X194975341Y-51404659D01*
X194868996Y-51275078D01*
X194860886Y-51259906D01*
X194789976Y-51127242D01*
X194741313Y-50966823D01*
X194724883Y-50800000D01*
X194741313Y-50633177D01*
X194789976Y-50472758D01*
X194868995Y-50324924D01*
X194868996Y-50324922D01*
X194975341Y-50195341D01*
X195104922Y-50088996D01*
X195120094Y-50080886D01*
X195252758Y-50009976D01*
X195413177Y-49961313D01*
X195538196Y-49949000D01*
X195621804Y-49949000D01*
X195746823Y-49961313D01*
X195746823Y-49961313D01*
G37*
G36*
X180506823Y-49961313D02*
G01*
X180667242Y-50009976D01*
X180799906Y-50080886D01*
X180815078Y-50088996D01*
X180944659Y-50195341D01*
X181051004Y-50324922D01*
X181051005Y-50324924D01*
X181130024Y-50472758D01*
X181178687Y-50633177D01*
X181195117Y-50800000D01*
X181178687Y-50966823D01*
X181130024Y-51127242D01*
X181059114Y-51259906D01*
X181051004Y-51275078D01*
X180944659Y-51404659D01*
X180815078Y-51511004D01*
X180815076Y-51511005D01*
X180667242Y-51590024D01*
X180506823Y-51638687D01*
X180381804Y-51651000D01*
X180298196Y-51651000D01*
X180173177Y-51638687D01*
X180012758Y-51590024D01*
X179864924Y-51511005D01*
X179864922Y-51511004D01*
X179735341Y-51404659D01*
X179628996Y-51275078D01*
X179620886Y-51259906D01*
X179549976Y-51127242D01*
X179501313Y-50966823D01*
X179484883Y-50800000D01*
X179501313Y-50633177D01*
X179549976Y-50472758D01*
X179628995Y-50324924D01*
X179628996Y-50324922D01*
X179735341Y-50195341D01*
X179864922Y-50088996D01*
X179880094Y-50080886D01*
X180012758Y-50009976D01*
X180173177Y-49961313D01*
X180298196Y-49949000D01*
X180381804Y-49949000D01*
X180506823Y-49961313D01*
X180506823Y-49961313D01*
G37*
G36*
X180506823Y-47421313D02*
G01*
X180667242Y-47469976D01*
X180799906Y-47540886D01*
X180815078Y-47548996D01*
X180944659Y-47655341D01*
X181051004Y-47784922D01*
X181051005Y-47784924D01*
X181130024Y-47932758D01*
X181178687Y-48093177D01*
X181195117Y-48260000D01*
X181178687Y-48426823D01*
X181130024Y-48587242D01*
X181059114Y-48719906D01*
X181051004Y-48735078D01*
X180944659Y-48864659D01*
X180815078Y-48971004D01*
X180815076Y-48971005D01*
X180667242Y-49050024D01*
X180506823Y-49098687D01*
X180381804Y-49111000D01*
X180298196Y-49111000D01*
X180173177Y-49098687D01*
X180012758Y-49050024D01*
X179864924Y-48971005D01*
X179864922Y-48971004D01*
X179735341Y-48864659D01*
X179628996Y-48735078D01*
X179620886Y-48719906D01*
X179549976Y-48587242D01*
X179501313Y-48426823D01*
X179484883Y-48260000D01*
X179501313Y-48093177D01*
X179549976Y-47932758D01*
X179628995Y-47784924D01*
X179628996Y-47784922D01*
X179735341Y-47655341D01*
X179864922Y-47548996D01*
X179880094Y-47540886D01*
X180012758Y-47469976D01*
X180173177Y-47421313D01*
X180298196Y-47409000D01*
X180381804Y-47409000D01*
X180506823Y-47421313D01*
X180506823Y-47421313D01*
G37*
G36*
X195746823Y-47421313D02*
G01*
X195907242Y-47469976D01*
X196039906Y-47540886D01*
X196055078Y-47548996D01*
X196184659Y-47655341D01*
X196291004Y-47784922D01*
X196291005Y-47784924D01*
X196370024Y-47932758D01*
X196418687Y-48093177D01*
X196435117Y-48260000D01*
X196418687Y-48426823D01*
X196370024Y-48587242D01*
X196299114Y-48719906D01*
X196291004Y-48735078D01*
X196184659Y-48864659D01*
X196055078Y-48971004D01*
X196055076Y-48971005D01*
X195907242Y-49050024D01*
X195746823Y-49098687D01*
X195621804Y-49111000D01*
X195538196Y-49111000D01*
X195413177Y-49098687D01*
X195252758Y-49050024D01*
X195104924Y-48971005D01*
X195104922Y-48971004D01*
X194975341Y-48864659D01*
X194868996Y-48735078D01*
X194860886Y-48719906D01*
X194789976Y-48587242D01*
X194741313Y-48426823D01*
X194724883Y-48260000D01*
X194741313Y-48093177D01*
X194789976Y-47932758D01*
X194868995Y-47784924D01*
X194868996Y-47784922D01*
X194975341Y-47655341D01*
X195104922Y-47548996D01*
X195120094Y-47540886D01*
X195252758Y-47469976D01*
X195413177Y-47421313D01*
X195538196Y-47409000D01*
X195621804Y-47409000D01*
X195746823Y-47421313D01*
X195746823Y-47421313D01*
G37*
G36*
X207913097Y-45234069D02*
G01*
X208016032Y-45244207D01*
X208214146Y-45304305D01*
X208214149Y-45304306D01*
X208310975Y-45356061D01*
X208396729Y-45401897D01*
X208556765Y-45533235D01*
X208688103Y-45693271D01*
X208733939Y-45779025D01*
X208785694Y-45875851D01*
X208785695Y-45875854D01*
X208845793Y-46073968D01*
X208866085Y-46280000D01*
X208845793Y-46486032D01*
X208823753Y-46558686D01*
X208785694Y-46684149D01*
X208733939Y-46780975D01*
X208688103Y-46866729D01*
X208556765Y-47026765D01*
X208396729Y-47158103D01*
X208310975Y-47203939D01*
X208214149Y-47255694D01*
X208214146Y-47255695D01*
X208016032Y-47315793D01*
X207913097Y-47325931D01*
X207861631Y-47331000D01*
X206158369Y-47331000D01*
X206106903Y-47325931D01*
X206003968Y-47315793D01*
X205805854Y-47255695D01*
X205805851Y-47255694D01*
X205709025Y-47203939D01*
X205623271Y-47158103D01*
X205463235Y-47026765D01*
X205331897Y-46866729D01*
X205286061Y-46780975D01*
X205234306Y-46684149D01*
X205196247Y-46558686D01*
X205174207Y-46486032D01*
X205153915Y-46280000D01*
X205174207Y-46073968D01*
X205234305Y-45875854D01*
X205234306Y-45875851D01*
X205286061Y-45779025D01*
X205331897Y-45693271D01*
X205463235Y-45533235D01*
X205623271Y-45401897D01*
X205709025Y-45356061D01*
X205805851Y-45304306D01*
X205805854Y-45304305D01*
X206003968Y-45244207D01*
X206106903Y-45234069D01*
X206158369Y-45229000D01*
X207861631Y-45229000D01*
X207913097Y-45234069D01*
X207913097Y-45234069D01*
G37*
G36*
X195746823Y-44881313D02*
G01*
X195907242Y-44929976D01*
X196039906Y-45000886D01*
X196055078Y-45008996D01*
X196184659Y-45115341D01*
X196291004Y-45244922D01*
X196291005Y-45244924D01*
X196370024Y-45392758D01*
X196418687Y-45553177D01*
X196435117Y-45720000D01*
X196418687Y-45886823D01*
X196370024Y-46047242D01*
X196299114Y-46179906D01*
X196291004Y-46195078D01*
X196184659Y-46324659D01*
X196055078Y-46431004D01*
X196055076Y-46431005D01*
X195907242Y-46510024D01*
X195746823Y-46558687D01*
X195621804Y-46571000D01*
X195538196Y-46571000D01*
X195413177Y-46558687D01*
X195252758Y-46510024D01*
X195104924Y-46431005D01*
X195104922Y-46431004D01*
X194975341Y-46324659D01*
X194868996Y-46195078D01*
X194860886Y-46179906D01*
X194789976Y-46047242D01*
X194741313Y-45886823D01*
X194724883Y-45720000D01*
X194741313Y-45553177D01*
X194789976Y-45392758D01*
X194868995Y-45244924D01*
X194868996Y-45244922D01*
X194975341Y-45115341D01*
X195104922Y-45008996D01*
X195120094Y-45000886D01*
X195252758Y-44929976D01*
X195413177Y-44881313D01*
X195538196Y-44869000D01*
X195621804Y-44869000D01*
X195746823Y-44881313D01*
X195746823Y-44881313D01*
G37*
G36*
X180506823Y-44881313D02*
G01*
X180667242Y-44929976D01*
X180799906Y-45000886D01*
X180815078Y-45008996D01*
X180944659Y-45115341D01*
X181051004Y-45244922D01*
X181051005Y-45244924D01*
X181130024Y-45392758D01*
X181178687Y-45553177D01*
X181195117Y-45720000D01*
X181178687Y-45886823D01*
X181130024Y-46047242D01*
X181059114Y-46179906D01*
X181051004Y-46195078D01*
X180944659Y-46324659D01*
X180815078Y-46431004D01*
X180815076Y-46431005D01*
X180667242Y-46510024D01*
X180506823Y-46558687D01*
X180381804Y-46571000D01*
X180298196Y-46571000D01*
X180173177Y-46558687D01*
X180012758Y-46510024D01*
X179864924Y-46431005D01*
X179864922Y-46431004D01*
X179735341Y-46324659D01*
X179628996Y-46195078D01*
X179620886Y-46179906D01*
X179549976Y-46047242D01*
X179501313Y-45886823D01*
X179484883Y-45720000D01*
X179501313Y-45553177D01*
X179549976Y-45392758D01*
X179628995Y-45244924D01*
X179628996Y-45244922D01*
X179735341Y-45115341D01*
X179864922Y-45008996D01*
X179880094Y-45000886D01*
X180012758Y-44929976D01*
X180173177Y-44881313D01*
X180298196Y-44869000D01*
X180381804Y-44869000D01*
X180506823Y-44881313D01*
X180506823Y-44881313D01*
G37*
G36*
X195746823Y-42341313D02*
G01*
X195907242Y-42389976D01*
X196039906Y-42460886D01*
X196055078Y-42468996D01*
X196184659Y-42575341D01*
X196291004Y-42704922D01*
X196291005Y-42704924D01*
X196370024Y-42852758D01*
X196418687Y-43013177D01*
X196435117Y-43180000D01*
X196418687Y-43346823D01*
X196370024Y-43507242D01*
X196299114Y-43639906D01*
X196291004Y-43655078D01*
X196184659Y-43784659D01*
X196055078Y-43891004D01*
X196055076Y-43891005D01*
X195907242Y-43970024D01*
X195746823Y-44018687D01*
X195621804Y-44031000D01*
X195538196Y-44031000D01*
X195413177Y-44018687D01*
X195252758Y-43970024D01*
X195104924Y-43891005D01*
X195104922Y-43891004D01*
X194975341Y-43784659D01*
X194868996Y-43655078D01*
X194860886Y-43639906D01*
X194789976Y-43507242D01*
X194741313Y-43346823D01*
X194724883Y-43180000D01*
X194741313Y-43013177D01*
X194789976Y-42852758D01*
X194868995Y-42704924D01*
X194868996Y-42704922D01*
X194975341Y-42575341D01*
X195104922Y-42468996D01*
X195120094Y-42460886D01*
X195252758Y-42389976D01*
X195413177Y-42341313D01*
X195538196Y-42329000D01*
X195621804Y-42329000D01*
X195746823Y-42341313D01*
X195746823Y-42341313D01*
G37*
G36*
X180506823Y-42341313D02*
G01*
X180667242Y-42389976D01*
X180799906Y-42460886D01*
X180815078Y-42468996D01*
X180944659Y-42575341D01*
X181051004Y-42704922D01*
X181051005Y-42704924D01*
X181130024Y-42852758D01*
X181178687Y-43013177D01*
X181195117Y-43180000D01*
X181178687Y-43346823D01*
X181130024Y-43507242D01*
X181059114Y-43639906D01*
X181051004Y-43655078D01*
X180944659Y-43784659D01*
X180815078Y-43891004D01*
X180815076Y-43891005D01*
X180667242Y-43970024D01*
X180506823Y-44018687D01*
X180381804Y-44031000D01*
X180298196Y-44031000D01*
X180173177Y-44018687D01*
X180012758Y-43970024D01*
X179864924Y-43891005D01*
X179864922Y-43891004D01*
X179735341Y-43784659D01*
X179628996Y-43655078D01*
X179620886Y-43639906D01*
X179549976Y-43507242D01*
X179501313Y-43346823D01*
X179484883Y-43180000D01*
X179501313Y-43013177D01*
X179549976Y-42852758D01*
X179628995Y-42704924D01*
X179628996Y-42704922D01*
X179735341Y-42575341D01*
X179864922Y-42468996D01*
X179880094Y-42460886D01*
X180012758Y-42389976D01*
X180173177Y-42341313D01*
X180298196Y-42329000D01*
X180381804Y-42329000D01*
X180506823Y-42341313D01*
X180506823Y-42341313D01*
G37*
G36*
X207913097Y-40234069D02*
G01*
X208016032Y-40244207D01*
X208214146Y-40304305D01*
X208214149Y-40304306D01*
X208310975Y-40356061D01*
X208396729Y-40401897D01*
X208556765Y-40533235D01*
X208688103Y-40693271D01*
X208733939Y-40779025D01*
X208785694Y-40875851D01*
X208785695Y-40875854D01*
X208845793Y-41073968D01*
X208866085Y-41280000D01*
X208845793Y-41486032D01*
X208785695Y-41684146D01*
X208785694Y-41684149D01*
X208733939Y-41780975D01*
X208688103Y-41866729D01*
X208556765Y-42026765D01*
X208396729Y-42158103D01*
X208310975Y-42203939D01*
X208214149Y-42255694D01*
X208214146Y-42255695D01*
X208016032Y-42315793D01*
X207913097Y-42325931D01*
X207861631Y-42331000D01*
X206158369Y-42331000D01*
X206106903Y-42325931D01*
X206003968Y-42315793D01*
X205805854Y-42255695D01*
X205805851Y-42255694D01*
X205709025Y-42203939D01*
X205623271Y-42158103D01*
X205463235Y-42026765D01*
X205331897Y-41866729D01*
X205286061Y-41780975D01*
X205234306Y-41684149D01*
X205234305Y-41684146D01*
X205174207Y-41486032D01*
X205153915Y-41280000D01*
X205174207Y-41073968D01*
X205234305Y-40875854D01*
X205234306Y-40875851D01*
X205286061Y-40779025D01*
X205331897Y-40693271D01*
X205463235Y-40533235D01*
X205623271Y-40401897D01*
X205709025Y-40356061D01*
X205805851Y-40304306D01*
X205805854Y-40304305D01*
X206003968Y-40244207D01*
X206106903Y-40234069D01*
X206158369Y-40229000D01*
X207861631Y-40229000D01*
X207913097Y-40234069D01*
X207913097Y-40234069D01*
G37*
G36*
X195746823Y-39801313D02*
G01*
X195907242Y-39849976D01*
X196039906Y-39920886D01*
X196055078Y-39928996D01*
X196184659Y-40035341D01*
X196291004Y-40164922D01*
X196291005Y-40164924D01*
X196370024Y-40312758D01*
X196418687Y-40473177D01*
X196435117Y-40640000D01*
X196418687Y-40806823D01*
X196370024Y-40967242D01*
X196312978Y-41073968D01*
X196291004Y-41115078D01*
X196184659Y-41244659D01*
X196055078Y-41351004D01*
X196055076Y-41351005D01*
X195907242Y-41430024D01*
X195746823Y-41478687D01*
X195621804Y-41491000D01*
X195538196Y-41491000D01*
X195413177Y-41478687D01*
X195252758Y-41430024D01*
X195104924Y-41351005D01*
X195104922Y-41351004D01*
X194975341Y-41244659D01*
X194868996Y-41115078D01*
X194847022Y-41073968D01*
X194789976Y-40967242D01*
X194741313Y-40806823D01*
X194724883Y-40640000D01*
X194741313Y-40473177D01*
X194789976Y-40312758D01*
X194868995Y-40164924D01*
X194868996Y-40164922D01*
X194975341Y-40035341D01*
X195104922Y-39928996D01*
X195120094Y-39920886D01*
X195252758Y-39849976D01*
X195413177Y-39801313D01*
X195538196Y-39789000D01*
X195621804Y-39789000D01*
X195746823Y-39801313D01*
X195746823Y-39801313D01*
G37*
G36*
X180506823Y-39801313D02*
G01*
X180667242Y-39849976D01*
X180799906Y-39920886D01*
X180815078Y-39928996D01*
X180944659Y-40035341D01*
X181051004Y-40164922D01*
X181051005Y-40164924D01*
X181130024Y-40312758D01*
X181178687Y-40473177D01*
X181195117Y-40640000D01*
X181178687Y-40806823D01*
X181130024Y-40967242D01*
X181072978Y-41073968D01*
X181051004Y-41115078D01*
X180944659Y-41244659D01*
X180815078Y-41351004D01*
X180815076Y-41351005D01*
X180667242Y-41430024D01*
X180506823Y-41478687D01*
X180381804Y-41491000D01*
X180298196Y-41491000D01*
X180173177Y-41478687D01*
X180012758Y-41430024D01*
X179864924Y-41351005D01*
X179864922Y-41351004D01*
X179735341Y-41244659D01*
X179628996Y-41115078D01*
X179607022Y-41073968D01*
X179549976Y-40967242D01*
X179501313Y-40806823D01*
X179484883Y-40640000D01*
X179501313Y-40473177D01*
X179549976Y-40312758D01*
X179628995Y-40164924D01*
X179628996Y-40164922D01*
X179735341Y-40035341D01*
X179864922Y-39928996D01*
X179880094Y-39920886D01*
X180012758Y-39849976D01*
X180173177Y-39801313D01*
X180298196Y-39789000D01*
X180381804Y-39789000D01*
X180506823Y-39801313D01*
X180506823Y-39801313D01*
G37*
G36*
X174357114Y-36176078D02*
G01*
X174730371Y-36330686D01*
X174730373Y-36330687D01*
X175066296Y-36555144D01*
X175351976Y-36840824D01*
X175562477Y-37155860D01*
X175576434Y-37176749D01*
X175731042Y-37550006D01*
X175809860Y-37946253D01*
X175809860Y-38350267D01*
X175731042Y-38746514D01*
X175646341Y-38951000D01*
X175576433Y-39119773D01*
X175351976Y-39455696D01*
X175066296Y-39741376D01*
X174730373Y-39965833D01*
X174730372Y-39965834D01*
X174730371Y-39965834D01*
X174357114Y-40120442D01*
X173960867Y-40199260D01*
X173556853Y-40199260D01*
X173160606Y-40120442D01*
X172787349Y-39965834D01*
X172787348Y-39965834D01*
X172787347Y-39965833D01*
X172451424Y-39741376D01*
X172165744Y-39455696D01*
X171941287Y-39119773D01*
X171871379Y-38951000D01*
X171786678Y-38746514D01*
X171707860Y-38350267D01*
X171707860Y-37946253D01*
X171786678Y-37550006D01*
X171941286Y-37176749D01*
X171955244Y-37155860D01*
X172165744Y-36840824D01*
X172451424Y-36555144D01*
X172787347Y-36330687D01*
X172787349Y-36330686D01*
X173160606Y-36176078D01*
X173556853Y-36097260D01*
X173960867Y-36097260D01*
X174357114Y-36176078D01*
X174357114Y-36176078D01*
G37*
G36*
X108977514Y-35670618D02*
G01*
X109350771Y-35825226D01*
X109350773Y-35825227D01*
X109686696Y-36049684D01*
X109972376Y-36335364D01*
X110119229Y-36555144D01*
X110196834Y-36671289D01*
X110351442Y-37044546D01*
X110430260Y-37440793D01*
X110430260Y-37844807D01*
X110351442Y-38241054D01*
X110213085Y-38575078D01*
X110196833Y-38614313D01*
X109972376Y-38950236D01*
X109686696Y-39235916D01*
X109350773Y-39460373D01*
X109350772Y-39460374D01*
X109350771Y-39460374D01*
X108977514Y-39614982D01*
X108581267Y-39693800D01*
X108177253Y-39693800D01*
X107781006Y-39614982D01*
X107407749Y-39460374D01*
X107407748Y-39460374D01*
X107407747Y-39460373D01*
X107071824Y-39235916D01*
X106786144Y-38950236D01*
X106561687Y-38614313D01*
X106545435Y-38575078D01*
X106407078Y-38241054D01*
X106328260Y-37844807D01*
X106328260Y-37440793D01*
X106407078Y-37044546D01*
X106561686Y-36671289D01*
X106639292Y-36555144D01*
X106786144Y-36335364D01*
X107071824Y-36049684D01*
X107407747Y-35825227D01*
X107407749Y-35825226D01*
X107781006Y-35670618D01*
X108177253Y-35591800D01*
X108581267Y-35591800D01*
X108977514Y-35670618D01*
X108977514Y-35670618D01*
G37*
G36*
X180506823Y-37261313D02*
G01*
X180667242Y-37309976D01*
X180794244Y-37377860D01*
X180815078Y-37388996D01*
X180944659Y-37495341D01*
X181051004Y-37624922D01*
X181051005Y-37624924D01*
X181130024Y-37772758D01*
X181178687Y-37933177D01*
X181195117Y-38100000D01*
X181178687Y-38266823D01*
X181130024Y-38427242D01*
X181059114Y-38559906D01*
X181051004Y-38575078D01*
X180944659Y-38704659D01*
X180815078Y-38811004D01*
X180815076Y-38811005D01*
X180667242Y-38890024D01*
X180506823Y-38938687D01*
X180381804Y-38951000D01*
X180298196Y-38951000D01*
X180173177Y-38938687D01*
X180012758Y-38890024D01*
X179864924Y-38811005D01*
X179864922Y-38811004D01*
X179735341Y-38704659D01*
X179628996Y-38575078D01*
X179620886Y-38559906D01*
X179549976Y-38427242D01*
X179501313Y-38266823D01*
X179484883Y-38100000D01*
X179501313Y-37933177D01*
X179549976Y-37772758D01*
X179628995Y-37624924D01*
X179628996Y-37624922D01*
X179735341Y-37495341D01*
X179864922Y-37388996D01*
X179885756Y-37377860D01*
X180012758Y-37309976D01*
X180173177Y-37261313D01*
X180298196Y-37249000D01*
X180381804Y-37249000D01*
X180506823Y-37261313D01*
X180506823Y-37261313D01*
G37*
G36*
X195746823Y-37261313D02*
G01*
X195907242Y-37309976D01*
X196034244Y-37377860D01*
X196055078Y-37388996D01*
X196184659Y-37495341D01*
X196291004Y-37624922D01*
X196291005Y-37624924D01*
X196370024Y-37772758D01*
X196418687Y-37933177D01*
X196435117Y-38100000D01*
X196418687Y-38266823D01*
X196370024Y-38427242D01*
X196299114Y-38559906D01*
X196291004Y-38575078D01*
X196184659Y-38704659D01*
X196055078Y-38811004D01*
X196055076Y-38811005D01*
X195907242Y-38890024D01*
X195746823Y-38938687D01*
X195621804Y-38951000D01*
X195538196Y-38951000D01*
X195413177Y-38938687D01*
X195252758Y-38890024D01*
X195104924Y-38811005D01*
X195104922Y-38811004D01*
X194975341Y-38704659D01*
X194868996Y-38575078D01*
X194860886Y-38559906D01*
X194789976Y-38427242D01*
X194741313Y-38266823D01*
X194724883Y-38100000D01*
X194741313Y-37933177D01*
X194789976Y-37772758D01*
X194868995Y-37624924D01*
X194868996Y-37624922D01*
X194975341Y-37495341D01*
X195104922Y-37388996D01*
X195125756Y-37377860D01*
X195252758Y-37309976D01*
X195413177Y-37261313D01*
X195538196Y-37249000D01*
X195621804Y-37249000D01*
X195746823Y-37261313D01*
X195746823Y-37261313D01*
G37*
G36*
X139919059Y-37377860D02*
G01*
X140055732Y-37434472D01*
X140178735Y-37516660D01*
X140283340Y-37621265D01*
X140365528Y-37744268D01*
X140422140Y-37880941D01*
X140451000Y-38026033D01*
X140451000Y-38173967D01*
X140422140Y-38319059D01*
X140365528Y-38455732D01*
X140283340Y-38578735D01*
X140178735Y-38683340D01*
X140055732Y-38765528D01*
X140055731Y-38765529D01*
X140055730Y-38765529D01*
X139919059Y-38822140D01*
X139773968Y-38851000D01*
X139626032Y-38851000D01*
X139480941Y-38822140D01*
X139344270Y-38765529D01*
X139344269Y-38765529D01*
X139344268Y-38765528D01*
X139221265Y-38683340D01*
X139116660Y-38578735D01*
X139034472Y-38455732D01*
X138977860Y-38319059D01*
X138949000Y-38173967D01*
X138949000Y-38026033D01*
X138977860Y-37880941D01*
X139034472Y-37744268D01*
X139116660Y-37621265D01*
X139221265Y-37516660D01*
X139344268Y-37434472D01*
X139480941Y-37377860D01*
X139626032Y-37349000D01*
X139773968Y-37349000D01*
X139919059Y-37377860D01*
X139919059Y-37377860D01*
G37*
G36*
X142604060Y-37377860D02*
G01*
X142740733Y-37434472D01*
X142863736Y-37516660D01*
X142968341Y-37621265D01*
X143050529Y-37744268D01*
X143107141Y-37880941D01*
X143136001Y-38026033D01*
X143136001Y-38173967D01*
X143107141Y-38319059D01*
X143050529Y-38455732D01*
X142968341Y-38578735D01*
X142863736Y-38683340D01*
X142740733Y-38765528D01*
X142740732Y-38765529D01*
X142740731Y-38765529D01*
X142604060Y-38822140D01*
X142458969Y-38851000D01*
X142311033Y-38851000D01*
X142165942Y-38822140D01*
X142029271Y-38765529D01*
X142029270Y-38765529D01*
X142029269Y-38765528D01*
X141906266Y-38683340D01*
X141801661Y-38578735D01*
X141719473Y-38455732D01*
X141662861Y-38319059D01*
X141634001Y-38173967D01*
X141634001Y-38026033D01*
X141662861Y-37880941D01*
X141719473Y-37744268D01*
X141801661Y-37621265D01*
X141906266Y-37516660D01*
X142029269Y-37434472D01*
X142165942Y-37377860D01*
X142311033Y-37349000D01*
X142458969Y-37349000D01*
X142604060Y-37377860D01*
X142604060Y-37377860D01*
G37*
G36*
X208724852Y-35232840D02*
G01*
X208756443Y-35242423D01*
X208785557Y-35257985D01*
X208811074Y-35278926D01*
X208832015Y-35304443D01*
X208847577Y-35333557D01*
X208857160Y-35365148D01*
X208861000Y-35404140D01*
X208861000Y-37155860D01*
X208857160Y-37194852D01*
X208847577Y-37226443D01*
X208832015Y-37255557D01*
X208811074Y-37281074D01*
X208785557Y-37302015D01*
X208756443Y-37317577D01*
X208724852Y-37327160D01*
X208685860Y-37331000D01*
X205334140Y-37331000D01*
X205295148Y-37327160D01*
X205263557Y-37317577D01*
X205234443Y-37302015D01*
X205208926Y-37281074D01*
X205187985Y-37255557D01*
X205172423Y-37226443D01*
X205162840Y-37194852D01*
X205159000Y-37155860D01*
X205159000Y-35404140D01*
X205162840Y-35365148D01*
X205172423Y-35333557D01*
X205187985Y-35304443D01*
X205208926Y-35278926D01*
X205234443Y-35257985D01*
X205263557Y-35242423D01*
X205295148Y-35232840D01*
X205334140Y-35229000D01*
X208685860Y-35229000D01*
X208724852Y-35232840D01*
X208724852Y-35232840D01*
G37*
G36*
X195746823Y-34721313D02*
G01*
X195907242Y-34769976D01*
X196039906Y-34840886D01*
X196055078Y-34848996D01*
X196184659Y-34955341D01*
X196291004Y-35084922D01*
X196291005Y-35084924D01*
X196370024Y-35232758D01*
X196418687Y-35393177D01*
X196435117Y-35560000D01*
X196418687Y-35726823D01*
X196370024Y-35887242D01*
X196299114Y-36019906D01*
X196291004Y-36035078D01*
X196184659Y-36164659D01*
X196055078Y-36271004D01*
X196055076Y-36271005D01*
X195907242Y-36350024D01*
X195746823Y-36398687D01*
X195621804Y-36411000D01*
X195538196Y-36411000D01*
X195413177Y-36398687D01*
X195252758Y-36350024D01*
X195104924Y-36271005D01*
X195104922Y-36271004D01*
X194975341Y-36164659D01*
X194868996Y-36035078D01*
X194860886Y-36019906D01*
X194789976Y-35887242D01*
X194741313Y-35726823D01*
X194724883Y-35560000D01*
X194741313Y-35393177D01*
X194789976Y-35232758D01*
X194868995Y-35084924D01*
X194868996Y-35084922D01*
X194975341Y-34955341D01*
X195104922Y-34848996D01*
X195120094Y-34840886D01*
X195252758Y-34769976D01*
X195413177Y-34721313D01*
X195538196Y-34709000D01*
X195621804Y-34709000D01*
X195746823Y-34721313D01*
X195746823Y-34721313D01*
G37*
G36*
X180506823Y-34721313D02*
G01*
X180667242Y-34769976D01*
X180799906Y-34840886D01*
X180815078Y-34848996D01*
X180944659Y-34955341D01*
X181051004Y-35084922D01*
X181051005Y-35084924D01*
X181130024Y-35232758D01*
X181178687Y-35393177D01*
X181195117Y-35560000D01*
X181178687Y-35726823D01*
X181130024Y-35887242D01*
X181059114Y-36019906D01*
X181051004Y-36035078D01*
X180944659Y-36164659D01*
X180815078Y-36271004D01*
X180815076Y-36271005D01*
X180667242Y-36350024D01*
X180506823Y-36398687D01*
X180381804Y-36411000D01*
X180298196Y-36411000D01*
X180173177Y-36398687D01*
X180012758Y-36350024D01*
X179864924Y-36271005D01*
X179864922Y-36271004D01*
X179735341Y-36164659D01*
X179628996Y-36035078D01*
X179620886Y-36019906D01*
X179549976Y-35887242D01*
X179501313Y-35726823D01*
X179484883Y-35560000D01*
X179501313Y-35393177D01*
X179549976Y-35232758D01*
X179628995Y-35084924D01*
X179628996Y-35084922D01*
X179735341Y-34955341D01*
X179864922Y-34848996D01*
X179880094Y-34840886D01*
X180012758Y-34769976D01*
X180173177Y-34721313D01*
X180298196Y-34709000D01*
X180381804Y-34709000D01*
X180506823Y-34721313D01*
X180506823Y-34721313D01*
G37*
M02*
