M48
; DRILL file {KiCad (5.1.0-9-gc61ec8ee3)} date 28.06.2019 12:09:35
; FORMAT={-:-/ absolute / inch / decimal}
; #@! TF.CreationDate,2019-06-28T12:09:35+02:00
; #@! TF.GenerationSoftware,Kicad,Pcbnew,(5.1.0-9-gc61ec8ee3)
; #@! TF.FileFunction,Plated,1,2,PTH
FMAT,2
INCH
T1C0.0276
T2C0.0295
T3C0.0315
T4C0.0394
T5C0.0433
T6C0.0512
T7C0.0551
%
G90
G05
T1
X4.94Y-3.98
X5.04Y-3.88
X5.04Y-4.08
T2
X6.8Y-2.76
X6.85Y-2.76
X6.9Y-2.76
T3
X6.54Y-3.22
X6.94Y-3.22
X5.74Y-4.33
X5.74Y-4.73
X7.1Y-1.4
X7.1Y-1.5
X7.1Y-1.6
X7.1Y-1.7
X7.1Y-1.8
X7.1Y-1.9
X7.1Y-2.0
X7.1Y-2.1
X7.1Y-2.2
X7.1Y-2.3
X7.1Y-2.4
X7.1Y-2.5
X7.1Y-2.6
X7.1Y-2.7
X7.1Y-2.8
X7.7Y-1.4
X7.7Y-1.5
X7.7Y-1.6
X7.7Y-1.7
X7.7Y-1.8
X7.7Y-1.9
X7.7Y-2.0
X7.7Y-2.1
X7.7Y-2.2
X7.7Y-2.3
X7.7Y-2.4
X7.7Y-2.5
X7.7Y-2.6
X7.7Y-2.7
X7.7Y-2.8
X4.84Y-4.48
X4.84Y-4.88
X6.54Y-3.04
X6.94Y-3.04
X6.2Y-3.7
X6.2Y-3.7984
X6.24Y-4.48
X6.24Y-4.88
T4
X7.0768Y-5.05
X7.0768Y-5.1976
X4.2Y-2.9
X4.2Y-3.0
X4.2Y-3.1
X4.2Y-3.2
X4.2Y-3.3
X4.2Y-3.4
X4.2Y-3.5
X4.2Y-3.6
X7.3Y-5.05
X7.3Y-5.1976
X8.2Y-4.6
X8.2Y-4.4
X7.95Y-5.05
X7.95Y-5.1976
X7.7Y-5.05
X7.7Y-5.1976
X6.8Y-2.0
X6.8Y-2.1
X6.8Y-2.2
X6.8Y-2.3
X6.8Y-2.4
X6.8Y-2.5
X6.8Y-3.4
X6.8Y-3.5
X6.8Y-3.6
X6.8Y-3.7
X6.8Y-3.8
X6.8Y-3.9
X8.2Y-4.7
X5.5Y-1.5
X5.6Y-1.5
X8.2Y-4.3
T5
X7.1Y-3.1
X7.1Y-3.8
X7.2Y-3.1
X7.2Y-3.8
X7.5126Y-3.1
X7.5126Y-3.8
X7.6Y-3.1
X7.6Y-3.8
X5.99Y-4.33
X5.99Y-4.73
X7.5394Y-4.8051
X7.5394Y-5.2051
T6
X7.95Y-4.2134
X7.95Y-4.4102
X7.95Y-4.6071
X7.7Y-4.2134
X7.7Y-4.4102
X7.7Y-4.6071
X7.0768Y-4.2134
X7.0768Y-4.4102
X7.0768Y-4.6071
X7.3Y-4.2134
X7.3Y-4.4102
X7.3Y-4.6071
T7
X8.15Y-1.4283
X8.15Y-1.6252
X8.15Y-1.822
X8.15Y-2.0189
X8.15Y-2.2157
X8.15Y-2.4126
X8.15Y-2.6094
X8.15Y-2.8063
X8.15Y-3.0031
X8.15Y-3.2
X8.15Y-3.3969
X8.15Y-3.5937
X8.15Y-3.7906
X8.15Y-3.9874
T0
M30
